<mxfile host="app.diagrams.net" agent="Mozilla/5.0 (X11; Linux x86_64) AppleWebKit/537.36 (KHTML, like Gecko) Chrome/136.0.0.0 Safari/537.36" version="28.0.7">
  <diagram name="Page-1" id="UQcaIYe-w3ymHMMSkBON">
    <mxGraphModel dx="2120" dy="1383" grid="1" gridSize="10" guides="1" tooltips="1" connect="1" arrows="1" fold="1" page="1" pageScale="1" pageWidth="827" pageHeight="1169" math="0" shadow="0">
      <root>
        <mxCell id="0" />
        <mxCell id="1" parent="0" />
        <mxCell id="k0ymyrdRpFGEkxgsoQmm-3" value="" style="rounded=1;whiteSpace=wrap;html=1;rotation=90;strokeWidth=4;" vertex="1" parent="1">
          <mxGeometry x="394" y="820.75" width="380" height="237.5" as="geometry" />
        </mxCell>
        <mxCell id="k0ymyrdRpFGEkxgsoQmm-7" value="" style="verticalLabelPosition=bottom;verticalAlign=top;html=1;shape=mxgraph.basic.tick;fillColor=#00CC00;strokeColor=#00CC66;" vertex="1" parent="1">
          <mxGeometry x="539" y="772" width="90" height="105.88" as="geometry" />
        </mxCell>
        <mxCell id="k0ymyrdRpFGEkxgsoQmm-9" value="" style="verticalLabelPosition=bottom;verticalAlign=top;html=1;shape=mxgraph.basic.x;strokeColor=#FF3333;fillColor=#FF3333;" vertex="1" parent="1">
          <mxGeometry x="539" y="971" width="90" height="90" as="geometry" />
        </mxCell>
        <mxCell id="k0ymyrdRpFGEkxgsoQmm-10" value="or" style="text;html=1;align=center;verticalAlign=middle;resizable=0;points=[];autosize=1;strokeColor=none;fillColor=none;" vertex="1" parent="1">
          <mxGeometry x="1126" y="721.09" width="30" height="30" as="geometry" />
        </mxCell>
        <mxCell id="k0ymyrdRpFGEkxgsoQmm-13" value="programs with loop invariants" style="shape=image;verticalLabelPosition=bottom;labelBackgroundColor=default;verticalAlign=top;aspect=fixed;imageAspect=0;image=data:image/png,iVBORw0KGgoAAAANSUhEUgAAAvcAAAHbCAYAAABP+bVrAAAABHNCSVQICAgIfAhkiAAAABl0RVh0U29mdHdhcmUAZ25vbWUtc2NyZWVuc2hvdO8Dvz4AAAA9aVRYdENyZWF0aW9uIFRpbWUAAAAAADIwMjXlubQwN+aciDI55pelIOaYn+acn+S6jCAxNeaXtjUw5YiGMjTnp5LpunQjAAAgAElEQVR4nOzdd3hUVfrA8e+dSSaF9BBIJQmEEgi9BelNBBQQKRYUu/5UXFfdXV3Xsqvuuq5td61rbytIFRQEpfeeAKGm95DeM5OZe39/zACpkED6vp/n8XlwMvfOmTtz77z3nPe8R9E0TUMIIYQQQgjR7ulauwFCCCGEEEKIpiHBvRBCCCGEEB2EBPdCCCGEEEJ0EBLcCyGEEEII0UHYtXYDhLga2TGwMxqKTaABih6CRsCk3vVsUAi7tkN8Pqh1TCHXGaDvRBjm1zTtyzoMv5yCiOthUJem2acQQgghxJUoUi1HtDfqeZgdBj8WV39cHwA/xcE0h9rbbHgAbvoELJfZr9NEOPUrBF/jeFbmcoi8A5IqwdAdvt8Hs32ubZ9CCCGEEA3R/tJyLCUUmMyt3YoOw2QqoFRt7VY0js4eArqCUuNxSw5kmOrextMfXK8wTlWZCZlN8NXavQZSKq3/NiXCD/uvfZ9NygQFpa3dCCGEEEI0h3YV3FsKPmXOW554/T2Uu05m085i0jbGQtKROQS95oXnO3exoj1F+J7w4WnIzYKMdHh19KU/afW8jcg/Q24xZGVCRkaV/5LgLv8q2zdB8yKGQifbnYfODYb2bYKdNhFLEswJAi9PuGsFcg4JIYQQHUy7yrk35x7kcLkZTcvkcHo85r4+GFq7Ue2WmbPph8nVNCwlhzmUb2Zep3Z0NPXg2QVQwaWBzdY5QhfHGg8awaHmEMA16v0bWO8KK2JgwEJY3L1p938tzGfhcC5oFjh8CMzzaPvnkOU8+79fyu6CUG64YyZ93dpVn4QQQgjRotpVcI+mXuxZlakC185y8Rhq0oPblPQw5gEY09rtqIvl0uhEfaMcbY0lZTc/74wh3XIGfb/x9Bnn1r6GHIUQQogWJL+RQog2TTOZqNQANCpN9UyqEEIIIQTQrD33KsUFh9mdcpRTBWlkV5RiVPU4O/kS4jOMsSGjCCxZy7vHY/APf4JFfq619mAsTyK+MI8y1drFaC7Ix2zrdjSWxRKVbo++5kaKHc5O3eju4UntoikqFaWJxBYXYlQvdVvqdA54uvcixKl6goJqTGB/0gHOFJ2nWOtEF6/hTAjpT9cqL2oxZRKXn0GxRQV06PSuBHiH0aXmkdXKOJ8fT5rRiKqBTrHDySWMPq6dGng8LzBTkLefbcmHOZWfRX5lBariiKtzED19IhgaGElv57o+ViP5BfEkl5fZjqGZxHKzrRfXSE5eFId1tY4mOp0zXu7dCXaqowRNC6pIg+17Iek8uHWHYcMhzLtVm3RRYTokZUFljZ5wnQ6c/aC379XvuzgJdu+BUwmQXQhGMzh7Qkg/GDsBAjPg3e/Afy4sGlx7e2M+xCdDmW2isDmRS+dQDkQdpvY5pANnL+geTB3nUHNSMZWUojq74li120GnXJw8rSg1+yMqKS0y4+DmVO1iZinJJC4hg2KT7by0dyWgV9iltCxjJsd27iIqPpNinScBPYcwbnQ4Xtd0RTRTmJJMkVs3gtzb16CoEEKIjqMZfoFMpMT/k+e3/ZvlKamU1TlFUUFn70+wQy6JJUYc07ty/R0P0qVK7rMp7Xkiv3iVKHNd25uJj7qTkVH1tcGJIeN2sH/isGpvsCLhCSK+eZe4WoXOFfRON/P5I8u500VHSc4q/rHlr3x87iiZZrXKO1Bw9prPOwu/4oEuDqjFXzH/g3tYXa5W25dLt7+zf/Hv6HsxDilg9Zp+zD+WXq0Uo6Lvz7N3H+LVwIZkPZcRe+Zt/rzzA1ampVFe53MUdPYh3DD6Uz4fN7HK8TRxYEskE3ZG1b2dFs/nq0fyeT2vrNgN4fl79vNn/5YPWLL3w1/+BN9sg4IqlWwUHQSOgT+80rqTQk++Bdf9DgrraYTiDC/tghfqCLwvJ+VXeP4lWL4XyurZt64TBLtBYgY4HoTr10OXKrGv6QBEToCour8sxH8OI+v90GHI87D/zy2Vu6eSs/sjXv8mGpPfUG6YezOTIzpjD6C3u3gDoqtyA1qRfpANK39gS0w+7mMe5JVFA617yviK+QPuYXVO9fPSedRf2b9uOlGvP89f/7OB0wXmS+e2osPJbxjzfvs3/vb4JAIaORFBzd7MSwvu5LXtGZgdQpjxylKWPjUSl6s7GEIIIcRVa+LfbRNnjtzKlJ/WkHoxgFZQFAdcDM7YY6LEVIpJ01Ar00iwlQs0mwop1qgW3FNZTMlVR21mioyltYI+1VxGRZ2p+hqWitPEFBRwKOZ+Fv66hvg6byo0yvJW8OzO+dx2yzycKgsotNR8nkZZTgyxKpeCe62CQmN5rdsczXKOEzlGuFJwryaz+uebuffgUQq4dFz1+k64GRzRqRUUG0sxoaFWJrBh+z28EHCSD8OcL+6i3FTCVVd5VIsoNLVwCK3C/rdh3rOQWln7z5oKKTtgyRTwca7995ZiLsOWMlI3rRxizgKNCO7PfAJTHqn+vhU7cHEBe6CkGEwWUEshwVbS0lyC9RyquqNyKLmG0p5FhS1546SSn5pGsaqhph1i9bvH2TNwKnPnXk+EnR16BUBBb28Hpcns/WkFP2w/Q77t/eVnnL+4J62sgEJj7fOy/NhnLLruVY6fLan9vjSV8vQDfP37aWza8BIrlj/LGK+GZi2a2PPaI/xte4Z1VKQikfV/eoJ/37CLZ/vVHg0TQgghmlOTBveWgk95fNMaUlXQOwzglpGPc0+fKUR2CcbD9htnMaURFfc1f9/8Mity6+7XBzCEvM6eR24jpqCACtvET3Pme9y7+Uey0RPc7x3eGxRWO6UAPU5OoUT4htWqAuLc810O/9/9nCwqxKhpgJnoA/fyx3PZqBRxcPeNfHpmHzmahmIXwoT+i7m9zw2M8gkic/8kbth/FjMaFtXa46f3epwfHhlHVG4WJZYklv78KF/mmUFTqwcPii93zz1KRNpZci1m8s4+x+KDR6lEQ73SrEYtk7Xrp7Po8EnKAMUulKnDnmLJgDlM6BqAiy3+MGb/lQkfPsc+FTQtk7j8IlScbZMqDIyfuocTETEkVVTYRg+qvHclmIU3vMfdXrWPpqI44ekZwSCvlq2pcvwdmPF7yFOtge2g+XD/HBg7ClyyYPdmeO9t2J8F51sxDXvAH+HkTIg9Xz3Iz1wFD34MldS9Im59LInw+NPWwF7vAbc8DvfMgch+4GH7CCylELUJ/v4srDhTf/lOw3jYcwJikqDCNmRkjoZ7/wjZKgQvhPfuriMtRwEnT4gY1JKVdOzoOfthFivf88OOM+RVGsmK+pEPTu6j71BfjLac+6ITK/jH2v3EF9rekOJAl4jJ3LJwwsU96Xs8zg8x44g6m0WJMYmlTzzKl+fMaKXniD4Lit6TAfOWsOS2qVw3oi+dy2PZs/Zz3nr9U3ZlVJK15QVmL+jEjvVP0K9BB8BEQnwqVe/zNVMSsYmVIMG9EEKIFtaEwb1Kduwadho1UMJZcusO3g5xr/UsvSGAoeHP8LVLHic+/wen6g18DPh4j2RClbxqI6swKICm4Ow+jKlhkY0MPhzp6hNJ14urhRrhlMGaz6ulsuV0KqDg0uV+PrjlLRZ1uTQPIHzMB7xc/jqbTX25Z+JcLvzFxX0QY9wBNZq9hsvUVDQEMyw0GFBJyf1HrQWY6qaSefJpHj1ykjIU9C438NrCb3gy0KvWTGgH77ncHvI2B+Nz0blOZ2EPn+rP0fvQK3ACvS4+UOW940w3/6nc0KD0oOZnPAB3/8kW2HeC+z6D9xZUCTSDIHQYzL8FFk+B75Oapj79VdFB8GAIrvHw2XpTxi4v+2fYWQTYwZI18Pb42s/Rd4KhN8PXvnBiHJy6TO+8Ty+YcOlDxwhc+Jo6d4OpN7ShUpiOgUQueJLB46PZvHYtvxxJpcyUw8m9ObYnWEg5usf2bz2uISOZNudGJoR7W9N3qnAJGsSYIMAczV6XS2ebYh/Kgo/W88U9fbhUFXUEc54YwU3zb2DJ9Dv48HgpeVue58G3JrP9mf4NuEg6M27WVDqv/YFsFUBBHzCNmyLbzJEVQgjxP6QJg3uNEqM19UPR+dLds/YE2aoc/MYR6fwmp0o17B08cG3iWuNXR8He616+WfQRs12rh886l0k8c/MknmnJ5lgO8Pa270nTQNH14dGbv+XpQM+6n6vrw5I7zjAjOw17j350c2inhZBU+OYVW564Dib/tUZgX4VDGHzwL9gzF1IsdTyhHSopsk54VfTQ/Qr18R0GQ6Q3nMoCezfayDl07Ry6DmTGA/0ZE7+btd+tZFdy9ZQ2vUdvJs2dz/ThQXRqzNdcsaf3Y5/zSbXAvsp+A2bzzjd/4tiYP7K7uIT9777Buoe+5OZ6TrlLdAQv/pgfSv3567IoSruMYvELLzDHu52eg0IIIdq1Jvz10RMUOJxgRUGzbOel7x/lo8QESurrUrW7nhfnvssrE97km6m3Vc+3by1Kd+6d/katwL61lMV/wre5lWjo6Nz7OZ4LvUKUofOiR9f+7TewB9Rk+OYXa663fQT89aHL9yx7ToM5NbvN27GgSAi2A80IL82Dj7ZR/9wTR3jxG3jlL/DNP6pPpm3vLIUJRO0/yIn02nNVLEUpxBw9ysmM2vNqLstuKIsfGnPZSa6GAY/x3K1B6AFLxlq+3VDQsH3rfBj12Pus27mHLSvfZPHA2qOWQgghREto0px7h25P8Wr/H7nrWBx56R/y8Jf/4UmXcAb7RtDXpx/9uw5gQNeBDPAJwVNvILj7//Fcm1m9U8Ex4AGe6O7R2g2xMXE0fidZGoA310fMahs3QM0sdwscMlr/3f9mGHylWoz2EBoIxDd3y1qGwxh49Xa462vIOwAPT4InfWHwIOjbD/r3hwEDYEBf8DRA8BR4bkprt7oJVWQStXkta389QlrZpcnj1RKv1DLSj/7EJ8e2s2nYVGbdNIn+PldOgdF1CqVn8JVy4F2YOHcavp99TJqlmL1b9mK8fXoLlwQVQgghrl7TVstRglgwazPunf/As3tXEVVeSVlJDLtjY9gde/FJ6O19iQiexYIBd3Fn+HUEtYmS0HZEhN1IzzbT+1nKmdxk6+RXXT+GBTS2Hn77FHcGa0UjHUQMbtgXVN+R5izqYMHH4N4bnn0bonKgLAN2Z8DuDZeepu8EEeNgwSK4cy4E1ZVn0s6Ux23k00/Xcjz3wiQCPR49xzJznIFdX2wiyWJHxNyHCc9cx4Z9SZRYSkjev5p3j+5m6PyHeXBcwOVfwM6ujgn4tRkGDqSPHtIsFnJTkikCfK64lRBCCNE2NH0oqw9m2tilHPltHHvmv8sLw25jRlB/gh0dbS+mYanMIDr2I55bNYa+H8zlH8m5rVqr3MqTfr49GvTj3yK0QgqN1hr7iuKCh2ObuetoVhXltj5aBdz/VzMbDDDtj3AkCfYshxcegRmjIdgLdLbRG0spRG+A5+6AvgPhH7tat97/taskbs8WTtgCe3uvcKbe8ywvPnkbo7vaXSzjqjqFMGXxH3jhiXmMCHCyTgg3nSdq11XOYK6DztUVF9uBVovyye8g8zmEEEL8b2i+PnP7ICL7Pkpk30dtD5gpKIghKvMwB5I28/O5jezKzaUkbzXPfJeD+c5NPOvfit2PigfeTm0ogFbc8XDQWxMStBwyiy3g0GZuPZqNt7f1jtOiQV5+AzbQwNiKpTCblTNEzrP+d0FBEkQdhQM74ef1sOsMlJyFZ2aBeRM8O6z1mntt7AkbfT0jsqOo7DGBWdOG4me7HJjNZluZSQ2LxYKKHvfeU7nv2aFct+1HfokuoOuEkVd8Bc1sbtBaD5bsbHItGqCgc3XH/X8gHU4IIUTH0aTRrDHtH9z4fg96ffo4a2rNArTDw2MgE/rcy++nfcuWx+I4NGsx4XYKasVuXt/+XdM0Qstgy77f8djG1/kpvzEr+OjRt1Bsr2kNKdzoyiC/Xta7L/UEO5OyW6VnVi3ewj83PcZTu38ioQUaEBQGnRRAhehDXDkYq4Szic3frpZiPAg3RkCv0bAms/bfPYJhwhz4/Zuw5RQc+hTCnUDNh9dfbqJGqLDln/DYU/BTQhPtswEcu0/m3ief4qHZlwJ7a3ssF7/7qqXKl9Dei/Cpd/H404+zcFjnK+5fK00lKePK3fDF+/ZxwgKgJziiP55t6J5fCCGEuJIm/NmykBC/gk3Z8ZxL/Zg3j8Vy+Z9RdwYMfpfX+vmhR6UofXejXk2rp7K5OesDnvzlDd7b9xxPHzrYqH22DJXzZbkNqMtuR7+wqfRQAErZcvgjjjUgPaAsZz0f7P0X32fkNeJmQKunULyZY4ee5Hd73+OtzU/zQVrzd5G7TYDhTtZ/n14B+you//ySLbCxjiC4vUr4BTbFwLm98OY3XOEcggH3wGsLrQtRFR1q3GvV9x00H4MnfwfvvQVPf9C4fTYLrcrZfqVF3y7HfJSNG9Iuf16oSSz76leKVEDvx8Tpw9rOOgBCCCFEAzRpn5RFvfCzaWTf4X+z3XilLexwsmt4ZpBicME6rVSjzFhaZ3Biyk8gzbaQjJ2uJWfq6tHbhu819TLD/2osmxPONSg9wBDwMP8X7IaCRkXGWzy8Yy/Fl9vAvI9XVtzCo5t+wx0rXmXvZSNDBRdDJ9siVmUUV9Z5NEnIT7MGmIoddrrm78LU+cE9M61fTHMsPPdvqPeWwgj/egVSO1BOtOXCe9Fg38ew/bIfuJXThV7uBgwIKS62kRGgrLjuTUwJkGZrRyNOz2aj8/TG0w5QnPHq7HL1Fy2tlG3v/ZPdpfU9QSVl2R945ZdCVBQcBt7DA+MbmCpYdoIvHhpPmI83gYPm8uq28+18DoQQQoj2qpmiNQ1z3kfcu/pfHKq351UlL/k1Xj6RigUFF7/IK+7VziOMbnprzkZG8kYO1Yz61ESWRm8iDwB3+vmGXcubaBxdF3ydrTnyVMZzrqCOiFMrYP/uR/hHakXDVlTV9eD+yU8wzKAARRzYOZuZv64jsa47Ay2PHdsf592sCjR0uHUZdIXKP3aEenWzruypZbAz9hA1Yx5LwVK+jLOOAOgc+jHIqwUiPR3c8kcY4QqosPMFePAbqPU1MsHyR+Hlfa24Om0zM5+De++EQ4X1PydvN7y81NrD7zLkyvu0C4VutuVcM3bCoVofOiz90ro6MDroN+gqG9+EdD7jWfzY3Sy6/1HmDbyWeTkalafe5f4ly0mqdQ5VEL/iMWY9vJxUi4Zi3527/vw4gxvUbW/m2Fv38cjHO4jLySMtejUvLHyMpVkS3gshhGh5zRitVZJ05rdM/vgnFvS/hesDwvB1dECtzCUt9zj7E1bz/ZkjZKoaij6ce0fdesU96lxnMi/kObbEFlCZ/U8WfFvKk0NnMtTDjYqCPaw5+j5fJJ639rr53M2jPWss+qSmsOfkj+wrLMKkaYCF+PMXRgDyOHT8DV5LvBQRK7pOdPWZzM09+3Llwi3ejAsZjCFuL0b1IH9bditlIxdyXWc/3JUSUrO2seb4t/yQmkLZpQYRH/dPXit1xODQjZG95jLavXo04Rz4PP+94SRTflxJkprNzt1z6H9yEgv7z2VqQG/8HTTy8w+z6fh/+CI+jlJA5zCGZyYsvEJdfB1+PecxwWELG4yVnNy/gBmVT/Jgz6EEO1SQmLKGzw5+wbYyFXAgfNCjzHS64kFoEoZB8NlrMOFxOF8BXy2GA9/BzVPgugFQEQurPobvj1hXc71IhY3/hPOO4NYNbpwLQbbDacmE1WshPh/UqttY4IQtwNXy4L9vwLaqN0UKOHnD+JthkHftthaehNWbIau0+k1G/u5L/3/uJ3gtscouDRA4FG4ZT50rpV6kQdIPMHkELLgdrh8Ovh6glkHaOdi/Gb5fB5kmUBzg3qcuf1zBOjIybwJs2QCVJ2HBDHjyQRgaDBWJsOYz+GKbtfKOQzg8OvPK+2x+9nTuPYqxTbErzcTZL+5g1JmNPPbATYwIhJSo/ezevIrlm85SpGqg8yDyj1/z1o3eDez9qCD60HFrCVcbNftnVmwq5PY7r7i8rRBCCNGkFK1hszsbwELM9kgGbztEJS54O1nIK6+9umStBtj35tYbVvDZkIjLBzo2pvPvMefrJ/i5xFzPvhXsXWfy5m1LWeJXvTZ8yYkFBK1cTgPXnLTtLpzf3xvF3wMb0IVXsZknP5/FO+fLLvO+DXg5OVFQXlhj2F7BpddnJN12N161tjGTeOp33Pbje+wvq7zMvhV0jpE8NXcFr/X0b0BgYuLEgTlc//PPZNT7NbAnsOebrJ23pIG9mE3n6Lsw73cQX9/ojwIhs2BGNry/p/bfZn0GP9xt/d81d8EtX199ucieT8CJt2uslmuGF4fDX66iCqPiAG+egt+GVn885mUY/AJU6sDbE/JyrzwyoXSCW9+Bz+6/ws2CjekEzLkefs6of9/2gfDmWlgyuAE7bMvM0bw4Yjh/OVqJzi2S2WOzWL8+AWM9b1xxDObGV5by1W8j8WjwuKaZoy+OIPLlo5gu7teeoX8+wqEXIq79PQghhBCN0IRpOXp8vUJwRcGp6xP8uCSK1RMXM9Hbu44JaTqcOvVjyqC/sOz+fXzTwMAewNDlUVbcs5znwwfTVa9wqXNah8GpLzcMf5etD66pFdgDOHoPZaibG/Y0rLadojjRufNIBrk2cIDDcTJv3LmBtwePp7uDXbVXURQn/Pxu4y8Lojh3xx8Y71q1HTrsDYEMD+yHS507tiMk/G12PbqHz0cvZKynB/bVW4q9Y28mD32bXx7eyusNCuwBDESMWMGOBc9zi29XHKq0WMFA58438OiMrRy6teUDe4DBj8GRA/DMXAhw5lLrFPDpD098DIdXweIboLPh0t8VHbgFQmS/S/sKGQjd3C/ViW8wBRw8Yfggaq+BoIO+Q6GzEw38Rtl2aQ++AyGi9l0cvj3AVQdOA+DHc7D6FZjYBww1X0ABp64w5R5Ytg++aWBgD2CIgBU74PlboKtD9eNq6Aw3PApbD3WAwL4mQ0/uWrqbTe88yIQQl4tzZEDBzr07Y257gaWHoln7VGMCewA7Bj/9IW/cNpQAF3sU236VFpijIoQQQtTUhD33gFZAbPo5dN5D6X5x0SULJcXnOJWXSp4ZDPbudHHvSU93j2uvQmEpJD3/HPGlKt5e4fR0dW3OPKPGUYvJLEwipSiXSocgenqH4GPfVD/2JgoK40koyiTPbIe7aw/6ePnhco27N1WkE58XT7bmTY/OPfF3aDNHE7UUYs9BRjH4BENYNzpmFRMVYg+Brjd0r5ILVpIBp85BnhEMTtClG/RsimNggvR4iM8G7x7Q079Zc/VaXtWe+853sjLlK+Y4AlSQdSqa05lGHH2CCAsLxbsJltkoXncf4Td/Rprmya1Lk/luft2360IIIURzadrgXggh2pJ6g/tmYDrFO9Ov46ktBeB5C1/FruCOOkZnhBBCiOYk48ZCCHGtSk/y9cPzeW5rAapiIOKhp7lFAnshhBCtoEONwAshREsrO/ouixY+w5pzpWjo8LjuOT56LrLBcyCEEEKIpiQ990IIcdUsZG1fyYbYUjTFmV7z/8mmn/5EpKTaCyGEaCXScy+EEFdNT+gD7/Nt5fckht7MPXMH4CldJkIIIVqRTKgVQnQslnS2fPgeq6MzKa3M59iPP3A4R0Vx7MWUhaMJsnPEs/tE7v7NfCJqV8wVQggh2jUJ7oUQHYr5xF+IHPIihysv8ySdN4tWpPL1zZIZL4QQomORtBwhRIdiFzyFhXM2Yj6eQ5mldt+FohhwC53KrCH2dWwthBBCtG/Scy+EEEIIIUQHIVO/hBBCCCGE6CAkuBdCCCGEEKKDkOBeCCGEEEKIDkKCeyGEEEIIIToICe6FEEIIIYToICS4F0IIIYQQooOQ4F4IIYQQQogOQoJ7IYQQQgghOggJ7oUQQgghhOggJLgXQgghhBCig5DgXgghhBBCiA5CgnshhBBCCCE6CAnuhRBCCCGE6CDsWrsBoj6FxO3azsH4fCpUrdZfFZ0Br74TmTbMD0MrtE4IIYQQQrQ9iqZptSNH0eoqNjxA2E2fkGap/zmK00TeOfUrjwfLAIwQQgghhJC0nDZL5+mPn6sdymWeo1VmkpZpbrE2CSGEEEKItk2C+zbKEPlnDuYWk5eVSUZGRpX/klh2lz962/Nk3EUIIYQQQlwgOfdtmc4Rjy6ONR404uZwuf58IYQQQgjxv0p67oUQQgghhOggJLgXQgghhBCig2iatBxLCZlxCWQUm1ABnc4e14BehF1MKTGSeWwnu6LiySzW4RnQkyHjRhPuJVlBbYeZwpRkity6EeQun4sQQgghRHt07VGcmsFX8wdwz+oc1CoPK86j+Ov+dUyPep3n//ofNpwuwHxx8qeCzsmPYfN+y9/+9jiTAlqqUruR9CNb2HUii1KzSmPnoiqKDnu3bgydOJ5wL/2VN2gn1OzNvLTgTl7bnoHZIYQZryxl6VMjcWnthgkhhBBCiEa59uBeK6Og0FgrUNbKj/HZout49fhZStRaG6GWp3Pg698zbdMGXlqxnGfHeDV7jpCavYNvP1lD7GVqx1/ZXg7luvLag8OpOdW1fTKx57VH+Nv2DOvNV0Ui6//0BP++YRfP9us4NzBCCCGEEP8Lrj2e1vfg8R9iOLLzV37e8BMfLe5pvWPQSjkXfZYSTY/ngIW88PEadsakk5sVx/7Vb/PwWD/sFQ1z1hZemL2Af8WYrrkpV6Jz7orftaYCKY508e/cgcoMmUiIT8VS5e5MMyURm1jZek0SQgghhBBXpWliVJcgBo0JAsxE73W5tPCSYk/ogo9Y/8U99KnSzT1izhOMuGk+NyyZzh0fHqc0bwvPP/gWk7c/Q//mjJo7DWDRi39jamYBRlVrdFoOioKdsze+nTvRcfq0nRk3ayqd1/5AtgqgoA+Yxk2RLZUqJYQQQgghmkozhtIK9r0f4/NPqu4bb3kAACAASURBVAf2F+kDmP3ON/zp2Bj+uLuYkv3v8sa6h/jyZs/maxKAvRtdg9ya9zXaFR3Biz/mh1J//rositIuo1j8wgvM8ZZCSkIIIYQQ7U0zRnB2DF38EGMuNyvTMIDHnruVID1gyWDttxsoaL4GifrofBj12Pus27mHLSvfZPFA99ZukRBCCCGEuArN13Ov60Roz+Arpq+4TJzLNN/P+DjNQvHeLew13s50h+ZqlInMqK3sPpV7DWk5/gwaP5benh0nMUcIIYQQQnQMzZiWY4ddQ+Jfw0AG9tFDmgVLbgrJRYBP87RIzd7O1x+vItZ8bfvZe75TB6qWI4QQQgghOorWT6zWueLqorNOwlWLyM+/pjqVl38pZx+6ul9jj7viiI+vdweqliOEEEIIITqK5otRNTPmhvSQW7LJzrWgAYrOFXd35YqbXLVOg1j0witMTMm+qkWsUHQY3Pzo5u8mwb0QQgghhGhzmjG4LyU1KQMLoZfPuy/ex74T1t56fXAE/T2bdzBB5+hFUE+vZn0NIYQQQgghWkMzRtJmjm7cQFqt1WmrUkla9hW/FqmAHr+J0xkm5dWFEEIIIYS4Ks0Y3GuUbnuPf+4urfcZasoy/vDKLxSqoDgM5J4Hxssk1dZQdoIvHhpPmI83gYPm8uq281z2nkwIIYQQQrRJzZoDo1We4t37l7A8qXbyfUX8Ch6b9TDLUy1oij3d7/ozjw+WbvuWZ+bYW/fxyMc7iMvJIy16NS8sfIylWRLeCyGEEEK0N808L1TDdPYL7hh1ho2PPcBNIwIhJYr9uzezavkmzhapaOjwiPwjX791I7IoahWWTA6sXsue+Hwq1KpTfy3Enyi1TgbW8jj03zd4bVvVA6egd/Km1/ibuWmQdwPu3iqIPnSciiovoWb/zIpNhdx+ZzOvFiyEEEIIIZpUMy5i5Ubk7LFkrV9PQsYePn1uD5/WfI7iSPCNr7D0q98SebmVbP8Hla37PTcu/Jrsy3WgW7LY+u/n2FrHn+x6xrDlxNuMveJgiCMRA/tgv/YopgsBvlZBckIaIMG9EEIIIUR70ox95QZ63rWU3Zve4cEJIbjoL5W4VOzc6T7mNl5YeojotU8R6SFd9jUZQgYypJs7Bl1jS4Mq6B086T58EEENKulvx+CnP+SN24YS4GKPYns5RSefiRBCCCFEe6Nomtbocu/1MxP94giG/+UolbrO3Lkyha/mWKfIVmSdIvp0JkZHH4LCwgj1lqmzbU3xuvsIv/kz0jRPbl2azHfzZThFCCGEEKI9abG1mBy7hjOya3hLvZxoLNMpPn1nFRkW0HlO4sbJEtgLIYQQQrQ3knshoPQkXz88n+e2FqAqBiIeeppbZJ0vIYQQQoh2p8V67kXbVHb0XRYtfIY150qtlYuue46PnouU9QaEEEIIIdoh6bn/n2Yha/tKNsSWoinO9Jr/Tzb99CepXCSEEEII0U5Jz/3/ND2hD7zPt5Xfkxh6M/fMHYCn3O4JIYQQQrRbTVAtx0L6lg95b3U0maWV5B/7kR8O56AqjvSaspDRQXY4enZn4t2/YX5Ep6ZptRBCCCGEEKKWaw/uzSf4S+QQXjxceZkn6fBetILUr2+WXG4hhBBCCCGaybWn5dgFM2XhHDaaj5NTZqHWnYKiYHALZeqsIdhf84sJIYQQQggh6tPEi1gJIYQQQgghWotMnxRCCCGEEKKDkOBeCCGEEEKIDkKCeyGEEEIIIToICe6FEEIIIYToICS4F0IIIYQQooOQ4F4IIYQQQogOQoJ7IYQQQgghOggJ7oUQQgghhOggJLgXQgghhBCig5DgXgghhBBCiA6iDQf3Kjlnt/OPlT+yJrmstRsjhBBCCCFEm2fX2g2ojylzF39e9gvRFRr68y7M+b8Jrd0kIYQQQggh2rS22XNvTOLLlVuIrtAAHV38/Vu7RUIIIYQQQrR5ba/nXi3j4KZVfJdeCYBd5+E8OTWsVZtUnp/M0eRMUnPzySgxYXDxIbxnX64LcsPQCu1RK3I5Hp9KRoUZVWvIFgo6vQMBwb3o72nf3M0TLclSzJkzcSQbAhgd5oNza7enFhPxx3ezMbMTY64bRv9ObbM/QQghhOgo2lhwr5Jzcj3/OJCDGcDen1vnTmOkc2sEBEaSTh1gxYHDbInNplit8ectm+g+dA6v3jSAgBY9ihXs+OFDXjxWRoPi+ir0ncfwryXT6d/GPnVxldQiNq/8iFeiC7Aozoydu4SXh7i1qeE4c/oOXv1+K+dUHfvx55OpgW3toiOEEEJ0KG3qd9aSd5S31kWRqQKKIwMnzeXuYIcWb4e5KI5lP/7AVzG5lFd5XG9wxtMRSkrKqFCNxB9ayfOdPHj/+m44tljrdLi6OGNQyjA2KrrX49W1C53bUuQnro05ga2nCrAAaBUkny/EQlsK7lUyz8USrwIouHdyaUNtE0IIITqmthPcm7NYuXo9u0s0QMG91zT+MNqvhdNeVAoTtvLCd9s4WqoCCs5eIUwYMpyZA3vS28MZgw6MBbF8u+J7vkwoJXbfdjaPuoOZri0VthgYOvM3rJtURplZu9h7b07cyP8tO0qOptB5yK18cH1wlQ9XQdEbcHc2oG+hVooWYNeNsb3d2XO8EJ1nP24d5k/bSrqq4FhylvXmQ+dD/xBXCe6FEEKIZtZGgnsTJ7ev4tP4CjRA7xbBb2YPI7CxkahayJ4tP7E83Y0bb5zBZK/GhBIquWc38uyy3Zyu0MDOg8hxs3hyfG98Lxwl1URBkQmDaxiL504g+l8/cdSYwJ44IzMHOTWysddCh6OTS5XRAguxWZnkawAG+vboQVfXlmyPaBU6T6bd+iQjp5Wgc/XArY2czRdVJnMszTp3RucSSP8ucmsphBBCNLc2EQ4Ux//C33ekWlNgdN7MmH0Tk9wb38dXcW4Lb26LIRtHPNKvZ7JXw/v9ixN+4Q/f7eKsCfSuYdx320JuD3ZGh0px+nGWbt/FhjOZ5FSq6Bw8GTSwP55uOsitJPV8LhDY6PY2GbWE6KRsaw+p3p+BrZDKJFqLHR6eHq3diDpVZiYRU2odW3IKDKVvm7jaCCGEEB1bq//cqiWneH/1PhLM1ub0GH0zj/bpdBXD92bOxSWSpwF2/vQPavhbU4uO8fZyW2Dv1ocldy1krp8BMBJ38Ade/Cma5Moqzzfmc+TADtv/KZSWGxvd2iZlSuJYugUAfedgBrhJ8oNobSrZScmkqQB6woK7tcFKPkIIIUTH07rBvVrAr+vWsiHPWorGOWgCz0wOvWIQoJrKKNIc8XCoEsSqRZxMzccC6H17MKRGDnxFWQmVDi641swMUAvZ/NN6thSqYO/HrQsX2AJ7MymHVvD7tSfJVkHv5MuYYUMY4aOQHL2LFXGF1p5yFJwcWqMg5iWmtEROGq1zFby6BRPawOyHivxE9sZlUWTfmcG9Q+nmWOWYmQo4GZ9EXEEZFkdP+nYPo1cD8z7K8pI4nJRFPq50Dw6lr5dj/TdrlXkcPh5HsW8/xvk7t4GcbJWy/HROZuSSUVSGxeBGaLfuRHR2auB8BTM56fGcyCygABeC/f3p3cWDSwWfTGSlxBOdWUCFwYPQwGD6eTs17H2bS4hLSuRsbhmKiw99grsR0qkpUl1UygoyOJmaRXpxBRWaDkdHF7r6+NMvwAuXBjRONRWRkluCUb0wD8TM4dgMa9UrxRVf51Ji08oBBZ2dE76dPWufiy3QzqZmKc3kUGwyqUZHuvfoxWDvqlPrTaQnxxGTVUiZnQe9e4TRp5Vyp5qrnWX5yRxJyCRP50pYSBh9ParP+jAWpXM0IZXUEgsOndzw9fQhLKALno0+DNd2Xrbva5IQQjROKwb3FpIPrOHfMUWogOIUxgO3jKP3ZWcEqhSc+Zmnlu0hXufH9Bvm8sgwP1wATCmcyLIAOgJDexBguyKXnY/h+y1bWRmTiSVsNusXD6+2x5LYrXxyshhVcWTQpHncE2JNaTGlbeflH62BvZ1nBE8vns8MH9vh6u+H+u5nLM+13pS4Ordmn6SFlIRkcjQAB8JDghowCdlM8pFVPLM2mlTbiITerTeP3nkr87qUsGfHBj7cfZrEikv1PxVDZybOuJ1nh3el3qQfYyY//rSK/xxNo+DCpjpXhky6jZcnBuNaRzuiNn7B03tz0VzjeXHJfCa2Wh10E6mndvPlriPsSs6jtGrpU8WBwD5jeHLWBIbVOypiJit2Fx/8vIcdGaXWoBYAHW7+Q3hs/gyGFu/n/Q072JZRbrsxBHRO9B42mz/f2B//eqMUE0nHfuHtjQc5WlB5cRK14tCFqTNu5XfDLvOZXJaZjNi9fLl5D5tTiuqovqRgcAti6oQZPDI8iHrnjJef5o33vuXH/Jr1Ym20Ajau/JCNVfbr1mcOn94xjK4Nu6tpmnY2KZW8s5t4bvluYsps79vOg9E33MFLo7pQcHYn7/28m51ZVT5rOy/GTJ3Hs2PqOhfaWzsrOLFzOS9vPk3GhVFNe09GT1rAH8d1o1NJAis2bmTpsRRyzNW31Dv7MmbUVB4Z1we/K/4CXeN52a6vSUIIcXX0L7300kut8cLG9B08v/wQKWZAcWX8rEU8HHalXpJK9v26nJXpZjRzMWdPR7Ez20Cv7gF4ZBzik0OplChujJswlRG6BFZt+J4/r93NnswSjJpCJ/+B3BbR9dLu1FzWrFnLlnwVx6CJvDwnAh8dYMli2bJV/JxnQe/el6fvXsBMnyq/QnpXHPOi2ZRSjqY4MXjkJMb5tNJkQbWYrds2szdfBX0Qs24YTj8n5bKbmDO28+x3e4mrkmqkGXM5lllC7vFNvH8kjXxzjQjKUkZCbAp2vYcyuK7oyZTGf7/+jH+dzKOi6qaaiYzEJCw9hjPCo+Z2ZuKO7+TXDBNaZQlOwaMY2wrHUS1L5Lvvv+Qvm2M4XVBOZa3g0UJRTgI7EmHIwO7UmheqlnN8x7c8tfoQJ4srqR7iahiL09lz7DAbDp/iVLG5+voEmpnctLOctg9nWkhdpSKNxGz7mifXHa92s2VtVilxsSnoeg1lSKNTsSo4vu1rnlp9kGMFxkuBXc13bizk3NmTxLtGMDWg7knaqjGZ9TtPkWyu8891ULD37s2cAQG4XP6r2qTtbEpq/hFe+WoTh8uqfJpqBSkJqaTlneDTjUc4VVLjs1bLSY47TbJ7BBP8Gzha0ybbqZIVtZyn153ifNUPRK0gJT6WTDuN7etWsyw+n7I67ve0yhKSEk6wM9ebcX196/0OXPN52Y6vSUIIcS1ap+femMjnq7ZywqgBOvyGzOK3gzwbMLxqYMT4GdyY9zMb0sqwYCL5+E88kXqOmQEFnNcAu06UxHzNXdFxF3uUdI6diRwxiQfGD6i2t8q0Q6xLqgTFnckTIulha0BZ7B5WJZtAcWfKzNlM96l5mHR09XBDIQ8Ub4Jb8+JfI99+4BWDvAr27t7PaROgODJ48lwGnVvG50kWylMOs8r2LINnH26bOoYp3TtTdngZT/6aQKk5ky3H0lnkH1Sj5GIFhzd9z8cJ5WgouAWN4onZY+mbto4H15ykSM3j4NkszMEBNb5wdnTv6o2OEiyakcLyenp+m5E57zhvfbOKH7NM1gfsvRg5YjQz+4QQ7uuKJfsM3/30I2vTjJSn7eXbE6N4ZUjVOSEWkg8t50+/xFmrFdl5MmLURBYN7Uk3fS5bf17JuzH5WMpLKATQuTJw1FQeGNmTzoX7+MtX2zlZaeJU9DHixkyld7WvkkrOibW8uDmBQg0Uh65MnTKDxQO6UHRwGU/9mkiZOZNdp7JYHODfiJNZpfDUel7eHE+eCnrXICYNHsCYPj0Z6OuBi2ImPzuR7bs28tGxbCq1Mg4ePQEjxtW5N53LEJ5f0pXTOaWYVACN88d+4q2juVjQEz5mAff2uDSepLPrRLfAgAb02jdtO5tOJcf2bGdvqQaKAwMn3cWSTjt5at1pCisz2HLY+izF4MOE8ddz5+BuOKZt5YXv9xFbWcqeLTs40n82w5s9m6+Z2llxli82nSRHA8W5Jw8ums24ws08vfwoGWohWzZusD1RT+fQEdw9bggjAr1xMuZy8swhvtlykOOlKlkxm1me3I8lIbW/udd+Xrbfa5IQQlyrlg/u1TL2bljFsgxrN599l0h+P70vDa1a6ew3lN8/1JMpu9fz9rYTJBk1TPlnWZ1ve4I5na2HrP/Ud/Jn/Mix3DEqgp61Vrk1c+pYDKkq6LsOYnbPCzmoZew6dIJsDQzdIlkUXldvqkZJuREN0Ln60cez9YZtTWmJnKqSbx9ypfuMinNsOVOCCujc+7NodHeyU6t3nRm6RPLKfTOJtCUxW/r2IGhzAqc1lez8fCxUD+7NmXv46GCOdb6D+wCeun06E910lORcqTEapRW2H2/FDmdDCx/H8gQ+/u9KfsyqBBTcgsfy7LxJjPaq8u6Ch/DYpER2fXOYXM1EYkY2Fi4FEZac/by18awtsPfhxgX38FQ/d9uNqhs33zSWvWfWcsC65DJ9Jy3mzYl+GFBJOp1Mkq23Wy0pIkelenBfcY7PNkRzXgX03ky/5W5+38+6SFWFrxeOSiJlGhhNlY1brVjNZ8POaDJV0LlF8MyDC5jmWfWF7eka0JMwpx8v9ZRb6uszt3LyCGDwxaI9ZazfX2yrb9+VkYPDGel7FTfAzdDOJmE8x/rjeVgAnVt/Fo0JITTjJK4KFNo+CMUxiDtuv5P7e9i+K+7TeGjQKf5wsBC18DRbEmYw/PI5iG20nSo5Jw6wrdDaMRM2choLgz2xKw8lRHeUjIuxsB7/gbfw9ryB+F04WZz9Gdk3mI3bDtp2VUBCVgWEuFRvdxOcl+32miSEEE2gha9cKtkn1vHm4Vzrj7EhkNvnTmVoY0fR9W4MGXcrnzx6O4tCa1fW0TkHMGP6nXz11KO8NHlAHYE9YMnhYEI+FnSE9I0g7MI135TEoSQjGvYMGjyIoDqPkIn48/lYUOjUrXsrlvizkJKYQnYj8u2NieeIKrfdDISFM0CXRez5Kr1ThmDuWTj9YmAPoFYYKQNAwdHBQPVbgUqiDxzmrK3aUXjkRMa56YBy9sfEUawBigvhQT513ElaSMmxToJGcce/UesSXCO1iK3rlvN9hjWA8Ow+lb/fOa16AGF9IqWlpRfzvJ0dHau8/0qO7d1LdIUG2NF73AJ+ezGwt9I5uuHtYNvCEMrMYV1tn1ElZxJSsVWKROfmTpdqb18l+9heNhfYFnXrM4mHwi+sPlvBwZhz1hsKxZmIEN/GLV5VmcLxdDOgI2zYRCZ71hXw6PD17WJNmdB1YvjQ/o3b/4X69m6BDOx8lSNbzd3Oq1SRcJqDJRfOob4MNKjkpWdw8TRSXBk7cyH39ah6bTLQPzTQujaFVkJ8RkE7bWc5B04lUAqg68J1fbtgB5gy0kmscl9l8BvDn+ZUCextzNlJnCyxNUBxwMu1xhWric7LdnlNEkKIJtKiYakl9zBv/Hjc+uOiODJ4ylzuCrq6semynNOs3bWHX1PLqDlwqlbkEZtVQEGlSpBDPRdnYypnslVQ3IkI7XLxQJjPp3C6XAOdL4NC6+q1B8rj2J9oBOzp2yMEx7qe0xLUEqITz9vq2/s1oL69yvms81jjRQf69+iGPm8fJy7ONNPTY9R05vnaVdumKCODTBVAwb9zjR9EtYBT6bZJ0Y5hzBzkjR5ridPN58qtoxvufZjcvY7P2ZJN7HlbL5mdN928Wy69qSx+Kx8et1Y80nsP4w+3jaVfHTeZJekHeHPzWUoAdF4MDut86f2rhZxMK8ACKI49mTuydpBtKc4l1Zbwa+8fxrCLk/PsGTxwAEGxR0jX+zFn8qW0MNuWnEvNpML2utdf148LA0RqcQzrT5XYjm1frg9r5HRaxQ6DXoFKjdyMZNJMvgTX+nh0+I+4nU/9k0m360p/X5e69lQn8/lkTpVag0rnwFB6X+1VppnbeXVUsi+eQy4M6xOCIyZ2J6ZjvZ1RcOs9hSV1pBnaOTnTSYEyDUrKytpnO83nOXfeOtykcw9haBc9YCEtMdmaFgmg8+bGGeOJqOOUNwT0Z1rgMb5JteAXMY07e1d/UtOcl+3zmiSEEE2l5YJ7cybLVv/MPtuPvlef6fxhVNfG9ThiIT/1OKt27uaHk+kXqx/oFAVV00DRodNUVLWcs0fW8fjZaGZdfxP3D/avVUGjMjfXOoSs8ybUp0oGdVGhtUfU3g2/OhfSUkmPOsCuUg3FKYyp4VdTk7+JVCY3Mt9eh/+AcSzKjiLFsTd39nGgMCqJhAsdaY5hzI0MqFF5xURUfKo1INB50je4es80Om8mjxtPclQuLr3GMslNB6jknjzG4Qrr0L1/34EMrON3VC1P44yt4pC+awB9mjlL4dILF/Lr7mjr56+4MmHqFCKddVjMRsoqyskvyCMxI5mocyfZejqNXGt+CV37T2Fh1fUTdF5MGjeepOhcXHqOY2IdtRjLkpKIs20fFBLCpa+aDp/+c/k6fCYV2ONsV3NbewaNmMTNpjgqug7h1m4XDo5KevQRDtqObcjAoQxq7P2xoTuT+rqx9Ughuad+4N439tI/NIRwf1/C/AIID/LD30kP2NM1sAddr7S/alRyk5NIsdW37xlyDfXtm7WdV6vqOdSH23o5gDmWqBRrmh66LsyaOKjO+QSqyUi5LQC2s2vuoLGZ2mkXwI0TIyk4XU7goDH0twPUMqKTzl9MjXIKGcWCkHpuOB1Due/hZ7nDpGEw2FW/djbZedkOr0lCCNGEWii4N3Fi60q+SKhAA/QeA/jNrCH4NyYqrkhh+aoVfHoyhwuFHxw8ujNzXCQex7/nswQzhu7X8/eBOXyw/jBnKzQsJcmsXvUhe0/dyOu3jaiWj66Vl1lTIuyd8aha313TrCMBSt0lHNTiGD7ZEU85Cl36DWNMaxTXtjGlJlSrb3/FfHtA79mX++b1vbAHtiemYe2nUujcbwSTa94gVCZxKNkaECjOwQyuVbtOh1/fKfyxb5WH1GJ2xyReXHF43IDAOm/iKpISOWMd/6ZLQDd8W+hQqsWn2BpvW3hMK2Hb8tfZ/r2KWa0nc10xEDxgBi/N6U/nam2s471XU8nJxFRr77viQr/grrVOOJ2dQ73Br3PgCJ64dUT1By0Z/Hwk2fqZ2QVxw9DGTKS9uGdGT1/APYVL+SKumMrS8xw5cZ4jJy40yolu3fsydcgIZvUPpHFTSiqJSbLVt9d1ZkCw6zXc/DZnO69e9XMIzOmJxBRbvzuGbkOY4V/XJ6KSX1BoPSdQ8HJzb6ftNNBjyExeHFLlocokjqXZQnulE6NHDrrCtV2PY12BdXOel238miSEEE2pRYL74tiN/H1nujXI0Xdm1uwbGd+o0n0qKQfW82FMDpWAwS2Y68dM4s4RYfiZo3l+k62+fVB3Bg4dy3vBPfl41VpWJpViwUJWairpavXg/uIMRE2rNhlR16kT7goUV2aTkG2BgCobmbNYvXIdm4s0sA9i9qiwVlx1s0a+fWhD6tvXYE4jOsV6w4XiwdhBtd+PMfk0h61JqnTq1oP+DXgRteQMu5Ksg/9673DG1VnM2syp2CRb/msnBvQIaHz7r5IxOZEzF8s2aljqmYSpd/CgV49wpkWOZmYPz8bXkrdkcSzFOnkZh0AGNWLV5PpUJB7mF1vStEvYEKZeZUSrcw5h8d2PM+bUEdbHxHIiNYOE/BIqVKylEGMP82nsUX44MoWXbxtPv4bmnpnTOZ5msk02D2JArfqEbaSdTUYlNymJZBVAR89efWrlmVsZOZ6UaZtk3JnwwJa+cjRfOyvTLyyiBzq3cK7vdXWlSJvzvGzr1yQhhGhKzR7cq8UxvLvmAEkWAHt6jZnLQ70au+qfDu/gPkQG2+PS+zoWRfYhyHZFr4iLs5bUVDrRO9CaO2/XOYLH7g1k+M6N/DfWwoCxkxhZo5tG5+yMiwI5llJyS1WwVUWw9+tGL4e9pJaf5+edJ7hxwUB8dWDMP8M3q1fzTVwpmuJAxISbWHA1FUCailp6aSi8Qfn2tVnyEi/m2+u9wpnYrebXwUxMzDlbLq2BgX3CaEhGc1liHCeteTz49epDzzp/R1PYFWvLi3XuwZgeV7cMU+OpnM/Nt/VM6gkMH8VkPwM6RYed3g4HByc83dzw9fYlzMcNp2vouVOLkzmeYz2+9n6hDLjmt1jO3kMnyLQFH6MG98P7WnoWdc706DeGJf3GANZa8YlpKRyLO8v24yc4mmskJ/ZXXv0liE9v6k5DQjZLfhInbd8p54BQ+jTFFaYZ2tl0TJy4kMeu8yC8m0fdJX3LzrIzwTpGpnMNZkiLXzuaq50qaYnJZNnm5HTpM4AhVxURN+952bavSUII0bSaN7hX8/l57To25quAgkvIRJ6ZFHxVvd3OweN59cHxNR41cyYu0TppzM6PvkFVfojsPBg5cSEjJ9a9P52nN356SDRncTLVBJ62Lj+H3tw4wJPt+/M4f3wl92fsI8zFRFJaJrmVAPYED5nLi+Nq5qa3sMoq9e19ghnY6GU5VQoSL+TbK3TpGU54zW9DZRLbzxZYe54NwVzXyxktN4rXV24nRuvGHfNmc32t6NJMbHK69UdacaJ/qF+dw9/lcVHssH0v3MP6MbTFDqaGyWzrHlQc6T90CveFX1tirbE4i9gCO7oFeFeb21GalEisLS84sFu3OgJxlfSoH3h1ezJat/E8N3vQxZWV66IWHmf9mVJrr7hHBDOq9JAWx23m5Q3HyXUfzBMLxtO/nuNpNpvR2dnVeXOtd3CnR3d3enSP4Obxo1n29X94P76C9JPRRE/vTuT/s3eegXFV19p+zpnRqPfeq1Vsq9iyjXsv2AYDtgHT4QMMCQGSS+5NSEjgBpKQkBuSkARIKEkwBmxTAwYbd7nhbhWrWL33OiNNPfP9mJEsySNZZWRZ5Dy/MJrZs2bOdUqKDwAAIABJREFU2fusvfa71hrCaqEuL6fUqrePi47Atd/fTS2ZvLxtH5liNPdtvJFlA5w8jLWddsNYeUnHjjsBA+TpVJ07yYkuq957SqpFq341GSs7ewcZBHdmJEaMMNpt/3l5iWt9TZKRkZGxL2OoKDRSevwj/pLbYY2ETGLzLfOJs+dDzdTI6VJL2TKFfxhThhHOEV2iSQ0WwazlxLkcGntK7qiYvvxmNoU6IWCivbGcM6UWx15Q+bFo1b28fPPUITTgGVv0VSXkaq16+/Ch6e37YiC7W28vuJMeH3bZQ1lbksmRVos74Bw1mTmuZi6ePsiXZfWUlGeRUWWrJalEQ5va+rD3IeKyBmCA1Mb+kzk0mgHRl1XXJQzpRMA+CHg4W8vmmXW0dg65rapNukr38PgfXuE7r/2BBz7MoqnnPjKSX1ppKSEqOPecKvXBWM6H+86QVV9PdtYFcgc1RaLi3BnO6ABEwpOnkdJ9waRmdu3P4HhNAxcLMjnRZEPOYGriy+0vc8Nzv+CWv+8lU3eFL6byIy3CExGQdDqbnUYvx0BOmVV+J/qRHOnRL2FSw+G9X/J5eQOlZVkcqbbxha+KnfbDWH9Jx46gtK0l78zlHxlWvbcyjBtmRVz1wMCY2WksJ9O6DghuccyLGqlDbt952ZdrfU2SkZGRsS9j5qJqKw/x4tfFVv2iB0tuuIl1I613PRBSE1UtZkBFUvLU4Tm4ojeLU6Jwxoy6YD9v5mt6SmqKLrE88uCjvLB6HquTYpiWkMqGZev4zcN3sMFfS1F1G1fyOcYWExUlFVa5jCOTR6S3r+7R2wtOUcyK6j+Ckezci5aHHY6kTUnCR6rmYK6lMQwOoaRdJuMBMFsqF3VjIy+5s/QQW/ItJemco2Zzix206ENHxDsoAF8BwERBaSlDKkpobCEzJ5/CPt5jFxlHjpKnNQMSjaUl1qg1YKzmZEmHNTnbg8DLarRLVJ85yK5myxtcoyaRNtjPYKplT1aVVVYRzLK0kJ7oo77qFJ9364m9Y5hhQ+euu3iQv51vpNNsoqXsNLsrruA8acvYld2ACVD6BxEzlEtkqiO70nqy4BZOch87JDqK9/H38xbZg+gxhRWxl9+1V8VOu9Fbxw6Y26lp6be7kNo5+PlO9rRbouERM1dws//VjgyMnZ2GqhIuWEu9ukbEXtpwDht7zsv+jOWaJNFWdoQXXv89657/FXe99QV7G+y5MZGRkZEZPmPzlNEW8+ZHB7mgt3xEWPpNfD/Zy/4f5pDAw3dt5Md3PcyvFwQNU2MkEjJ9Edf7iiC1sPPDLbxR0EbPsuzoz4L5a3j67gf5491rWOHRwPvvvsoTW97lv19/g9eKx3EBlzRk9tLbp4xSb+8YHkPKZT1iOiiqtyaDKsOZk+BCW+5RvmqwHFt7TJrGYptJ0QpCfKzlMs0NZHU7uN2f25LFHz85SaUEiH7csGSYVZPsgCp8CrM9BcBMU/YBtpZpB319Z30Wf3nrVZ7c+i8efm0nZw3WP0jaSxFGwZGE6WlMUQIYKDm5j53dx0HmNsobem8HJZoLvuTnXxbQbgYUQdyyOK1fxY9+mOopto6n8J/E3O6NclcJb356lGJr74j0eXOYamMi6NUdls8CRPcoZtjOpgTA2FHMOx9s5+NGCQRnZs5II2Io10hfR7H16EJw9+KSXFuioyKDn2/7xuJgCu4sXLmU62wkv14VO+1GLx07gNTE6YuNl9YQSc3pPVt5KdPSC0HpO4PHlkaNQxL+WNlp0dtbemAoSYiJvkyGNRzsNi8vY+zWJFPzSZ7/15fsLm+iVauhougov95+yFr+VkZGRmZ8sH+cS1Jz5MuP2VFneXSogubxP6sT8RqTh66SoOg01oz07Y5xPLJ+ATn/OEhBVzlb3vkTRxOmsSIpmjhvZyR1I8W1NeTkZ3GstqunjrPCI5wpV6VzoY7SvPN8U9+FoXdJH6mZw9bSc4KjmfJzGWzpiUYJqNzCmJ8ag81Kd5YBeuntReKiY7hcgith6i5BJ0o0Fuzj+d1ZNFnzG25ZlDJAMqeSxOQpRBw/SIlJy7Ev3+HXmvksDXejsyaf3d+c5FiTCVASM3sd98eMg7BVFcMdSxI4+EkerfpK3vnnq1ycls6y+AhCnAVMRgMd6jZqG2vJLb3INyUNtHf3VDAaLJVaAEQ3IvxcEUvbkRAQOus5U9BOdf4xtp4opa2nIlMnh77azpvG2aS4dHIx7yTbz5RZ6nQLTqQuW8+9EVeQM4jOeDpbGjpJbSXszsyjwVzN14cy2N9g6ebpGbeCJ2b42EyUdAoMIkQsoEwCSVPM+5/vpiY2jGgfd9yVYNB30thYxZn8PI4V19JktERw/afcwA/Sh7gxd/AmyF2AFjOmukzeOebPCh8DZUVn2XGyCMuSoCJu7kZ+mOJpc8yrYqe96KNjB5C4eOQjXvFYxlznFk6eyOCTwlb0gOASw+ZNq5ljq1v2RLVT6rwUZBADmRYzmrKn2G9eXsZYrUkSDbmZnNH2LdWpry3iVPtiYq9WbVYZGRmZfghms9l85ZcNFYm68x/wne3ZFjmHYzgPPvgg94Vey51AJJoK9/LsB4fIvJJgV+FGUupCvrNiNmkeY1/twlCxi//3t0OUDVtHrGTmuh/y0nUDPWwNZGz/Lc+c68QsBnDX5sd45LJjaBO5u//Cdw/W0ScIJTiRsvwBfrc4bJDOvF2c3fU2T2dU9fQk6IuC4Knr+O2tM4i82omF3UgaTu97l+cOltE2pN9XxC04lUduuZGbQi89/A01B3jyb1+TrbfxFgcfpgYaya1sx2YgT3Rn+tJN/GJRFFeuDKsn86vX+EFGHZcHKAXcIxbx/D3LmD6QUyZ1cHTnP/nF8ZoBrkn/IZ2IS7+RZ9em2egKOxAmSo/+g+/uLEZt6zNEV1IWbOR/l8cPXOXnqthpH4zVe9j86n4KJVA5OSFotTbleg5eSWy+fQO3RjiPS8O7MbPTkMuvXnqXrzRmFH7z+dPjq0efKGyneXk5Y7MmtZ19lzt2XLB0yu0xKZyHn9jMPVddfiUjIyNjQfHcc889Z6/BjI0n+MV7h7loAARnZlx/N09N9hiXB9rQEXDxiWXV9Dj8TRoa29to1vV+qihw941g3ozFPLlhPZvTowlyvFrdltRcyCuirMvE0HdgAir3SK6fN5M0mxUxAMxoqjLZVaZBFTqHxxfHcvlBhIh/aDDODcWcb9RiAkSnQJauvJ1n5kfgarvHlxUHgmOmMsNDR3VDE/Vdxh77HdxCWLpkI8+tnjrIycJVQFAREpPC/AAzDU2NVKsNXOZLCEo8vANJikli7dKbeWbtdaR69jVa4R7BrGAoLa+iujt0KDgQGDWdhzbexlOLU4mVmsivaaaj28MXnQiLnsb962/nyWmBOA/6W/Z8EoFRcYTrasiube1JHFU4BzJv3o08t34OiU6DDCQ4Eh6fyrwAJTqNmkZ1l41Ip4CzRyApk2fx4M238sR1EfgMaw8r4hWawFRVC3mVjbQauxM4HQmNmcZ9N2/iBzNDcBvs+14VO+2BREP2Ad7Ob8GEguSVm/mfWC0FVY20WL+3oPJmxsyV/HjD9SwLUNmSek9sO81a8s6fI1OjIH7OGu6PtcNab6d5eTljsyY5+Qfi1VZOdoMGXfft7hLL+qVTiBzHSskyMjL/2dgvcm+sZstbb/D3Mh1mBHwnr+fVO6ZPvA5/kp6m5iZqOzrRCY74+QYQ6q6yXRN6IiN1UV7ViMIvlNBBqwwZaW+qpaxTRXCgH36q4Zfc1He2UtHQRqeDJ5EBPniMp1NvExPq1kbKmtV0Gk2gcMDJ0QV/X1+CnIdorKSjrq6W6i7w9AsmxqNvGFnSt1FS00SH4EKAry8hriM/zTLp2qmsb6bDwYNwPx+u6NfYMtfYSX1TE3VqHVoTKFXO+Hn5EOLlbLNM4LAxqCmtaaDV7EyAvy9BLg4jcvzG3M4Ro2Xvey/xi2wtZjGQex55jIfDFGDsorq+nibciQjwwlM53gvg2NopdTWS1ygQ3q8MrH2ww7y0ib3XJInW3E94dOtpqiUB//S7eWd94jg2OJSRkflPx05ulkTd6V28U2bRdSq8p/FfN6VNPMceQFTh6xeMr994GzLGiM5EhIcP4YVKPHzDSPYd8QehcvEhNtJnpANcBRS4eQUyxStw5EOIjgQGRzLQCKLKk9hIz5GP3wuFoweR4R6jGkNUuhAU6ELQKL7yoDi4ERUx+mKCY27nSOmlYxfdwkkOtG7/lc6EhEQSMtRxpGZ2f7KVV87V0mYaZpxFUODml8Qjd9zGTYEDhB/sZecAiM5+TB7KMjIi7DAvbWLfNUldcZQXPj1DtQSCawL3L46XHXsZGZlxxW4xVJWTE04CdDkEc9v6NSxwm4ievYyMjMyV6V033ik0kskjPUYwVnAos4a2kVRXMZtQN+Syv0TDTYG2N3t2s1PmMiRdA8eO7+XvB7Mp1plB4cv1N97I2qtSbEFGRkZmYOzk3It4p27gNe/pVDuGMy3w6jaAl5GRkbl69K4bryA2MmrkJSCV8WxamU5XVi3tRvMwcmtAEBS4+iVxz9SBTkjsaKdML7o4u+8DXswopEZvuWKiUwg3rLudJ8ei5LOMjIzMMLGj+llFcEQCwfYbUEZGRuYapFfdeNGHqZEeI8/JEZ2ZOnc9/zfXftZdwo52ylzC1Myp7CKrYy/iGzWP769fxiJf+VhERkbm2uCaS22UkZGRuabppWMXnMNJCbpGl9GJYudEQxHMpvXrccxrwztiCkvi/JFVqDIyMtcSdq5zLyMjI/MtROrg7DdH2FvTiUHfwInscprMILqFsSg+AGdBiVdYGptmRI5Rw75vmZ0yMjIyMmOG7NzLyMjIXAFD+Zc88PfDVv36ACiieeKp/8fGAftLjD0TxU4ZGRkZmbFDPqeVkZGRuQIK30ksmVTMgUad7W7DCicCI6cza5z1GRPFThkZGRmZsUOO3MvIyMjIyMjIyMh8S5DDNzIyMjIyMjIyMjLfEmTnXkZGRkZGRkZGRuZbguzcy8jIyMjIyMjIyHxLkJ17GRkZGRkZGRkZmW8JsnMvIyMjIyMjIyMj8y1Bdu5lZGRkZGRkZGRkviXIzr2MjIyMjIyMjIzMtwTZuZeRkZGRkZGRkZH5liA79zIyMjIyMjIyMjLfEmTnXkZGZvyQuijKOsDLH37K1sL28bZGRkZGRuZbgYnqnD389rN97KnuQhpvc64yyvE2QEZG5j+TjurT/O2zXXxeocEEKFsDuDNuznibJSMjIyMz0TE1sOvAQT6vlvjibDanb76L/0r1xWG87bpKyJF7GRmZq0wXecff59G/fcSnFRpMCLgFpvDYitTxNkxGRkZG5tuAIoAbls5ikqOAWV/HFx+9w59yO/5jIviC2Ww2j7cRMv9ZaFvKOFHWhMZkxgwgCDg4+ZMSH07ggGdJEq21FzldrUHX75YVBCVu/lHMDvcc5q58LMaUGRSplYOfb+HXJ2roNANKb+YsupHvL0wg2Na1lzQUXSziosaA1OcSCYhKJyKi4pnsab8DyK6Wcs6W11LZ1EKNWo/KzZ+kSZOZG+6Bym6fInPNoG/m1LlzHK+spaSxA4OjF5MmpXJTeiIRjuNtnIyMzOiQaC3ew4+2HCJXZ0ZwjuWJzfexIUAx3oaNObJzL3N1MRbzhz+8zUct/ffPIrGLH+XvK0JtasVMTUf4wSs7OWcYYFxFMPc9+h0eDBn6pB2LMWUGwdjMnk/+yYtnG9EDDl6JPHTbem6PdB3gCFGi6shbPLCzBO0AQyqDl/D6d5YzaVSXSEdZ7gl2nDjNvsIGOvrfmoIjMek388sbUwiVhYzfDqROLpzaw+sHT3O21djvjwLOAdP54d03scJXnvsyMhMbibrz23hsexb1ZgG3STfyxr3XEfIt1618y7+ezDWH4Iivu8rGjSfg4uyMMNDbFK74OA92uzri7jzQu6/emDIDYGriqx1v8+uzjegRcAudyy8evpM7BnTsLShd3XAf9BI54z6KS2RsL+LdrX9h85av+LTgkmOvULng5+GCkwiYdRSf+pCf7SsfcJMhM4EwNLD747/x/U+/4WyrEdHBjciIOGbHhODvIABmuupP89ute8jUj7exMjIyo0MkMHkNm6e4IWBGXXSYbSXf/oktR+5lxgEjnRotXSYNu7f9lVdLjCD6c8fm7/Gd8EFCo5Ke9k49Busta9ac4X//upvzJlAELOKv31tJ0nADbWMxpkw/tJzf/Sb/c7CaLgTcwhfxy3uXMc1laLEFk76TNr0JyyUy03rmAzbvLsWASPSiR3hzZdgIKgNItJXs5+fvHeCsRgIEXHyiWDx9JmtTJ5Hg5YJKBF1rIe/u2MY/SzSYHRP50Q/uYu2guw2Zaxp9Je9teYe/FakxiS4kTV/O4ytmMtXNck31zdn84Z3tfF5vBBxIXvVd/rQwAHkJkJGZ2Bir9/DIa/u5aBJwm7yR9+5Kw3O8jRpD5KeUzDigxMXVDV+nJorqTAAIrhGkBl3BRRNVeLi54evujq+7Oy6NtZRIAALe4ZHEjOQJPBZjyvRCoi7zU17IqKYLUPnP5Jm7hu7YgyWK7uPmbr1GjlTU1mEEENyYHBk4Ise+qWAX/71lv8WxV3oxe+k9/OPJh/jxklSSfVxQoae1XY3JPY771i8mzQHQlXC0SDfsT5O5RpDaOPDZB1bH3pMFNzzIH2+5rsexB1D5TOX7GxZYZV4GLpw9x0XTuFksIyNjJ5RBaSwLVQBmNMUXONE53hYNhERD3h5+9ta/+GNmMyNdfmQFqcy4Yagp5YLWEjF3Co1kyrAyV43kl1SgNgOoSIqOYPT5b2Mx5n82htqj/PLTLOokEJyieWjTWuaOJvJtrOJchdaSiK0KIy1i+OnOHSVf86P3DlOgB4V7HA/ecTt3RrogItFRncX7Bw/zZX4tjQYJ0dGbtNRkvD1EaDJQWd8EhI3cfplxwsjFw9v47blmTIIz6dffx7PXBdpMklaFzOTGqMP8vsiAqbGIk80Sif5yHExGZkIjejMjxg9FeR0mXQVnK4ysSLgGXWD9Rd7+9AAH28HNtZpHUnxGdHJ4DX4zmf8MJGpLy6mRABTERUXjNqy3N3G+os1S1koRTEqkHdzwsRjzPxlTAx9/vp/zWjMIrsy+fj23Xul05kpDNpWS02bZECqDI0ke5iWS2jN5ebvVsfdI5PF7b2d9sArQUXTyU5794jzlvRKsJV0LZ04csv5LQNMlR+4nIsb64/zpQClqs4Dv5DX8aI5txx4A0Z3UqAAURVWYpEaKao3gL9dKkpGZ2CiICArAmTrUZjWldW2YEnyvOcmdoaaI82ozoCQ+MnzEVdpk515m7NG3kldeSVGjGtxDSJ8UQZBKS1Z5neXISfQhOcpjWJNMUpeSVWfJflT4RpLqOfrI2piMqWvlYkUlJc0ddBjMKB2c8PbyJz4ilBCnUYwv6aitruBiUwsNnRLOHoFMjYkgfNAE4cEw0dZQQU5NA7WdAj6B0aRH+g6ezDq4gTSe3807pVrMCLjFLuXx9JFFIHqP2VJaZpVNiYRHRhEwHPukNvZ+sZN9bRI4BLPp9tusjr2RilM7+J/PLtAggcI5iPkzpjPLX6D8/GF2FLVZj0YFnB37LrUmTS2nCsup1DkRExvPNF+nXn/VU11eRE5dG51KLxJi40j0GNqS29lSzpmSWppFd+Ki4pjs1feEQtdezdmSSirVJhxdPQjy9icuNADvEazokq6FgooaKlraaZdU+AdGMC3CbxTX/hpDamXXroNk6kBwTuChtWkEDfrdRIJ8PHGgChMGWjU6JGwVAbjGkTQUFRaS3aTDLTCW62J8+wRQuprLOVNRR71OSWBILDPCxqnc61jZqWshu7iEog4Rv+AoZoR79T2JNbRTUFxCXpMag4Mr/t7eRASFEuU2AqHfaOaQrpmsojJK1OAbFElqmA9uA77PQHVRFqe7glg0OQSPCXdTdiPRWlvIyfImOp0CSY+PIazP0tlMdlEFJW06VF4hpMeF4WcHb1Xh4YGXCGoJWtrbkRhH517S09Zlxt3VsdfaItFQUWkJeopBpMe491139J00mxzxcb6y1bJzLzN2SB2cPbqL1w5nkttxSTmm8pzE3TenUlNlCZEKrhGkDDOiqy0vJd8EIOAdEUm0HWaoPcfUtxTy4f697MisoMFwec66oPRgSupivrd6JpOH45Drmzh8ZD8fnLlAdrOujx5PdPRl7vx1/NfiOPyGPKREU8kx3th7lH2lrXT1mCriEZzKw+vXMqPlEH89WoFb2o08PTNwaMMaKth2KI82M6AIYsOKGYSN+kFkILu0CgOA4MaUYert1YX7eeNCB5LgRNrSjTwQZXnU66sO8vznFsde6T2VH953K2v8rSMnByP9+S22N1k2fe4uLtbRJJoLdvPT7UfI6bSW2FF6Me/6u3huTgCtBRn85asjZNR1XbpGSh/mr9jI0/MjcR/QSi3ZGdt5fm8eNd0nCA7ezFt6Gz9ZGIGruoQdu3bxfmYFjf0qOCpcgpg/ZwXfXZhou2dA/09qyuWD/Yf58kI51bre9T8FXHwT2bRuHffEDW/TfS2ivrift/M7MaNg0uwlrPS68o0oOjigEkBrNqM3GJhoVSckdQGvb9nOtopO6/2nJCjxel7YNIdoTQHvffkVH1yo61X2VUlI0gp+umE+yc4T3051eQa/3LaXIy09k4jgxKX8fONCpjiqOXdsF68fziSnvd8kEl2ITZrDw6sXMncIO+XRzSEdRae+4MXdZ8nXdL9XxDdmKb+4c4nN76cv2cUP/3GMSrM7Z29/nGeSB682dk0iqflm9xZeOFJBm/Vrq7wS+c5dm9gQoOGbjC959cgFirsu/Z4qnyQe2riBTZGjuzkFpYN1Y2imS6cbt4ZWkiafv779AdvrRCZNv54fr55BnBOAngvllpwyhW806T7Wq6ur59CRffzzWA6FUhw/fPwebrzCOiY79zJjg66SD3e8z6sXWuhfdErfdpG33ilGYe1K5BQWxdRh6u0LSivR2Flvb68x1WUHeGbrXs6oB146zMZ2sk//mx91CLx+z6wh1NyVaCs9zG8/2k9Gk+0yXpKuicN736VBeoBXlkfgZPNVvd/Qwal92/jVwWIaLzNVor3mLC+/XUawuYWqLjOKzvM8PXPllUYFoD33GF82WqrQeCYuYH2IHZYaYzXnK3Uj09tLTew8dI4aCZzCF/DkvCDLIm+qY8cXh8kzgMJzMk/1duwBVOEsTPDio6PNmAQnQv08LMO1nOV3Ow6T09nL7TO2cmTXR/y6xonzZ0to6v+bGps5/NW7/Nr5Ozyf7m3jgS9Rd+4jfr4rj8be3qShhSO73+f/mAun9rCvyXZjBlNnLQf3vkte/UZeuS114Oi01Mn5wx/zm/0XqLR5K5npbMrlrXfbMT3wEA9GTGBJitTC7iOZ1JtBcErgttkhQ2pKZzYasezJBRwdHAYs0XtNIrXw1Sc7eL+is9emxEht3i5e/LAG99KznL2smYOR6tyveOZDZ167M53gq+ExjpGdUus5fvPeLo6095lE1OTt5tlPYSOneDOrCZsCO6mTopy9/LSqnp88dBsrvAf4IUY9h/TkH3qHp3aX0MdMJJqK9/Hi/hjeXhN52QmFpNVZmv+Z1ZwuKMeQnDTB8sIkas9+wi8PV9DW63vrW/N47aMPKXQq5auSjsuSSPXNubz27od4fOdO1gx0TYby6TptTwBLqVSO27zWl5xlZ43lWVZw6mMeKy3koQ3r2BBSS3a1DhDwjYoh1tzCySP7eSvjHDkd3cVHHHEZwiImO/cy9sfUxBc73uXPF9oxAY6+Sdy5cjGrw5TkHfmYF49V0imZrBNYQVxUFK7DGV9q4lx5q+X9imBS7aS3t8eYUmcuf95mdexFdyYnT2NZUiLXRQcR6CSgVzdwPucwr+/KpMxkpq3wLAdaZnCn72ALlonqrM/4yUenKLY+SJx84lk3L515UWHEuEuU52fwp89Pkq/Tk3/sEPvn3Mlq10HGlDSc2v0OPztcZdnQOPgyZ84iNk2bRIyTmlMZn/J/xypRdzZTZX2Lo5//EH+EVvadybcs3qI3y2ZPZhTrcQ+mphKyWy0Pe2Vw1LD09oaqU/y7zACCJ8sWzybW6ll3Fh7lo3I9CJ4sX3sTq/37L4kigV4eCDSD4EukvwIwkHn0IMc0ZhAcSV16L4+7ZvDUv/NoM9Sw77TlnYLKn8WLVnLPtAicqvbz823HKTRoOLrvEGeSb2Jm/ye3toB/7L5AoxkEl0lsvvsmFrbt5Yfbz1IjtbFv15fWFyrwi57F/QunMyvMF2ddExfyT7Fl30myNBJ1OXvZXj6Fx6NsLO+mZvZ9toXfnKqjCwAHQuJncVt6IqlhQfhKDRzP+II/nqxCo6/iw0PZbLhzOkMIdl+TGBvO8mWpHhDwSkhl3sB6h15INHeoLUEJQYW3u+OEio7qyo6yJV+DGQGXqKX8Zq0r77/9b450GijM6rk5iZyyiM2LpzFVVcU/39vGRzUGWvL2sbU4mafixn5DNzZ2ajm+bzcZ7WYQXJi14m5+OKWNN/+xnV0tEvVZu/ir9ZVKj2huXrKQ1ZPCCHXUUVmRzxcH9/FZmQZTaw5vHy1nxdqoyw23wxxSF+3m+a8tjr3gHM7GG2/ijvAqXv7rJ2R0SVQXFlBiiiShXwRAFRRImADNZjOazq4RV1IZNwxlbD+YT6sZBMcoHrh3LV4Zb/NyXie6miy+AEDA2X8Kd69czPURKvL2v8cvjteg0+Tx9qFilt4Ud+XA1QCYOzvpsH6Gi9P4zWunSYv43oxmXj1TRZsEXY1ZvPJmJSfTQ6lrs+jtvbpy+PEfz3O6+/RJcCIiYRb3rVjEssGe7VZk517GzhjIO/ABf7Q69s7Bc3j23jXMtYoDg1atJjv/TbbVvCUHAAAgAElEQVR1hzVFX1Iih6m315SS3a2N94skxQ7CQ/uMKVF9JoM9rRIIHixev5mfT/PuM8kcvUKZFezMn3oCUiYMV1ihO0q+5mcfnqLYAAjOJC/YwE+XJhHSa/eePH0ND5Tm8vTpDsz6egobJBhwAZCoPv0Rv7A69qJbLA/duclaMQbAg2Wrb6Wx+s/8pbQ7SqxgUmTk0H4FdQGHSy27EIXvFFaOoKKNLZtbS8t79PYRkZEMvYCJkdzMHColUASmcdOk7kdDJ4dPZdNgBlXEbO5OcrOx2JtRd1kiLKJ7MIneIujy2JllKVEmeiRz9/woomsu4C7QE40SnMK56857eCjWemzuuYpH0nL50ck2pLY89pWsYWZC799FojH7BAcsOyLirlvF7ZHeKLuiiRLPWhPPARSEpG7g5Y2pl6KWLiFcNzmSXQdOWodqpaROC1H9U9S7OPf1Vl48VYcWEJwjuWPDRh5I8ukV/Yvk+jVLOZe7hZ0dZrrqayiTmKDOvYmSrAsUmgDBnbkp8UNM2jdRWt9sObIXvAj1mUjCJB0nTmdRJQGCB0sXzSc1oIYMZwE6e25OJi+8kxeXx1qvqyePrkzj8L9OUm9u40hmCU/FJUxIO6X2bD7NthRFUARdx6PzIwlSdDEtQGRXr67oSp9UfvL/NrK8J+rgQvykyZSfPcBnlpGorasDovrZbYc5ZKplx66TlEuA6Mnym+7ksWQPRG3jFU+VJK0WSwVHAZVKNeEkc50XT7Ov2XKi65+8iNujAii84IxIZ09ek1v4Qp6/Zznp1ueX/6qVrMr9F5+1mWnIy+Tcmjhmj+iRYqKqvtEauRcJ8PYev027YzBrbnmEWalH+PNnB9jfoMNsbOH4Ny3WFxgpyD5l+U/Rlfgp13HHwjksDnEZ8jWfkEu2zLWLse4Yfz5cZVn4XCbx6O2rexx7AJShpEY49RyHia7hw9fbl5WS162ND4+yj97eLmMauFBWjR5QBM/gvhRvm7tnhVcQkU4CIOIVl87SQQTyUnsWf9h+hIsGQHBl+op7eXFVX8fe8kIdrZpubbAjrk4DHziamk7y8i5L9ASHEDZtuoO7exx7K6IPi6f0ag4l+pIcNbSWH5rii1wwAIgET0pkkl1CCAaySit79PaTo4ahtzc1crKkBRMiUZOnEtd9bfVlnCrTYcaBtGlphNu8DHqK61swIeAaEcNkJWhL8jipNgMCPnGTSVVJNFfXUN/tOwjuLFh7Ow/G9tbDqkiODrNEnMxqimta+31OFydyS9AAiAHMnRyAEtDXVFPaa/OnCp7PMzenXiZHMDaUcaFbBiY44uN+2YE+jVn/5oUjNWgB0TWGh++9h0f7OCXWV+o0tHXniTg64TahNCm9kJo5ftGStC84RjAjaojRaFMjudUazIDgHESC7wRyofQlHC1UWzejcSyIUiGpqyls67k58U1ay7M9DrMFp8hoklQAZlrqaiasne0XczmnAxCJSpxMlAIw1lBQ32sSKYPZdOvNvRx7K1IDmRXqHifT1b1/Zox95pCu9AQ7qy1af1XYbO6b4oEIdBTkcFprWVe8w8KJsHHbGRobqbX2YQnwGW2BgquNnnN5hbSYAcGdmZOjcJbUFNS09ZxAiO5JPH77JcceAFUkaWGWuSup67jYOlKlvJ6C6kZrEQ9PogOdxtkBVuAXs5DnHnuMFxZF491/nRVcSExfzYtPPsUbm5axbBiOPciRexm70sXhA4fJ0gM4krbkBtb5978dBbxcLu3UncKihl3fvq82PnwM9PYjHVNApVQgYMDcUUNOs55YGyX0FD6zeOF7IWQ3K4mODMJnwBVGx5n9uyzVXRAJm7Ge/10QYSMZU0vBiU95q0BrHT+amX4DLQM6TmUc4mSXtdTW/Jt4INpWkpKIl5cnLgK0m0F0Cyc5cChLi5GSKutxteDMlOihaZyvPGw/vX34MEbVVZLfIIHgydTogJ5Fz1hfQV6XGcQg0qJtRe2BriK+KdUBDkyOjcIJiaq6esvGSHBjRmIUTug5UlqNNT0cj4TlPJ52uaZe6eyCqzUwqe7s10HFWM/FessDX/SMIj1AAZioKi2nvlubKvpyw5pFTLXho6pCk1kVlsmWShPBU1dxT0K/F+mK+eeuLMsGRPRl7fo7uDPCxnXXVvPpp3s5rgUQCYmOs+lkTAi0ZT2ncWJguNUpvDKm1ouctu7UnMOjmTqBnpKm9jpKNFYHMTaRVBV05pVSYPWeBOcEHlybdrlWXeGMh6MAOjNox767z9jYaaS0pt4qp/IkNdYy141NpWT3CLxFwmas4W5beSTKUJZOC2PfwUoM3lN5ZHG/0wu7zCGJuspqGsyA4MSM9DRLoQFJzeHMixb9veDJvJQYLh/ZRHltvVUKpCTM33diOXBSO8X1GiRAcItlbpQK9Hmcr+656MxevpZVl2k4Fbi7OCKiQ0JLe6fleThs9KWcrbSu0s7hJI+yLLNd0DVy9ORhdpyvtDxTemPWUlVTR63GgMnPcdgbuWvg28l8WzC1nOPTPEvES+E7nQdm+Nm8ITW67gjzSPT2zZy3u97eXmOqmJ48Gf+sM9R35PK7V37Hh5HRpISFEBscTEJYOJN8nFECjl5hpHtdway282w732KRf7hP5aHl8XiKEnqdDk2Xmrrmei6Wl3DiQjZHqzoszqXoxdLl85kywMyWWs+xPbMVCRA9UnlgftiAGxmzyYjJuuA4hQ5xEyZpKW2wRmJEf+KGUrZlCJiaS3v09g7BUaQMR2/f1GQtLeZLdC8tj6m9zRJFcvAg2GbZU4nqcyc4rDEjOMexIskVEZGQlIXc3XCOCqdE7oh3BGMh5yqsGw8xgHVL0gi0lein1/VK5uo3M5Sh3LBkNq15XYSlzSdZiSVpr6y+J6rlHDWH26IG+OJO0Tz46NPcpTejUin7PfokGs4f4esWy3G479QVPBTvgigZ6dRp6VC3Ul1fQ3bJRQ5l55FvTdxSeCXz0Pxw+2zOxgF9bQ2lllbGePn5D7GClER5Zrb1FE/F1IRJE6rcoMInhbsWNbC70Ym5C+Jxwcipkgqr0kUketYSVtnSWEl6OvXWm1Mce7dgbOxUkjhjCes1ebT7pnF7pBJLIYIySruDvaooNsyLwgVbOJG2/FE+WahHUqpQ9fl4e80hkVDr+lHpFM+dKZaovdRxgb1FluZ8Cp/JrLB1yiR1kV/VZF1bA0kInWAzU/Rh2cJFlJ9rxC1xAbMdQV9YwgWd1RsImMV9aV423HaJLp3eWtlGxEExsqPEzuLcnhNX16h4po1jJrJRXcm+4xlsO3GBgu5KSYKAaDYjIaAQzJjMEh3VZ/jDGwXsmbmS76+YRvwwKuvJzr2MnZBozM2xRu1FYtNm2IwwImmpa+u0TFTRl5Qoz2Hr7bPqu7XxUaTaSW9vrzE9Elfzs2VtPLeviCaThpLibEqKs61/FXH3i2Fh2nTWzUwmadDkPomm3GzOWEs6SOpsfvnbHJ6XTD0Od38ElT/L12zih8keA8Q1JBpys3uOrSPSZjJrwMwkiaaWdqxnAUPfhJk1NHcvVko3/IeQ+HNlJFp7HtAi4VFRwyj1CeauTmvSsAtevXsLmM1WXbXth4XUkcMbh4rpQiBgygzmW6+XwnsyD26c3PM6Y3UpOR2Wi6KKmM4am5WBJFpa26xRNwEfj/4SJxWx09fy7PRe/8tQRmZVd1TLlXnXpV2hqpICJ5tzroOM7GKrVtdMS/Z2NuZsw2SSBigFJ+Dsn8L3Nt3Mkonk2fZD19JKk7Xija+n59BifaYa9mTVYAQEpzhWTB7gROdaRfRmwfKNLOj+t6ma8xUdluusjGB1uu2TNEnTSoM1WV9095iwdjoFTefx2/tMIrK6y+ci4JV4HSsHPioFQKmy5Vjbbw71Xz9Aoikvh0zrszNsSgpJtpYQQxnnreuB6BnKVHtUKbiqiARPXs5Per66iYulFdY5qmTq9HTibS6dGurarBddcMffcwTOvaTm8JkLls8SXJiTEj9IOeKxRMuFox/xqz0XKLduanDwYnr6Qm5xzeL5vSXolTFsvjeViq92srNaiySpyf7mI76Tn8sT993BTQFD85hk517GTug4X2LRmyMGMCfR3/bNZSwny3oMJ7qFkzIkqccltGWl5Fujcd7hdqpvb88xRRdSl9zPP5Ny2Xk6h1PllRTWtdBskACJjsZCvthTyFcnzvDQHXdwV8RA3rWRrNKqS2VEzdIAibcirl4hTE+axvp56aR7DxbNMZDdc428SI8PHjgqK3VytrTWGiXyJXmoSc9mLWrrhkR0crFT1NNw6bcQ3Jg8zPr2PXX2zOY+9cpFV1c8BegwNFDSYILQXt/QWMfHH/6bve1mcAjnpjlxA0T7JJrKyizJcYhMik8coIygjqyy7t/Tj6Qw26P1xlBd2hPVEj2SWBk/whrPxnIyqy7V85Ykk22HRHQkKCSW+dNmc1t6LEETLDDYF4mOrkvVRBxVqiGVvWvPO8qX9ZbobEDyTBYMqbrOtYvUUUZWgzVwERzP3AEcQk1ZGUXdm+ewsKtnoJUxs7O3nE/wYH7aCJ26sZxDkpqjuWWWQIroy7zJttdlfWUhmV2WyLNXVCwJE917kzrILGuwronBzE60VR4Y0JWRVdsdfAsjyWX4c9LYcIqP8rssJyPeKdyYcBWbOfTC1HiCP3+VQ7kJUHqQnDafBxbPYoa3ka+37sYAKHzDmR6Vzh2bI5n19Ue8fKyMFgkMbZXkNkuycy9zlTHWkV9niY+IrqFMGeAG7CzM5XRnd3376BHo7StQW7Xxk6NH3pp5bMcU8Qiawqa1U9gEIOloqK8ip7SI4zlZHChporO9kDd2fE3S925kus1oaxtVLVbXXuHL/DkpxKkERFGBg9IBZ2c3/D28CAsKJtJjiN0zTS2U9YwZSMIgkhmpLZt9JZbXDi/pWUDsyZYW7BP1NFZzvkLbS28/vGVLdHHBTYBGk4YmjUT3ebtDcATxjseo7Krnq4xsbrDWhte15LPl44/ZUqTBLDgydfGN3BY00IKqJ7tbby96kRThZfsB1VlARvfv6R7J9AHH60aiqrScuu7kucQU2/fJEDC1NVFjvexK3yQ2pgTjJAgoFApUDo64u3ng7+VLbLA/fqqJ7cz2xmS65H5J0hDaUJlq+ehgtqXHgCqSDfMG2tBNHDrLu3XsIkFhEQP0Pujk+IUSS1RacCc5JuhqmmixYIzs7C3nEz0TWRY7skk0pnNIX8rpCsuzU+Edzzyb67KRC7mFlntTcCE9KXbC35voy3v09gqvMKYMUJKrreAC5yyRHXwjY4gZbvBNUnNw/3HyjACOTJs3l+RxClwo3COZmxCJo1MCty6azVw/qzZIX8Tpch1mBDxDwyyJ4Ao/Fq/5fyTFZfDaoUKMUQt4IH7ohsvOvYx9MKtptmSkIrh74m8rTCa1sffUBZrNAAomRUXhikT1uU954WA5RCzipzelETpgBcfe2vgQUvpo4yUacnby/J5CdMHz+PGGmUOLwNtrTJMRg6DEwZbtoiP+QTEsDoph8exF3Hb4Hb73VTHq5gvsKVnNdFshGLMBvTVQJDhFsmb5cuaPdkEya9ForSY5ueA54OzXk3PsOGetDzPH4SQ9i064OXZ/nNa6aRodpuZScrr19iH99PZSGwd3buetQgNx89bzMxsddEVvX4IVUGqs40KlHrytpyWOCdyQ4s3Bb5qpz/qQh2qOE+emp6yqFkufKAcip6/n2YWhAydYGysv6e1xJ2AA7X7VuZOc6LKUuQyZkmrR1A+GpLmktxfcmZEYMeJNp9lgtJ4ACbhFpvPg8onW+GZkuDheita3adRXaDUvUXlqFzuqjYCSSXOv55ah11q9RjGS16NjBx8v29IkU9M5Pr9ojWr6TGFF5NV2C8bKzt5yPgHfuMQRJ0eP5Rwy1JRz0eq8ekRG264upi9id44l/0pwiWNh7MSfwfrKS3p73L0IsLl0NrH7pDXRWPRhUerljb2uREfxPt7MsUi+lAGzeGD6OFYZcozk7rs2c3e//22oLiJTYylyERfeO0dDSWD8Ep6NXzLsj5roq5fMNUV3tqAKZxvOvbr4AFsvWiOwVqmHaKrly4wzZNfXk511wbq7tk1fbXxkX2281MSujBOcq28gNyebzC7bSkj7j2mi8sx27v7lc6x68e+8XWqz72EvVERERxAgAGYdnfoB7BRccLeWszTrNPTvkj4iBBXO1pVRMujRDvDRusoMXjnRMLImY6IX4T4Wp8qsb6N2kC69Q8PygO6ubx8e2Vdvb2o6x/snSihpqORgdpltk1yiSQ0WwazlxLmcXt14VUxffjObQp0QMNHeWM6ZUotjL6j8WLTqXl6+earN5NhujPWX9PYISpuad6kzl39klFr09sowbpg1hO7HvWQAglsc86JGvrMTXZytpfjMdGo6L+sY/e1ExN3bC4s8V6KhoZ7Lmp32wtjwDb//2uJEKPxm8t2F9qjCNc6Y6i/p2BFwdLAhTZI6ObI/g/N6ACVJM2YN8zT1WrbTSHYvOd+MxKgRX9OxnEPG9jaarRuQED9/G5IciYaskxzqsAQHwtOuY85IuzhdM5go69Hbg6B0sNGYSqItdz/vW3umqMJmsG6YPVOkzgL+9tlJKq0FFW5Yu4jka67htonyolJr0Qd/ksKd7eKYy869jH0QXPGyauHM7S29mu5YkNR5vPbZaUvTEkB0iyA1UIGprZizDd1VUCJtJxJZMVRVUmjVxvtGRPeJohvrMzlgPeJTBkWTOkRd3qjHNFzk3d3nKdeZMWrK+OJcxRUWfi1ZZ7MpkwCFP7GBA3xh0Y3YAHfLBDVVc/6KmwYL+pZSDuXX0G7LkVF4Eept/Tx9HRfrLxfxS+0X+MO2g+R1964SfYautwdASWywv8VuqY7cKsOV3nAFTORX1lgf0O5Mje6ttzdRmplNvuXYhdjoKNtDiN4sTonCGTPqgv28ma/p0cuKLrE88uCjvLB6HquTYpiWkMqGZev4zcN3sMFfS1F1m+029UBfvT1gbqempf+N387Bz3eyxxJ6ImLmCm4eQkTYUFXCBa3lyecaEUvKKB5IolsQUe4Wd8lYXUrmkG4lI7WlORyr6cRmqkc/pM4ytm1/nTt/9TzrXn6LVzIbxn0ToQwOI7b7di8v4GSnbe9eUhfy+rbdnOoygyqEO25eRvqQvUCJtrIjvPD671n3/K+4660v2Ntgj5346OmtYwczDS0t/a6lRGPO5/z5fLul6ZPfTB66zv+qRzXHzE5j1SU5n2ME6UPtc2CDsZxDZsncS79vIyqmK+Xdg/mW6LUqiltmD106ei3OS6Cv3h6Lz1B72dKZw592nreUDRX9WLfiOiKH47FKLXz96cd83iQBDsTOuYmH48ZHaz84EpVNLUiAc1gyi4eoqb8SsnMvYx+UQSRZs4ek9hJO1vRKPuos5V/vf8jnTZeWONE/mDiFRFV2jrXsnJLJSYmDRknNOq21lKCAr1cvh1NqZd/+U9ZOlE6kp6cRMcQ7e9RjGtU09XRUdCc1LnhgrZupg7MHPuD5bxoxIeAeN4OVA5Z9UTJlSrw1wt/BgQOHyNIO9k10lGbt5L9efZNn/vVXHt1ZbOM1TkyfFGGpnyw1sCsjq8+Cqq4+yS/f3MYXva6T4BoxzCZjIiEJk4gVAbOWc3lFjK5qtplOrd6aEOdOYK+TFak1i3+e6q5sEsuaNL+BbZq+iOt9RZBa2PnhFt4oaKPnDnX0Z8H8NTx994P88e41rPBo4P13X+WJLe/y36+/wWvFAzlrvfT2AFITpy82XhpXUnN6z1ZeyrTIvpS+M3hs6UBl+Hpj0dtbro2ShJjo4ZWL7Y8ynEXxntaSe9n861AZ6sFer6tn38632PzmVn7019f4S/EVNmhSM59t+xd/OVdOpUZLa2MR2z/cztbaoWwLxg7RLZ75kRY3yKwtYPuxKvpPIWNrPq9veY9t1XoQPVl04x08aLPvg21MzSd5/l9fsru8iVathoqio/x6+yGKxverA7117AASlUUXLYl81n+3FO3hZ59kWu4zhS83rFlK2jgcV4yVnb319qrQmNGVPhzDOeTg42OVpJgpKy+xRvGtSC3s+/wT/t1kqe0eMWMJq69Q7efSe6/NeQn00dsDmJqKONF46d+Suog3tn5i6faOgrAZa7h/oDLAtpA6Ob17K7/PaceEgGfcKn6+MnacKuRcCQfmrriLn66/iz/fs4BYO+2uZc29jJ1wZk5qIj6552mW6vn4088IWj4V3/YSvjh8jKNNfRc3qaGQ3Zlazhy1RLoF53huSB0gW96KMjCQcDGHAkki//AOfqeYz+JggeLMDN7JsUR1VEGzuX+arVq5YzSmQyAxPiLHGyQwazhz+HNeb4klKcAHX2clmPS0tzeSV5zP0fxiCjuMFs2oxxSevDF90M2MU8wC7k3I4aU8DV2VB/nvV2u4Pj2F2RE+uAkSBkMXzW0tVNRWcv5iAecauquDCOgNth4mIoGp81h5uJhPmyUasj/hB7oyloQ50l5XREZeNf0Dz06hkcM+plf6T2VB8EEKqkw0555iX2siNwyQLHVlFEQH+qHIqcYkVfHBjk9Qzp9KnFDH3owDHGy36hRnL+H6wT7DMY5H1i8g5x8HKegqZ8s7f+JowjRWJEUT5+2MpG6kuLaGnPwsjtVeqrKi8AhnykAP0z56ewCJi0c+4hWPZcx1buHkiQw+KWy13N8uMWzetJo5QzlRkjrJ7Nbbi4FMi3EfZRRGxbQFS5iT8wlHNHpyD/6TR2umsSYlnik+zoiSEW2XmoaWRooqSzlRUEJZtwRNMKI1DC6tktpy2Vus7VOJCGMtpwvbuT/Ie1SWjwrRi+VzU9hadIpas5GCQ+/xc8WNPDIrGl9tHefzz7D1wBlyOyVQeDJ31Z08PSw9rkRDbiZntH0TS/S1RZxqX0zsuJYq7KtjBzDVHOE3X3jwQKIzNYUneP+bQmqNgODC9JWbeCzBZRyifWNlp6W+fbecLyY6ZpBmgUNh7OaQQ2gyi/yOs6XehDr/S378kYbbk8Px1tVw/Nw3fJbfhAFQBc7mB0tjhpxIe83OS/rp7QGkGrZ99AV+yxJxbynks4xvONlqBAQ8Y1byv6sThl55Terk3L4tPHu4mi4zKH3T+Z+N1xF9DXu7Dt7RrEy375iC2Wy2Q8qbjAwgNfHvd//G/+WpbZQJE/GOnsfN7tn8K7PfsavgyNTlD/HHxVfoZip1kPHJ33n2dBO2Yqmiayzfvf8ebgsZhjc66jElmvJ28t/bjlOoG8pUEnALTuf7t69lpY3utZeNrini7XffZ0vZ0OQRiE7Epa7iRzfOImGAQIe6bD8/2bKXc5027FV6EOWpp6xJixkFU1c9ySsLB0tEtGk1LZnbuH9bFi1mkeAZd/H6TYmM1L+XOi7w0t/f73OicAkB79jV/O6eeUy64mWXaCrcy7MfHCJzAIlGDwo3klIX8p0Vs0nzsP3tjdV72PzqfgolUDk5IWi1NiU8Dl5JbL59A7dGDFFLacjlVy+9y1caMwq/+fzp8dVXTsC9IhKtRft45v2DV/7uVhROwaxYdQvfnxU6uEPReZaf/t8OMvqExUUmr3iC1xb7j8JmOyCpOfrZ33jmpO35DSA6h7Fxwx08muQ17GhX29l3uWPHhb5RXDGch5/YzD3jmZBrqubNV1/lnzUSKJ1wE7Sobe33FV7MX3k7T8+NwH08zB0zOw0c3vESPz2rwSz6semhx/nuqBOFx24OdRTv4r+2ZJA/wDNE6T2Vp+67lbX+w/gO1+y8NHFxz6ts3l+DCSVuTgJqrc2LTlDSSp7dMJcpQ23eZGzmwM73+M2JajRmcPBJ5ql7N7JmOL/btwTFc88999x4GyHzLUFwISExFp+OGgoaO+i0Jgk5ekaxetkt/OyGWcxPiMSzuZSshk5r+UBXpsxZz3PLY/C4UiFqwZHI+MlMddbR0NRIbVe3s6ckIGomT2xaz03Bw9RVjnpMARe/eFYkBqAyaGhuV9NuI0ojqjyIjpzMuuU388za65jqNjR3WVD5MD0liShzOxWNzTQbLl/8BaUzwYHhTEuawQM338oT10Ux2Fqm8opmyZQQXIwGjCYDGoOIj18oqZNn89itNzCp5jgZjSYQ/Vi2fCGzbFaAGdRqnP38kIrPcbrNiLqmhHKPRBaHjiwyKDj6M3tyBO66NiobW+nouUSepM5cy7PrryNuSJddwMUnllXT4/A3aWhsb6NZ1/taKXD3jWDejMU8uWE9m9OjCXIcsHQTDdkHeDu/BRMKkldu5n9itRRUNdJitFaNUnkzY+ZKfrzhepYFDK3OOgBmLXnnz5GpURA/Zw33xw7UlGw4CDj5xLAsKQBzexPlzWq0l91KAipnb6LDY5g3Yyk/vHUtN0d5XrlDrYM/Ma5t5JQ30Gqw9hIQXJg+eykL/cetLoUFQUV4XCIxphoyq1vp45M5eDF91kqevv0G1oWN7N508g/Eq62c7AYN3X6Z4BLL+qVTiBzHry61Z/PO3nxqJHCIXMmfb45FXV1FucZovT4qgmNnsnn9Bh5NCcBpZE0/r2E7zairzrO7VINDyBweWxo7rMZ3thm7OeToHcOSWA+6WhqobOuiuwkvCjfik5fwk02rWeQzTAf1Wp2XUjsHDuzlWIsEikg2b76ZdG01+Y0a6/cWcPaOZd3K9Tx9fQpRqqFddH1zLm+8t5W/ZDehA1R+03j6/vWs8vvPc+xBjtzLjBXGTipqG+l09iXK25W+PpJEZ0stBS163H1DiPUcQaKTpKeltZnKdj2uXgFEeDmNXmNmjzElI+1tTVS2qdHoTaBQ4eHhRYi3F+6jNdCkpa6xnmq1Hr0JlA4OuLh4EObrPfqxuzHk85vfv8MX7WYEt+n8+ocbmDvC6hnG+uM8/cbnfKMxg0MgN916D09O8R7VdZL0amqbm210ag4AACAASURBVGjQOxEU4Eeg0ygeUpKepuYmajs60QmO+PkGEOquGuIphZa9773EL7K1mMVA7nnkMR4OU4Cxi+r6eppwJyLAC0/lyDwKqauRvEaB8FDfMYmoGrWtlNc306I3YkSBo4MjHh6+hHs7X9mZHwBJk8tLr23li2YJ0SOdX31/PXOvoZIz+rZKTpZUU9Ml4hcQTHxIICHO9pg4Eq25n/Do1tNUSwL+6XfzzvrEca1Drs58j9u2ZaM2i8QsfoQ3VoShxEhHcz2lHeDrH0CQi3Lck+7G1E6pi4qqRgS/UMKGGvkdBmMxhwAkYye1jQ3U6xwI8A8gxGV09+g1Ny+1mfz8pW0c0JpRBC7m1cdWkKgAQ1czpfUdmN39ifJyYcjtAiQ1WSd288c9ZynosjSg84yYx9O3r2LuiOWgE5//zC2NzNijdCE8LGKAP4q4eIeQNhrZn6jC2ycIb59RjDEWY4pKPLwDmex9eb31UaNwIjAwgsAxGLobY10ZF9TdTcaGUd/eBsqAWfxsUxtPbckgX1fHpx+8Qcf6h/hZ2uC5FYMhqtwICXIjZORm9R4MX79gfAfKwx2MXnp70S2c5O5Oy0pnQkIiR22f6OzH5PBRDjIISicvYiK87DegtoLt2z/ly2YJBFdmL138/9m77/iqyvuB459z783ee+8QMkjYG2TIEBCkSN3WVa2ttUNta/XX1ra2VVtrW1tHbd11gOLGxRRwMEMGhOxF9s7NuDf3nvv7496EADeQhEAG3/fr5R/E5NznnHvG9zzP9/k+zBxBgT2Ao1c4cycN/eqr+rIvefi9g1SooLiN5+aFCcO8wFCvPHbFneTI7gpTOjx8Q0nt9/1NpSL9Xf7vo3QK2s0MrBdQQefsz7zl1/K7GX3dsIaqnX3QuBARcf4uoiG/hmw0OldCg8/9HgKMyOvyRL69gk9EZE+FOgcXX8ZFDfBLN1fz9isv8M+8VtscJVeSZ6zmgeVpRI64kpcXlgT3QggbldqSEmtNYDTERUXjfk7b0+AZu5S/fMeZP2zYytfNrZTUtmFheCdzDYXe9e2dw6JIHqYVD4edaqD02Nc8//lOtlcbsKAlfPJqfjp1GBeKuUBUQy1ffb2V53ZmUWiwgNaPy1avZtW5zdw8d73rxjuGkRYx2JPTRHZ2Bvntg6muYsHUWcvuzCLoK7gfsnaK04zY67J3fXtHEqPOcT0JSzOF1XrMaPAKTeP6y5axPs5LAlskuBdCdDPXsTWr3DYXIpCp8d5D8CDQ4BW9gMfumUxBZSd+oYFj4KbTu769lrioASzyNYa0Fm7jt5t2sb/RaA3QFGcSpq3hN5ennrEK1OjXwaFtb/LIrnwqbcnRGudQLl9zNT9O7X+lrvOld914XXAUaYNe8EjHrPnLWGnMpLDDhDqQrntFwcHJn7kLJ1yAdoreRvR12bu+vTaY1Ohz/NJ1Cfzoe99nqd6V8eE+jMQq9sNl9D9nhRBn0UlBxtd8dtxCwuTZXBps74ZqJH/P+7xeZq0p4hI9lcuCh7CPR+dJXITn0G1vWPWqb6/xZcKAFvkaK8xUFGRxwBZAaD2iuWr1Om5N8Rv9K7uejbmB/VkFtsBeg1/0XH6y7lIW+I2MnucTdeM1hEVGMfiiPRo8Iudw/y1zhq5xvQxdO8UJI/y67FXfXusbSVq/61v2zck7jElDnx016klwL8SYplKfvol73sqm0QLanA4C7155cmlFYz27d77L418U0WoBHCO47rLphMnD1r5e+faKS8QAF/kaK7SMm7eO+3U51LhHsiA1nkjni+SE0YZwzbp1OOU04xOZwqL4ANxHzK73zmN3ITkq+Jwmd54/o6Wdo83Ivi5759t7RkT1rCAthp5UyxFiTDPxzbuP84t91gW5cAhjzfLpJDtCZ4eemppy9ufmk9tqqwKu8+OyK2/h52nnVtVmzFFbOfTNHrZWttNlrGVvVin1FtC4h7MgIRAXRYd3+CSumRY16Hr+QgyOSn3hN2zIqKTZbKQ0L4usVgso7iSlJBDtpODoFs6yedNIdRvOk3O0tFMMJbW1kHf2WOdudNTmsaO0FRUF3/AUZgY6odG5kThpHquj3IY9pW0skeBeiDFNpXr//7j13Rxaz3ilK7j4JXLD2rVcF+t+EaaZnFlX6cfc8txuW559H7Qx/OjeW1k/4HUBhDgHplKeevI53qg748nJ5FX38sQcr+ELoEZLO8UQMpH18ZPcvbvujIsw6mJW8eatcyQ1awhJ55wQY5qGoCnf4pGurbx8MI+c2maaexbZ0uDo4kVsZCwzk6dwxaRoLtL1Ps5K6zeOReMK2VFnsP+Q0joTFDWFGSMnP0NcLDR+zEgdx8GsOuwvnKrFzTuKy8a5D2/APFraKYaQhvBxqcwozKLMYP+lTufsTdqUcfjIlz6kpOdeiIuJ2kVrewedqgYXV1fcB7nIkhBCCCFGJgnuhRBCCCGEGCOk204IIYQQQogxQoJ7IYQQQgghxggJ7oUQQgghhBgjJLgXQgghhBBijJDgXgghhBBCiDFCgnshhBBCCCHGCAnuhRBCCCGEGCMkuBdCCCGEEGKMkOBeCCGEEEKIMUKCeyGEOAu1o4rtO97nT+99wb4WdbibI8TIYG5g55Z3+Ou2w+R1yHUhxEihG+4GCCHEyNVB3oHP+Oun+8luUwEt1YGTmD7bc7gbJsSwM9Ue4pWd+8lVD/BpVgE/u34NS/wkrBBiuEnPvRBC2NNRzqY3nuGuTXutgb3iTGzaCm6f6D7cLRNiRNAFTuPmGSG4KhY6qg/wyCsfsadVevCFGG6KxWKxDHcjxMWls7GEvSX1tJktWAAUBQfnANISIgjqs9NHpakqjwMVbRhOOWUVRYd7QDSzIrxwGLJWmqk/fowDdY4kJsYT6TRkGx4iRgoz9/BplRvz5kwj1U3e04eSuSmbv7/6Nu9VGrAAjj7juWH1aq4b74PjcDdOiJFEbePglpd58Ity2iwKnnGr+OdNs4nWDnfDhLh4SXAvLixTIX/72wtsajy1d0dD3MI7eW5pmN1cMXP9Hn765GbSu/rYrjaEm+78PreFDsUTRaUu4y2+v/Ew1aqCV/I6Xrh2Cv4jKH42VWzhe09vJ0/VELvwe/xnabjk2A2RrobD/PmlTXxSZwK0BCcu5Vfr5soLlBB9UZvYsuHfPJzZjKo4M2P1XTw60xeJ74UYHvK0EheW4oSfh6OdE0/B1cUFpa8/07rh63Km09UJD5e+/nqgTBzKPEq1CmBBX1tDzYgaaVapysunUAVQ8HJzlwt5iJjqD/KHF962BvaKM+PnXMuT182XwF6IM9F4s3jlMi5xV8DSyYHde0g3DnejhLh4SWefuLC0Ydz4vV9yZVsnHeY2PtvwFE8XmUDjy4Qozz57ejTek3joZ8nc026kyzbYZGk7yG+f+ozDZtD6RZHqOVQBmI7U5PEEHsukRvFhwbxpJIyoK6WTjNJqzACaAFKjPSS4HwqdxTz/xgdsazCD4kzygut59NJYvOTgCnFWGs9Ubpy+m93bKzE1pvPOkUuZOsl1uJslxEVpRIUs4mKhw9XNHVdjKQXVZgAUt0gmBp/ldNQ44ul+IuO5vaSKIlvvtU9EFLFDNgasIXjyNbyWsJxGxYMg1xF2mXSVknHcmp+kcQ8nNVAGv8+Z2sTW9zbyeoUR0BE1/dv8QQJ7IQZAS+ykNBK/qCTLbODgkTxaJk1E6koJceHJo0sMm67KYo50WnvhncOiSBnQbFgTx4rK0FsAHEmKiWSo57w6uvmMvMAe6KoqIbvNetxcwmNIHnlNHGVMFHz5Fo9nNmFGwT1mKQ+tSsRP7o5CDIjWJ54p/hrAQntZIUdMw90iIS5O8vgSw0SlqriUShVAS3x0DAMqMKjWc7isGeufh5AWNeLK2ZwnKrUlpRzvPm5RkcjA97kx1X7DP7YXo7eA4pbA99fNIU5emIQYOK0/cYHW0VVVX0Nh84iarCTERUMeYeL8MzaRU1pOQZ0ePEKZOi6SYMdOMnvyxn1Jje47394eVV9MpnXGK1q/KCaeU/6EicaqEg5X1NOMO1HhUUwIdBuSi0M1NJFXVk5RQyutXRZ0Ds74eAeQEBlGqPPZ26waWyir12NQbWVDMXEgvxITgOJBsGsb+cc7AAWNzoVgfx88znYgDY1kFRZR0KrBPySaaRHeJ496dLWQW1hETr2eLgc3Anx8iAwOI9p9EEdENVBVUUZefSO17SounkFMiI0k4oyTowG1jYL8fLLqDbgHxTEz1u+kl7+OhlIOllVTY9ARFBrHtHDPwZWoVFvY8tkO0jstoDgzbfEqVvr2/1wyt1WxP7+UcoMzsXEJTPZz7vV/jVSUFpBd3Uy7zpvxcfEkeo6dW+7o2HeVpqp89pXW0+4cxNSEWMJPamYDWQVlFDUbcPQOZWp8OP79aqaBytJCDle1ovEIYWJ8BEEnjTx2UVdRyKHyehrNDnh7+hASEMz4QPdBnKcq7Y0VHKmsp7KlHbOjJzGRsUzwd+nHPdNARUkBmdV68AgmNSb8jPcdQ0MB2ws6iE1JJsF1MPdUDf6ebmjpxIyeuhYVGQIT4sIbO08aMfKorRz68lOe2Z3B0VZzz48dvcZxw9qJVNryxhW3SNLOlm9/is7SYo6ZARR8IqOIGWTaeWdtBs+9/ykfFDXR2V0UVnEieuJKfrt2GjGDLJxvbMzn7e1beSujjNqu06vNKjpPUiYu5IcrppPcV6DbkcNf/vU/PjytbKiNpYlP336GT09sFc/Etfz3+mkE9bFJfeku/rBhK3sau2uKOhCSuJhfr7+EFCc96V99yrO7M8huOWU8XeNKXNJsbl9xCXN8+vFdGevZvWc7bx48QlaDAXOv/6Vx8mPOvDXcszDebnlRVZ/Ls69uZENZu+3vdAQnXsbD18wmpi2X1z/+hDePVHNirRwdoUlLefDKeaS6nL1pvRnK9vC/nHYsgEPwbG6f5tfPl0yVhtzPeHDjHrLbbQ3ReTP3sut5aHYgTbm7+Ncne9hV3XFi33W+zFu6nl/Oi8JjYM0cYUbJvqt6vvnsVR7eU0Z3B7KjdyLfv/4argxs45tdH/P0niMUdpy4vhx9k/ju+iu5JuoMJ1JnKa9v3MDzOY0YbD9y8knklqvWc12kEw1FX/Hsp7vZWtbCyQVjNHgFJ3Hl0hVcn+jTjzU5jJQf3cNLuw+yu7SBtt63AcWJ8MR53LNmIdP6KCTQXrWfJzd9xifH23q+B61HLLdcex3fsbd/piKeffFF3qq34Fd4NS98OxXvAcflCo4OtvuDxUibQSptCzEctA899NBDw90IMQYZynl7w0v88asiqo0n3+DNhgYOZR6jyKBiAVzi5vDDySEDyJk3kb33cz4o68CCE1PnrmRZ8MCj8PbSHdz/wgdsrenk5FDWTFNVPkeUBFbGeg44d01fsoNfvvAOH5Q00d7XqLRqoKYyl11VHixMC8PDThVP1VDK5l1HKe133qqCg9941qaF4W5ve03pPPziB+xq7h1qq+jrCtnXqEPN/oBH9xRSabDTaEsXjbVFbD9ST1hyMnF9lh1VaS7exe9f2sAL2cep7jBz6uPdYu6gtOgI6cSyLNbr5B4GtZGPN77MswXtqL22qa8r4kh9Azu3fMrmcj0nn1IqrXUFfFXrxcIJoXaPpX3t7PzkHd6v7gLFlfkr1rM+1LHPcqwnN/MgD7/8GQfaezVE7aSsqJzjDVn899ODHNWbTt53tYPSghxKvSawMNRl1OZEjo59V6k6uJGff1ZAc6+GmDvrSC+vpzJrC88cLKfBdMq9qaOOAzm1BE6YwDh757jaxGcbX+RvR5tPumeYO+s4mN+IoyWbv72zh4ONJ7/QWlkw6Gs5lHWEcr9k5gf3fRzU9mJe3/ASv9uaTU5TB6f3D5hpqSvii2KYMjGWU+fUdxz/gl8+/xFfNBhP+h4sxkYOl5iZOn3c6R0Apiq27cog32ihU+9I2uxkIgfcaaJSdmQPn5R3YlFcSJkyhzkDGAkTQgwN6bkXQ89cz0dv/Y9/HmnBDDj5JXHdsoWsCNeRs+cdHvmqnHbVbHv4aYmPjsZtINtX60kvbbL+vTaEiYPIt1dbsvjrG1s51G4BxYnYiUu4a1EaMe37+O2LWzhsMFFw9ChFi8IYN4AHnNp+lH9u2MpBvQoaD5JTJ3NpUiIzY4IJclYw6ms5nL2bZz/NoMRsoTn/EDsap3GdnaFrjfsUfnV3EDl1bRhtNfdrMj7ir4fqMaMlad5V3Bp3YpBfo3MjMjysj177Tr7e9hm7WiyguDJj6Q3cl9LMf1/cyKeNKjWZn/KU7Td1njGsXXQJK8aFE+ZkoLzsGB/t3Mb7JW2Ym7J54ctSlq6KtvMZZioy3+eBTfsptHVZOvsmsGbuVOZGhxProVJ6bBf/+HAfxwxGjn31BdtnX8eKXjXkDSVf8uqxNiwouEYv5tFVbrzxwgfsae8iP/OA9ZcUR6JSFnDHwslMcDzOS69vYFNlF40523itMJV74/uX+KA2ZfLxMWuvvdYnjXXJ/V0voIuML3fyVZv13Jm4+Dvc7baLez/Iobmrkm09zQxg4YJl3Dg5Eufj2/n1hq/J72rjy21fcDD1CqaPyqVuR8m+d5WwcecxmiygOEVzy3dW4b3rBZ7IacdQmclH1lbiEpDCDcsWclmkIznbX+d3X1diaMvhhS8KWXxFPM6nbFafu41/H2lBRcFr3FL+eEUKNVtf5OFDjZibM3nmY9svaj2ZNGMR108ZR5KfE+31ZXy1fycv7iuhUW1i59Yv+VbKKibaeQKbGjL566ub+LDadhE5+DJzxlxWJUaTFOyBufYYr3/0Ie8fN9Bx/Cv+lzWbh6e4nTh3Owt4bsPnHOqwgOJCyuzV3Ds/gmMfPMVjRzowN+TzdbWZ1LBTbmy6YGL9FNBbsBjaaRlUuryF5vYO28rjTrg7DdXaI0KIgZDgXgyxLnJ2vMnfbYG9S8hsfvOdlcyxDR0HL19B1rH/sqHe9uTQ+JF2hvr29qhtxWR159v7R5E24Pr2nXyz9WO2NKuAlvApV/KXtSnWFBFjMKEOCocNFugynkjV6V/LqDi4iy1NKiieLFx3B7+e7HPSRebkHcaMEBf+0fPgNNN1ehdfDxfvMCZ7d/+rnc3ftNrmKQQxc3ISM4P7mUTSksV7WdYJyNrgmdw5L4pgbQeTAzV82ivtR+c7kQduXc8Sn+5j6krCuGRKD+3gfds+VlVXA9GnfUZr0ef86u39FHYBigup86/kwcVJhPYaVEmdspJbio/yywOtWIw15Neq0BPcG9h7INM6WVjxZPGCeUwMrGSXiwLdvcSKM8mXXMcjS+JsKQNe3LlsErtf3keNpZk9GUXcGz++P0eEhtyjZBgBNISnTGJCfwd/DHlszmzAjLW29w3zoompPIKHQk8vseIcwfXX3ch342xBl9dyvjfpKL/Y14zanMO2opVMHz/InK/hNEr2vT3vANsaVEAhIHUBV0cHkn/EBQ3dqV4K7hGX8PsblzDVdv4FLF/G8qMv836zhdqcDNJXxjOrdzPVFnbszaLGAmiCWbt8Hqk+WlpjAtEeajzRU6/1ZemVt/LARJ+e+5pn6DjmRx3i5X3Wf5ubqinqVJnofsq9q6OI5157mw+ruwAFz6j5/HL9Yub69mpI1BR+uLiY3a8eoN5ipLiyFjPdwb2Zgi8/5f06FdAQmHYFv1+Rir+mk7Jetwq7IbelE73tfULROXK2aTF2mRsorrONFmi8CPGR4F6I4SDjZWJImaq/4p+7j9MJKK7juPPqFT2BPQC6MCZGOvc8XDRuEQPPty8pJqc73z4iesD59mpzBm9nNKECimsiNy9L6sn91udns7fNAih4RUYPsGpKF0dKKjAC2pBp3JTmY/ftWesdTJSzAmjwjp/KYnuJ53Y3X0Zmd317z3Am+vd/x1vyjpJuANAQnZhMtBYwVZJb0+vNQhfCNd9e2yuwt1FrySjT9wRFbh6nZ02rLZn8beMe8roAxY0pS7/DI8tPDuytv2igqa3LlirghJtzr4e/sYgv8/VYAI1HPPOjHVH1FeT3VNxQ8EtaxW96Ansr56gYkhwBLDRWV/bziBg4mFdGJ4DGhxmJIf3IgbbqLMphn956jvjGJzPRUaWhovLEKsaKB/NXXc1tcb16U3EkNSbc2hNs0VNY2dTPTxtZRse+G0nPyafRYm3P9ORoXFQ9uZXNPQG4xiOJu68+EdhbmxnFpPDuSi/V5DWd0nXdkceeImuWvTYwkUsCtYCJ/IqaXik6OsbN+zY/6xXYW6mUlJTR/R6tOHng53jqddbC9g82sqHSGtj7xC7l0RuXnxzY27bV1tZGdzq7q/OJ+yldxbx3wHoPQhfOukW2TouOXHYWdFqvLfdwkgPs3DvMdZTZGqjx8iV0MNGB8Ti5dbaOF69AYvpRNEAIMfSk514MoQ5279hNphHAiUmLLmfNaQ8RBW/XEz1ozuHRA65vn1tcTltPffuIAde376osp6ALQEPYpDks6O49U1v54sBRGiyA4sX8SfEDLDOp4KjTotCFpbWS7AYjcQGn5x9ofWfw8A9DyWrQERMVTH9TUk01pRy1vXi4hscwvt9Xr4niyhrrA1/xYmJcIDrAVF9MVk9CsobwaSu5IdJOvoQujMWTw9m2s5wunwl8b+GpPeMGDm7/lG3Nqm076/jt/Eg7Eyc7yd37Hs/ndgKg9Y1heq8XFHNLNUW2/fOJS2SiI7TnFJNri8gUl/HctmoSIaceL60Lnk4KGCzQ2d7PQ1LNMVvag+ISyaTQ/h5MldrqGposgOLOtMRonDGyp7gC2/RwPMcv4e5JpwZ3oHNxxc02CKFv72c7R5RRsu9qC4U1bdaXd/c45kQ7gjGHwxU9JxKzlqxi+akvsWjxcHVCgwGVTlraredzt66aSoqsZaoIjI6zviCb6zlc2twzP0TrN427FkSels4DOsanTiYxYydHzT4sWr6Q2adcau2F23km0/oCovWbxi+unU+KnXmv+oq9PL41Fz2AxpfJ8f49D3JzUzm5LdZryD1+Ksv8NIBK49EM9nZYfx6QmMYUO5e5qbaKYlvPvaNfAOGDKFLQUVzE0S4ABY+IKCkpK8QwkUtPDBlzYzrv5bRZc5j9pnDLNH+76TZthu6e28Hk2zdw+Bzz7Z1iZnDLTCP7u4JYOe/E4lfmxsN8nG/t3dIGTmRVzEATgx2ZkppMQOZBalqP8pcn/8LbUTGkhYcSFxLC+PAIxvm6oAOcvMOZ6n3WDfaiUl9aQpmtvv246IHUt9eROG0R69pyaPGbxNVROqwTX0so7o5KHKO5cm50H9t0ZtKSO3n3EiOqzpHTOhybD7PhsDUtQeMxge8uScBLo2I0GGjr0FPdUENeaRF7j2Tx5fFWayCo8Wbxknmk9LoDaX3TuH5BLZ/VOTNnfgKumNhfVGbLyNEQM2MRy+2V71CNtHfPsNX075amdtZQYhsR0AYEE9/vO6GG0LRLuKE2nTLnRK5NcAJTPullBlsqQiBrFk2yO+9BNRrosDVTpxuNqwqPkn3X+HLpJQsoTa/DPXE+s5zAmF/EEVtXtzZwBjdN8rYzbK3SYTDaAnUNDtqTU0ocwqZx06w2vuzwY9m8KBywTnzN7Bm2cGTi7LlM7OOW5B6zhGd+eQkdFh0uutMuIrbsOWxd90PxYOHSJcxy1WA2GWjv7KCxqYHiylLS846wPec49dbcPIJSl3B1xImTV+tnu4bqnZk5P83aa6+28kVGgXXBP40vl0yMtvPyodJ6/DjlqnW7MWFhg1gU0MCho90jJk5MTIiVNTiEGCYS3IsholJ3NNvWa68hbtI0JtiLjdVOqpttlVA0fqRFew043777Yar1j2bigPPtAadw1qy+hjUn/dBM/sGDZJkAdKRMmTqgibTdPBNX8KtLm3loWwH15jaKCrMoKsyy/V8NHv6xXDJpCmump5J0ar7tGXWRXWKrb6/xJy3KY0A5dc7BU7j76iknbS+z+HhPj6t34kyWnWUIQedo9wul/mgWB201AVV9Fn94LJvfq2bMfcxXUBwDWLLyGu5LPaUSkcaH+UvWM7/73+YKDpe1Ws8VXSQrpobaTZ1R25qotfU4ajz6t9i92qanO+vCyd2L0zpxz0Drk8xt65N7/m2qKCa71bqzjpFTWGl3FEClsamZDgAUfD29+v+BI8jo2HcNIclLeKCnmWbyisuotwDomDBlKgl2m9lGdXN30rkHAV6n5Is7BrNi1dWs6PWjzpLukryguCWydpLvme9nWkfsFdlUW4+yvdB2EVn07Nj4GDs3qJjUPi8iotJW8tDa1JPLyZ56DQFqaw5f2LrktX4pXBpub+d73Q8ULxIjTx99ORtVf5SPj7Ta0h3Hc2nCAOvSCiGGjAT3YogYOFxky/XUBDI7McD+yWUqJdM2PK5xjyAtaGCPkM6SYo7ZhsZ9IgZf3/40xmI+OlxjHRFwjmfFaTmz/aRxZeKim3kp6SibD2Szv7Sc/OpGGrpUrCUb8/loSz6f7D3Id6+9lusjT+9Ds8tUQeZxoy0fPYK0U2vfDZSpgsPlth5XxZN5kxIGWX/cRGbx8RP1vC1qHxOENbh5hzIlaTLr5k5lqs/Zc7HU1hIya20vciEJzOkjAm8rKaHA1uMYER7er1ZbOjuxJocouLmeS2lGlfqSEkptnz8uIfH0tCEADGSWVNkmQ/uTFD4W+jRHyb6rrWSU1No+P4RZiX1c24YSMqu6Ow7CSTrrIk69UwQVApImMXOQ8ayhtPu+BmDBbLY/y17r5E1CXBLLZ81lVZxPP3rXVRqOHSXTloYYnpTMOHs3ZlM5+0qsVW4Ut2imhg00NDBTsv9rvuqwYB3hmc5sie2FGDYS3IuhYarmWLVtsqdbGCl9BJ/t+Ud76mM7h8cMIt++zDq8jCPJMRGDW5XUjtZj+9nRZMv3Hj+ZSzzOImcfGQAAIABJREFUZSKYBs/gFK5ZlcI1AKqB2prjZBcX8HV2JjuK6mlvyec/b31O0g9X281/PZW5sYQjtq5m17AYEs/xyjU3FJPV1D15LpFL4wZ5JNVmjjfaQnutH/NmpxHvqKDRaHHQOeDi4k6ApzfhwSFEeToOKIhuL+3Ot9cQHB5JsN0/bufrI0XWQF3xIDU2uH8bV5SetmiVc/mujWR155xrvEmK9LYfOLbnsqvIepw0HlFM6WeVo5FtlOy7sbQn317rHU5KHyszNeceId06MQW/qFhiz9bM3imCihdz0uLs9sqfnUpNfaNtZENLeNJsLg1xRKNo0Gl1ODm54OPpSbBfMPEBngOsYmPkcMGJieMz+5g4biw7yn5brr5XXBJTB5iTo+qzeenrcutLvlMM354TNYi0HiHEUJHgXgwNi54GaxcWiocXAfYqoKnNbN1/xDphFS3joqNxQ6Ui/T0e3lkKkQt48IpJhPW5skvvfPtQ0k7Kt1epzd7M77fkYwiZy/1XTu9/r77azPaDx2wTBb1ZMLVXL3ZHAc9v+JjtrV4sX30VN/SV42820aXocLDXdo0TAcGxLAyOZeGsBVy1+xV++Ekh+oYjbClawZR+zIzVl5ba8uO1xMdEnjZPwdyYwRMbtpGhieGm9au59Ix5JipNPfn2Cn7xiUwY7J3A0oXR1uOoOEexcskS5g1JlUMTOT359uDr7WX3xcBcn86HedYeR61vCkuj+rcjGmfnnnxgfWfHaQtt9b+Z5SdyzvEg0MteK1WOp++zTWjUEJoykdSxcOcdJftuLD+Rb4+HN4F2m1nPZ/vyaLHlpS+YGHXWjoPeKYIaj3jmRg76IsJo6rmISJ26hNuShqhUqKmS7IruieNRTAqx10YjB9Ozbfn+rkxPiRtgrnwHB7ZtYWerBdASPeNSVsrCVUIMK7kCxRDqnjHniL3FHfWFO3gtr9M2+c6P1ChPNOYqPt51kKyaGrIyj5BzhtVYT863jzo5316t59Nde0mvqeVodhYZvZaUPxtzfTofF9hK3PmncllU92NdpeLQdt7IraSkMpetefWc3jwz5Qc3csMfHmL5I8/xQrHhtN84mSORMZEEKoDFQLuxP+3sIrukwtb75m89br3/t9rG7q0f82FpLcUlmeypONuStiayulNpbFVPBt3LprjiYStnaTG00dLv1XTPwlxzIt8eBScHOyvHqu3s2b6Lw9a6fyRNm9HvkSCttz+hjgpgoaO5icb+ny4nMdWcyDlH0eFsJyJU24/y4q5ia8+sLpzLZ0SOiV7N0bHvZkp68u1B0TnYnUzafHQ7b9jy0h3Dp7Em8uwn0olUGgWf+ETSBh2PK3i62MpZWgw0tQ/VRQSoLdTobS8gvv7Ye/dVmzN5P9t6rWn9JrF2fD9TBa1/TUvuZzyxr76nys/dC6LsHGMhxIUkwb0YGoob3rYcVUtLo7UXqBdVn8Mz7x+wLlAEaNwjmRikxdxcyCFbXrVDSBRJZ+j86jpeTr7tYeoXGXNSz7ypJoMdtqF3XXAME8+aL9vNTOHhTFvdfA3xaZNOTLYzHefD/SU9Q9pT4gNPH+rqyuN/nx2m1GDB1FbCR+llJ/LP7eok81AWJSqgDSAuqB+9feZqssrbbDWqI0g9KeVJpbVwG88dbkEFNJ4pLD1bio3pOIfLbC9ZTpFMjT6H5CaNO3GBtsm95goOn/XlxsrYWMwXxyr7XAWzd749WKht7LVIkPU3qMv+kH/a9lvrP53vzgzo/zwJXTDxtuElc3U5OV39/cOT23Ai5xywtFB56luC2sLODzezxdolTOT0pawN6P9tV20vYcPGZ7nuj79nzRPP82RG7VnOrwvl/O/70DSzV7491ntT1WnNzOYfmw9TawE0/qxZOpOoszbTxLGi7hRBJybERQ8yJQdAg09wIH4KgJnc4mL6VSzU1EhG9jHy28/wZmpR6T0n9/Q+FwPpX+y05co7MnHWLJIHMABhbjzMX97Zb62y4xDMlVcsZbrk2gsx7CS4F0NDF0xSsLXrSm0pYl/lid4ntb2Yl994mw/rT4RnmoAQ4rUqx7OybYG1juSkRLtl9LpZDJ22cnoKft69VrVVm9i2fT/5ZkBxZurUSUT2+8w2U1RdZ5tsF8DMxO6a0R2kb3mPjdXWVS7d4+Zypb1hd5Oe+p7VUz2YGB/Sd66buZVDO97k99/UYUbBI34ay/qzgJWxmkLbir6KhzcnUpZVWst28esN31iDLMWDS5YtZuZZus1659s7hsUy+Zy6UnWkpCTYRiJa2bHjCzI7z/T7BoozN3PP0//l/15+ijs3F9r9rRP59gAq5QV5lPb6d2PBFn71boY1UNP6cfnKxUwayH5ofJk9LhgtYOksYk9B/15KTtYr5xxAredAXt2J0R1Vz4Etr/HnDGsqmc5vGnct7qvcqB1qA+9veJl/pZdS3tZJU10BG9/eyGtVZ1jS+II5z/s+ZM08kW8PYK4vYG/diX+r+gL+89q71lWl0RI+bSU3R/fjRFIbyOhOEdSFMTnm3MYjHCNSmOVlHUmqz9rBayVnvIhor8nkX88/zY9fe5nbn9nMob5eTrW+hNnSpdTaUtJbe78IqFRlfshfunvd/adx05SzVPvp/dftBfz7tffZ2aJa03mWX8X34iSyF2IkGAuZn2JEcGH2xER8jx6mQa3hnffeJ3jJBPxaivho91d8WX/y00etzeezjE4Ofmnt6VZcErj8LBVqdEFBRGiyyVVVju1+i79o57EwRKEwYxevZFt7cB2DZ3HzZHs1rPuiwdPVBQ1dqJZmDqVn8GWzhdzDX/B6Vi0GQHGN5/ZV0+yv2OgQRKyvhq9rVbC0cXD3hzzbGEdSoC9+LjowG2lpqSOn8BhfHiskv9VkzQ/3TOHHq6ee8WXmxGf4EOyhQKMFc3UGr3wVwFLfLkoKDvHWvgKqTQCOxM9Zz31p9nPTT7DWty+yVTiJjYnt9yJafXGOnc93xmfz55w2Osp38rOnK7lsahqzIn1xV1S6ujpoaG6krKqcw3m5pNd29Kx2a+yyF5WcnG8PYK7cw6MfeXJLoguV+Xt545t8qkyA4sqUZddw13jXAfZUaImakMy4nRXkmPXs2Z9JdeK0/n0fPc3snXMOoJK3ZxNPel7KHJdG9u3dxbv5Tdbz2zWWO65Zwex+jyiB2nyUrYWdJ88HMFVxIL+Fm4N9BtDQ8+A87/tQOSnfHkCtZMOmj/C/NBGPxnze3/UN+5pMgIJX7DJ+u2I8/amuq7YXk9GdIhgUw5RzmoAPOMZy7aLx7Hw3hyZjOa+89DR5k6dyaUIkoS4KZlMXrfpmquqqOFqcxzdFtT2jXhpTF519dd7rwliU4s/bO2swdR7jqVc20TQvlRR3A3nH0nl33zHKzYAuiHVrFvf7RV9tL+KFV1/njQojFrSET/0WD8wM6vcqz0KI80uxWCyDnksmxEnUej743795PEfP6c8aDT4xc1nrkcXLGaekWChOTFjyXf6+0H4d8xPbb2XXu8/xmwP2ct9B4xbHD26+katCB/aI6Sz+hDuf30WhnQ5RjUskN1x3I7fG9hU8qtTnbOZnG74m39CfS0nBPWQqP7l6FcvsrF5rn5niL1/kB5sLbWkApzbSjbT56/ntkgT8zhpjdLH7rT/z4KE2LBp/rvnu3fygn5NQz0RtK+CF/73BqyXt9KtfWeNM/MTl/GL1DMafGlCYK/jv00/zUqUKOmfclU709t4BtN7MW3Y1v5wTyaBiK1XP1g3/4HeZbVg0Plx+/fe5L9Gt3y8Jpoot3PH0dvJVcHR2RunsxF7/v4N3EndcfSXfjhxgyc32Qzz4+FvsOqkTV0Py0h/xzMKAgWxpyJ33fR8SZvK2PM0d2ysxo8PdWUHfafdEIjhpGb+5cg4p/SxFYzj6Ft/+3yGaLBoi5n2XF1dEnXtgq7ZxYNv/eGhnCc39mgOiwT1kIt/71mquCDtDVN5RyLMvvMprxw32J45rfVi05iYenBbQr+pjXQ1ZPPn6Jt6rMGBBS2jqFTy6fqrdfH4hxPDQPvTQQw8NdyPEGKG4Mj4xDt/WSnLrWmm3VWNx8opmxaXf4leXz2De+Ci8GorJrG23ldBzI2X2Oh5aEounvQo7J23fiaiEZCa4GKitr6OqozuM1BEYPZ0fXbOOK0IGnj+u845mmr+B/NIqqg3d3WEuxCbO5SdXr2NduLOdXNWeRuHqn8DSxEAcu9poaNHT0mXn1cbRk5ioZNYsWcv/rZrJBPeBlAPU4B02ngmOjeSU19Fk6k4DciIsdjI3rb2Gn04Pxf1sxw8AC/rjh/msuA2H0NnctTiO/mQGnY3i6MuUtCSiLS2U1TXQ0HV6GKHoXAgJimBy0jRuWfttfjQzmgB7E/xasnhl6zEqVXCIWsY/18ahrzhOaZvJVpffkZC46dyx7kruTAvEuV/7bbfRRPqrHEwvoMbUSX5RLf6JExjfrx5mldqsHbxwrBEzWlKX3cHP4zrJPV5Ho+37URx9mDZ9GfdfeRmXBtqZEHw2DgHEujWTXVpLU5fFtu+uTJm1mEsChrOU5gXY9yFpZgs7dmzlq0YVtFHcccdapnZWcKyuDaMtvc/FJ441y9bxy8vSiHbsfystncfZkl5MozaU9SsXM3Uwi+mdSnEkNDaNeYEWauvrqNB3nd5Joujw9AkiKTaJVYut95KJXmeJqh18mDIhjgBDI6X1zbR03z/Q4huayk3rr+EHE3z78XJiouLo5/z6tY/ZUW8CdERMvpLH100mQgJ7IUYU6bkX54epnbKqOtpd/Ij2ccPp5PIutDdWkdtoxMMvlDivQUzoVI00NjVQ3mLEzTuQSG/nc88xUw3U1ddQ0eGAv78/oa6D2KJqoqW5nvJmPW1GM2gd8fT0JtTHG4+heAB26SmurKXJ4kJggB/Brg4D7xFVOyg7XofiH0b4wIpm94+5k+q6Gir0Roxm0Dk44OrqSbifT7+OgT7jda7akIXeoiF24ff4z9JwdJhobaihuBX8AgIJdtUNUU+wmeKvX+XHH+bSaAHnoBn8342Xc4nP2YLnTra+/md+l9WJRRPEjd+7i9vDtWDqoKKmhno8iAz0xkt37q1U247y52de46MGFY3nVP74k3XMGdZyOxdu38+tmRn8+s8b2NFpQRu0kKfvWkqiFro6GiiuacXiEUC0tyuOg2qmSmvdccoUfxL9zseohBl9Ux0lDXraTWbQOuDs5EqAnx/BLudwI1FNtDTVUdJswNkrgGhf136NOJj1Jbz32Yc8f6jCmg6kuDJh7pX8ZvmZ50kJIYaHvG+L80PnSkR4ZB//U4OrTyiTziVtWOOIj28wPr7nsI3TtumEf0AE/ue0DWvPWrJP0FC16mQO7kRHup/bNjQuREREDE177NE6ExQUSdCgDkGvfHvFneTIINtNSoeHbyipQ/l9A9a63N/mN80v8sCu47RX7+Wh/3Rw/3evYtmZ1grolXOucY8gtXulZZ0LoaFRhA5V8zrL2LjxPT5uUEFxY9bihcwc7jqaQ7Tv5oZ0/vzaR3xe1Y6dgZ4zUrTORCYt53dXzehzPYsT+fYKPhGRPb/n4OLLuKhzPZE0ePhHkHyOW+mbFnfvIFK8h/g+otHh6Rs8oOvIVP0V97+wmb22ybha1wiuWH0ld6YFSMlLIUYoCe6FECNH7/r2jmGkRVyAKXoaV6YsvZnHnDfyu6251LTWUtpmgTO8fPau8e4cFkXyUDdTNVB67Gue/3wn26utuc3hk1fz06n9r2ZyvgzVvhvLstlW2c5gqpBazJ2UHM3kUNs0YuymxPSub+9IYlTEmFhbYDiozdUU6VXQuJKQtoDvL5vNVK/hPguFEGciwb0QYsToXd9eFxxF2oXqGtS4krbgJl6bXEV+pwcJgWcKXnrXeNcSFxV92orB56K1cBu/3bSL/Y1G60uO4kzCtDX85vLUEZACMXT77pQwnzumGtlW1YFxQNmhCorWicikhSx07+OA9K5vrw0mNVr6mAfLMWEVT31/Ig2uYST5nMOaGEKIC0aCeyHEiHGivr2GsMgoLvSaR46ewSR7nu23etV41/gyIcpzCHvTzVQUZHHAFthrPaK5avU6bk3xGyE9z0O37xqXSNavu4X1Q9i6Hr3q22t9I0kbigmvFy0HgsJiOE+JhkKI80CCeyHECNE7396F5KjgkVk3u1fOueISQVrwUN5GtYybt477dTnUuEeyIDWeSOcRFJie130fOr3z7T0joogbmc0UQojzQqrlCCGGkUp94TdsyKik2WykNC+LrFYLKO4kpSQQ7aTg6BbOsnnTSHUbxiBXbeXQN3vYWtlOl7GWvVml1FtA4x7OgoRAXBQd3uGTuGZaFN4jKBYfEqNk39XWQt7Zk0F+u5mO2jx2lLaiouAbnsLMQCc0OjcSJ81jdVT/1zIQQojRSIJ7IcTwMZXy1JPP8UbdmVbt0TJ51b08Medsq++eP12lH3PLc7ttueZ90Mbwo3tvZb3X2AodR8e+m8j6+Enu3l13xkXUdDGrePPWORc83UsIIS4kGawUQgwfjR8zUsdxMKvOtujZqbS4eUdx2Tj3Ye1t1fqNY9G4QnbUGewHj1pngqKmMKOvCZ6j2OjYdw3h41KZUZhFmcH+W4jO2Zu0KeM4U4VTIYQYC6TnXgghhBBCiDFC+jCEEEIIIYQYIyS4F0IIIYQQYoyQ4F4IIYQQQogxQoJ7IYQQQgghxggJ7oUQQgghhBgjJLgXQgghhBBijJDgXgghhBBCiDFCgnshhBBCCCHGCAnuhRBCCCGEGCMkuBdCCCGEEGKMkOD+XKktfLPzXf704TdktavD3RohhBBCCHER0w13A0Y3EwW73+S3nxejt2godo/h2YWBw90oIYQQQghxkZKe+3PQXrKdP20rRm8BNF4khHoOd5OEEEIIIcRFTIL7QVLb8/n3pl3kdgFoiZy+htvjnYe7WUIIIYQQ4iImwf1gqC18sfkd3qszA+AUOo9fLE/AU46mEEIIIYQYRhKODphKxaH3+Vt6E2ZAcY7mlnWLSXUa7nYJIYQQQoiLnQT3A9RV/RWPbc6hwQIorsxavo6rQmReshBCCCGEGH5jK7hXm/lyy2v89OUP2dpwHspSGst4ZdMWDnZaAA0BEy7nvml+UnJICCGEEEKMCGMquO/M28bjO7I5kHuI3RWmId56Bwc/38Rr5UYAtH5TuXd1KgFj6ggKIYQQQojRbAyFpibyCoqt6TLaUFIjhrI/XaXx6Mc89nUNRgBdMFd9awVz3MbQ4RNCCCGEEKPeqIxOVWM7TYZT0m7UFo6UN2IGtMFxTPE4edc62/W0mgf5eU0ZPPH+QSpUACdSFq7j1hiZQSuEEEIIIUaWUZYurtJ07BPuffNLCjUhrLhsHT+YFoI7gLGMrGozoCE8Jo4wW2zfXpPNhm3beTu7CnP8FWy+afrAPtJcy7vvfsTOFgug4Bm/lPsvCUNCeyGEEEIIMdKMsuDeRPqhA+QZLEAFH77zbzLyl3L/mlkkVJWSawAUD9Jig1Eb89mwfQuvp5dRbwZQ8HEaaEjeRe6uTfw7vx0LoPFI5odrZxKlHer9EkIIIYQQ4tyNsuDekRkLVnJ5wyd8fLwdM0ZKMz/iJ+V5rAprosYC6NzQZ7/Cdw4XUNll/SuNsz+zZizm9gVpA/q09uJtPLK9lHYLoPHhsjVrWOYzKjOZhBBCCCHERUCxWCyW4W7EgJlbOLhnM0/syKLE0HfztW6hLJg5n+tnT2Cc68CCcrX9GH995lXer1cBLdFzbuJfq+LwOMemCyGEEEIIcb6MzuDexlB/hJfeeZfXitroPb1W4xrGZQsWc/30RCIGkxyvNrN147M8nNGMGXAJX8QTty0h2XGIGi6EEEIIIcR5MGpzTNrrcnhn15dsKW/n1OWq1M4G8qubaOoazEJWKscPvMffM62BveIcw23rFkpgL4QQQgghRrxR1nNvprE8k0279vDekQqabLG7RlFQLRZQNGgsak+wr3WPZM2y1Xx3cige/XyNMVZ9wX3PfUZ6pwUUd+at/R6/n+aLzKEVQgghhBAj3ejpue8sY+Nr/+DaZzbyUpY1sHfyjmXdmuu4OdoaejvGLuPxddNIcFYAMOtLeWfTM9z22l6K+1Pj3ljKy29vswb2aAhKu5x7pkhgL4QQQgghRodREtyrlO3dzDPZdbRbwNEzistX3sLLP7mNn6SZKKi01bePiGXi1G/xr+9fw1VRbrag3Ex1ebltAaoz6WD/p5t4vcJaYkfnP537Lk/Bf5QcISGEEEIIIUZJKUwNflGJzIpywH38HG6YdWKibGdBAVkGCyhujA8PRAfo/Cfww1vDmb7rU17LN5M2fzEzHc60fZX67M38eW8tXQAOoVyzbjkzB1hhRwghhBBCiOE0SoJ7cI1awB/uWHDKT00cKyimyQLoQkiO6JVAo/Nm5qKrmbno7Ns2Nx7irx8colIFFGcmLlrHzVGyBq0QQgghhBhdRnfXtLmOA8WNmAFtQDgpLoPYHVMNmzZ9zO5WC6DgNW4ZP58XghTHEUIIIYQQo83oDu7Veo43WgBHklInED3gma9Gjn6xif8UdmABNJ4T+PEV04mQGbRCCCGEEGIUGjVpOXY5jOf269cztSOQuYnBA94ZfeEWHt1ZRgeAxo+VV6xmsffoft8RQgghhBAXr9Ed3KMjOGYSKwfxl6r+KE+98xWFJut24uZ+ix8kuo3yoQwhhBBCCHExuzhjWbWJrR+8z+YGa31M14iF3H9pDO7D3CwhhBBCCCHOxUUY3Jsp2/cu/8huQQUUlzhuX3cJ489YKlMIIYQQQoiR76IL7o0Vu3nk03yaLYDiwfyV32JtoMygFUIIIYQQo9/FFdyrTWz+dAeZBgugIWTyGu6Z5IOE9kIIIYQQYiy4uIJ7dLg7O6ABXELm8ouVyfheZEdACCGEEEKMXYrFYrEMdyMuKGMjWUUNuEXEEOMqkb0QQgghhBg7Lr7gXgghhBBCiDFKuq6FEEIIIYQYIyS4F0IIIYQQYoyQ4F4IIYQQQogxQoJ7IYQQQgghxggJ7oUQQgghhBgjJLgXQgghhBBijJDgXgghhBBCiDFCgnshhBBCCCHGCAnuhRBCCCGEGCMkuBdCCCGEEGKMkOBeCCGEEEKIMUKCeyGEEEIIIcYICe6FEEIIIYQYIyS4F0IIIYQQYoyQ4F4IIYQQQogxQjfcDRAXmfZCPnnm72zMj+T63/yUxUEX7v3SXPIBf/zDezRPvIEf376QCMcL9tFDzIy+NJ3dX+ziq4PHKKttRG90wCfhMu66/3rS3Ia7fUIIIYQYLorFYrEMdyPExUGf+Tx3X38PL2c1o+LEsqdK+PjOoAs0fGQm549zSHtwL12KFt9pd/LUq3/h6gTnC/LpQ0OlZtc/uP/+v/D6V8fpPPXK1Ubzg89y+Ndip2FpnRBCCCGGn/TciwtApXLzz1l7wxPsa1SxKK6MW/swD10dcAHzwrQk3PYn/m/nTfzh83Ia9j3FjYuLqHjnDX463eOCtWLwVKre/R4Lrv0vud1RvaKgc/EhKDSEAC83PKLW8O3JDsPbTCGEEEIMqxHbc2/SH2ZraRZVxi4sgIIOd9+5rIiMwfW8feYBNhceRQlcxsrgQLT9/stmCkp3sq+xkU47h1NRHPENWMTy0BBGbSbIoKnUbrmfFVc+zoEWFcUxijV/eoPnfzIL3+GY8WGuYuvvruP6P+6g2gRa/0v43Qcf8sAs92FozAB0buWupOU8VWxG0QYw49YHeOD7V7FkYiiuMnNGCCGEEDYjM7hXC3ni5QncW9LBSY1TUrj/toP8KWzoQ2RVv5Fb/nM9rzR3gSaWW7/9Nf9O7F/Pcmfe7cS//h+On+FIKrpF/O2uLfzI++KKxIxZT7BiwX1sa1BRHOO5/oVPeeG62GEeMuok+9/XsfKH71LaBQ5R1/Dizle4Lqr/r3MXmnHPvaQu/Cu5Jg2+618hd+N1+A13o4QQQggx4ozMSFNxIdgzAEeUk39uqaaiVT0vH2ksfZcPmq2jBBa1mA+PfYOxn3+rcQklxFF3amtPYjFXcVxvGoKWjiLte/njbb9me4OKog1l9ZPv859hD+wBnEm541Xe++Mi/DQWukre5PvXPcIBw3C3q2+W9jbaLQAa/MIjGA2JREIIIYS48EZocB/CtetK0N9fTdW95Wyfk0p3JvH5GmZwCJzKRMfu8NyTtJBk+pu97Bj+W/b9opWG+6qovLey138lvJkW2pPeM/KGSM6ndr78/R08uk+PRXEg5qaneO67SYycqZ6uTLrnZf55VThaRaXlq8e4959HGbGvX6ql5/zR6Ib/9UgIIYQQI9OIjhJ0TgEEOZmougDBjNb/x7xxvQf/OpKNEnQ1d02MHUDOPaA44+12auUVA566M/Xnj13mY8/yf//KoNMC2ujv8Pc/X0HgSHuV1IRx1V8f490vbuTNihZ2PfobNtz4BteNuIYCvbLnFOXiPKeEEEIIcXYjMIoZLlqCIm/nd5f9jd9Onj3yAtFRpZ2dT/6LXa0WULxYfN8DrPAd7jbZpwm5iod+Mhs3BdS6D/jn88cwD3ejzkJCeyGEEEL0RUJYMfSaPuS5N4swAdqw9fzk5gGOglxQWhJv+xFrAjRg6WTff59h9wjOvRdCCCGEOJOhyXexGGhoLqCsowNTr8RyjdaDIO9YQp1O/hjV1EBZYxkNXSZOTI/V4OAYRJRvKF79euUwUl+3n701+ZTqW1CcIkiJWMAsX+9+BZKmzgoKmqvRm0+ZoKtocHAIId4/+LyV3DwXna37+bzgK440VdKouuDvHkVS5DKWBAePmHz2xk/e4rMGFdARc+V3uLTfK6aa0VcVUFTZilEFNBocPMJIiA+kO+HJUJXBrt3pFFa1ovEJY9yUS5ib5HtuJ7LvCq66LJA3X67CVPQBG798jAWLRsrRFEIIIYTovyFaasCUAAAgAElEQVQI7o3s+nwiS746Zre6jOK4iCfu+Jwf+9lCbvNufvHMpTxeb7QzwVTBM+pxmm/+6Rk+r5OivCf41fZ/8FZlFb07WRXFm+Tk3/CfVT9ilkvfbwjm2r+y9L8/Y4ehr8o7rkxbuJuvFkweMZMSmmve5NGtD/F03jGaTqte6oBf0DruXfIo98RHDXOQ38nXW7+kWQW0wSxeMbOf7VGpfPnbpN3yDnW9vxbFldl//IYPVqTz2K/+yL8/zqGp1xukonEhZNp6fvqnP/GjxWGDXEfAnUtXL8L31depM5ezc0smpkXTRsx3D5yUcy+EEEII0ZchSMuxYOjqpM8ClWo7beZegYnFQLup73KWxq62M3xWJ4e/Xs6M1x/kf6cE9gAWSxPZ2fey9t0XKDpDxUyL2k67+UzBUge5Nbn9LoV5frVzNP0mZv/nWv6Um9MT2CuKC+667vKbXdRXv8mDr89l3dcH0A9nc0157D1UgxlQ3KYzf2Z/XzUstDc1Yzj1a7F0kPH8DcyZdxOPfXD0pMAewKJ2ULH3FX6+fCor/rCbhkFWSnWbMZNUnQKYyN+3j9rzU3F10Drq67FWgVXQOegkn04IIYQQdg1B56QTS5Z/Q3rqQd774np+VdCEY8TPee2Shbhq3An0nUCad6+P0V3KX2/P4qbaMhpNRsqzf8qd6bngcyP/uvwHLA6ZfobP0pNRshdQcHCdzo1zfsZ34meS6uVEdfkrPPjRA7zb1EV13iP8vewG/hZlP7DUBT3AZ3etIqOhhjb1RLBo0W/ivg+e44gK6ojoKTVTknEry9/fQJnFgqL4MmnCPdw3ZTXzQ1KIcDTR0LCbN75+mEcO7aTMfJyPP7+an/p+w7MJfsMTABrzyCuyTknVRSWR2O+FX7XE/eg9si9JJ7daj6HkDX5y10vkmSy05R0mFwWtTxrr776ba5fOYUayPx35X/L+C3/lsf/uprKrmm2/voKr3L5g809SBtyDrwmaQFKIhu0lZkzFueSbIGRELCes0pT1Gj//82e0WgCNP1Omjx9ZowpCCCGEGDGGJkbQBZESuQxd9HgeKvgas0FHZOxlTO0junRyG88Mt/FAJ+9lNqKi4Ba0jKtjZ+F11g/T4B1+P29f/TsWu5/IrveNv4dnFuxm+3vv0WQpYVtBJqaovlIr/r+9+46OqtrbOP49M5NGAmmE0EPvVXpRigVRinRRAcH6IirWa+8FuciFe7EXBERpgqKCgCBIEwQh9A4hQEIS0ntm5rx/BDGQQoA0huezlmthMnPOPjsTePY+v7O3BV+/1lzvd/5XHWe2U6Gw11wCHGc+5P4l87ODvaUed/X7ic9bNuSfBTetBATeyNjbu9On1r10/242R51HmLHiPUbXmUjnUkiAzqTTRCVnT3tbqtQk5JLa4EONVl2pAdhDN+JzblkYA7faQ/lkyVeMbpRjudH2dzC+fV+G3Poove/+mJ0psax6+UEm37iG55pf4sXbqlIt2AJhDhxREUTY4TJrfK6Ag1Pr57L4ryiSk+I4ffwgu7asY932EyQ7TMBCxRuf59k+2sJKRERE8laEk7tWQio1JgCwx+1mT2FqWpxh7D0TjxMbdSo1ozDPXVo8buLtgecH+7PfIaByC0IsAHbC446VkbKayxXHz+sm8luGE/Chww3zLgj2OVmp2WQSbzQKxIJJ1pnZfHa4dIpzzOTkszupGli9fYrkoWTDrSHjpn9+frA/x0q1/lP4+qXOlDfATN7EtEk/EnfJJ6mAj3f2aMJMTyEl60pbfRkS5vF4n3v4v8ee4JkX32DSJ9/yy9bw7GBvuFGr/2R+nvcITTRtLyIiIvko0soN90rNaGgB036A3TGFiNbOfeyNcwDeNKxUrxC3ESxUajSWkf55r4dj8fQ/O/NvkpaRXObXKy9Q2hJm7D2FA7D6jeDNTq3zCfZnGcH0b3YLAQBmFGuPbC2VwY1hs2E9O+PutGfl/yzGJbC1GcVDXQuq73GnxbgXubOGFXAQsXg2S+Mv8SRmJlln6/kNiw230gjQXrVoUrc8lrwWsjftnNzyM8t3xBVJn4qIiIhrKtJwb/FpSiNvK5jH2B2dc+Y4lWPHv2fu3tUcyJE4HfF7OZDuBEs9mlfyKsQZbLSo3ol8Y55hzbEMpnlVh6DUsOWszTi7nGTDO7mhECUi5Sq3ouHfdy6idhJTCo8NWCpUwMdiACbOxHjirviHYMG7dn1CLra+qU8PBvaqjBVwJm1k1cZLXKzejCc+IfuPhnd5ct0YKgnunXh9SzSJZyIJ2/8XaxbP5oPXx9K3mT82wyTr5ApeG/4I8yKv5k+2iIiIFKeinZ+0Nqd5oA0jKZMDUXvJpAvuODm1YyQdF33HaSwENvyCHcPupaoBWTF7OewEi1djmvkVJk15U7FcWaqKLy4OIs4cInvy2c6hTd3w2HRpRzDTY4gxoWpJb2daLoSQShY47sARdojDWVDzCtfmtNkK89lwp2XLRlg5icNxhvDjiUBQ4U+SeYTD4dn3eqzValGr1Epf3PH2D8bbP5iaDVpzQ9+7GPvCs8wb3YO7Zx/FHrGY6d+fZujDVbRijoiIiORStPnACKRZUFUsOAiP3kMCgHmaH3f8QhQATmIPTWdOvANwEBZ9gHjAWrE5zQs1U2rFek0kGpPUrCvZJtXA5lUR/5IO9gBuTWjWwA0DcEbsJrTEZpktlC/vc7akxUliXNwllWXZ929nd7ITMChXvzG1y1Jduy2E/sN7UskATDunjp+4qu9KiYiISPEp4gjjRpPghrhxlKzYXexxQLeMFfxyIhUTP/w9EonL2MIvhyIZ3y6QvTGHcGChcsWmVL8mQnthWQgs53t2DXsbdRu9xOO1AylcVjcwLBVoXHcINUoj3Fsq0blTQ2y/hpKV+RerV8cxflTgFRzQxG63F+J1DqKjz+AwAcNCeV/fQvYXgJOTa9ay3w4Y7rTu2pkytx6NxYJhAJg47A6FexEREclTEYd7C35BTahp/MLBxD3sSXNy3fFfWJdhYtjacmvtUObui2HzkVXEt2nP3jMJOLHRoFIz3Iq2IVc5CxWDW1DTWMUh00GMswZD240huDTC+iWz0eS2W6j3bih77cms+f4nTo8YRfBlD95MUk6EEeGA2gXe3Unijz92Zc/WW0No1ty/8LelHEf5btEmMk0w3FvTq1d1lbyIiIjIVanIM4x7UHMa2gxM50F2RSWx7tDvxAG2oM6MqdUSd0ySji9nTdpe9sY6wKhCk0rBClMXcK/Wn95+NsAk8fA0pp1KL8S7nMSe/Jb/rP+QxVFJxd3EfLm3vYc7W3lg4CRh+Vd8c/TK1i2yb1vG0pMFz1U7w+Yy89dEnIC1Sg96ty38IvX2nTP5emMGJgZenYcypH5pPE0rIiIicuWKPlN7NKGpnxXMCPaeXsHysNM4sFKtejc61b6ephZwpq1nxf4dHMhwYlga0KyS5u1zsV3P+I498QNMx3beX/wvlqVcpBgjbQnPzh/JU78+wuDF/2NfadVu2JrxwP/1wtcCZupa/jdxBQlXcDgzZTUfTF1PSn4vcIYz919vsSLBCYYHLUc/QLcC1w3N+d5I5r3zCaFZJlgq0f//RlJX2V5ERESuUkUf7i2NaRZYDgMH+w58wsp4OxBA19rt8Q7sQVdfG5gn2LjzVw44werblGZemrfPzUqd697j+RB/LJikRU1jyMwxfHoqNu9668x9zFgynpkJdkysVAluXYrPMVioMuwpRjdww8DBsVkvMfnP1Ms/nJnF3mn38+j8MHJV36cfYcG4fjw8/wQO08Ctzkhef6x1oTeXjVvxJq9/H4UTg3LtH+P5gVfyfICIiIhI6SqGNUG8aFapLrZ924g8torTgOHRhZtDfMDajltrV2Za3El2hK3PLoMIbE7TPGZKU2J+ZcGRUCIzM4k6EXU20KaxZ//7TIhxx8urLl0a3kFb7wR2Hvye1TFRpKRvIvzs2u7OuGVMXReFp9WXkOq3M6hGjX8uNn0PS/etZHdyynlh0UxbT+TZ92fF/szkdcfOvcfAnfIV2tC7SbfcK6k4I9m8bzEb4uJIN3MuLu/gSFQK2V+JZcvOSUw4ljNxG1htgTSoNYC+lQNzj7RsrXh60JccnXUPn0SnkBQ1g4e/+JkP6g2ib81WNAlqSHW3JI6cXMl326ez5EwSTgzcKgxlwg298t8PoCR4d+XFiSNYNHA6x9L+YuL9r9Lz93/TzffyDmdmHuCruzuxf9k4HujbnuqEs33TelYunM/yA4k4TbD4deSFWZPpE1i4UY0z6geeHvsZB7NMjHKteXzSYzQvS6vkiIiIiFwiwzTNIt/qKGXPXdSY/y1x2aegfP3PODj8PoINSN43inpzZ3IaABtNuqxn203tz59pde5nwpcteOFkJvk3zkKVVovZ3+Z3Onw5kb0FXIXhPoCZTyzkHk8AO9t/a0f737eTdclX5kG3W/ayulPt876aum8ktebOIvqSj5fNFjCeVWP/w/X5lIM4U9fz/o/38vq+Q/mXpgBg4B04nP8M+ZQHgr0vszVFyBnFkke7M+ijvaTjRo07PmTZt/fTuBDr3ttDX6V9uzfYlmWhQsf+XH96CUuOZuTzeTDwDOnDW3Nm8kRHv8Ldjkr6g3f69eHl1WdwWirQ5a01/Pp8q4J3AS5FGSvH0rDXR4Q5bNR7fBW7p1xf6LsTIiIicu0olsINrxp9uMXHhgEYbk24v+PQcyu9+NS5n4eqBWI9+72+9VvkDilGAE2qNqGizZbPcoYW3D1q0aZyCO4+zWnjX568X2lgWMpTrUor6tr+eW9QUBsaenld0m0LAzd8fFrSvlJAru+5+7XkOl9f3C9h8cW/j2q1+lOnaqsCl620lOvCM8N2smvEFMY1bE9N9/Ov1sCTShVvZMyNi9jywOyyEewBLJW4bfI83rs5CIuZRfj3j9B31JfsLniEkot7/ZHMWb+cKQ92p5aP9Z9rN2z41unK8FfmsCV0MU8VMtg74zfx78EDeGXNGZyGG9X7/4cvnym7wR7AFlKLahYAB2G/LmBdrBbDFBERkdyKZeYewJkZyZH4MxjedanrfUFsciZwMu4UGZ51qON9hduXXovssYTFh3EyOR6HWyBVfOtSx8e7zK445DyzhtcHDObtdTE4sBLQfhyffvMeg+rk/7PPOXNfccR3hM+8Izt8p59mb+g+IjM8CapRj3q1Ay8plCftmM4TI59gemgCTsNKlV7vs+S7x2lV7kqvspjZd/Netw48vyEFEwPPap0YOLwf3do2o37NqlT0K09g1VpU9VVdkYiIyLWs2MK9yHmStjDlrgE8+/MJskwDa8WuvPHTcl7okHc0zzfcX4G4FU/RfdAUdiQ5wfCm0d1TmffRfTQv1YcTCi9jzxeMHvAYcw6k5lmeZPHrwfsbVzC+kZb7ERERuVaV1clecTXl2zJ+0QYWv9qHuuXAEbuXHcfSSrABThIP7eZYsonVvyX3TF3BuhlXT7AH8GhyH99s+YufpjxK//a18XM7v5bLTIkmKvHK9hQQERGRq5tm7qXEpZ/azpZT/rRuG0J+TwcUx8w9zgQOb95DZv32NA68+me3HcmnCQ+PIDIqkqjYTLxrt6VLq6pl+tkBERERKV4q0JUS51m1FV2rlsKJLb7U7dipFE5cPKw+wdRqHEytxqXdEhERESkrVJYjIiIiIuIiNHMvZYbj1Co+/mARoZEpZMXtINwBYJK86UMeHvMjNk9/6vS4l8eHNMu3nEdERETkWqaaeykj7Ox6oyPXvbq1wM3FLIH3sODELAaosFxEREQkF83cSxlhI+SmYdyxzM7OmFQcuYacBoZ7BWrf3I/r3EqjfSIiIiJln2buRURERERchB6oFRERERFxEQr3IiIiIiIuQuFeRERERMRFKNyLiIiIiLgIhXsRERERERehcC8iIiIi4iIU7kVEREREXITCvYiIiIiIi1C4FxERERFxEQr3IiIiIiIuQuFeRERERMRFKNyLiIiIiLgIhXsRERERERehcC8iIiIi4iIU7kVEREREXITCvUhZ4kwnMT4FR2m3w0VlJseTYi/tVoiIiBQfhXuRsiLrMIsnPMezz73Am58tY1+cUmjRcRD2xR3U8A/Av/ZIFkQ7S7tBIiIixULhXqSMcKZFEBaRhmmmE7FlIVPffI8Zqw+TqBxaBOwc+HMrZ+wmWZFb2XJEAycREXFNCvciZYSlQnuGjOhGiE/2r6Uz5Tgbvn2fN9//lo3hqSjjXxmH0zz7J5NzfxQREXExCvciZYY7ldvfxb9eHs+gtlXwMgAcJB5azVcT3uS/i7YSmVHabRQREZGyzDBNU3NYZYwjOZLDRyNIynQCFixu5anWoB6VPM++ICOSHWvXsf1IJEkWf6rVv44bujQmwFaarS6rHCRHHuZoRBLZ3WnBrXw1GtSrxD/duYO167ZzJDIJi3816l93A10aB1C63ZlFdOhS5s5bwc6YzHNf9ajUil7DhnBLs4q4XewQjmQiDx8lIimT7Et3w7tqAxoE/33lmZzZt4XNuw9xPCIRw7cGTTt3o2NdP6yX0+T0U2xZsZyNe8KIiMvCq2IVQhp34ZabWlHZ4yLvzYgj7HAYsWmOHHcoLLj5BFO7blXKn/1hONPPEHY4nPj0C15XvjJ16lbB51zDM4gLO8Lx2FTsTgA7f07ozyMLTuO01WH09G95pHHuq7TYyhFQsw4h/hdrcF7sJIQfJ7FCTWr46pdRRERKh8J9GeOMmMngFqNZFJOzCMOgXKd32PRjb7ZPfJl3Pl3Kvng7535whgWvKm0Z/MS7vPtYT6q5l1BjM07x16p17Dqdgv2S6xwMDIsbFWq2oUe3xgRcVpq8GCcRMwfTYvQizu/OcnR6ZxM/9t7OxJff4dOl+4i3/9N+w+JFlbaDeeLdd3msZzVKqjvzlH6KzT9+y3e/HSD+7yV0DC+qtevDnYN70MA3n45zRjBzcAtGL4rh/EvvyNubfuXO8P/y8iv/ZcHWSDJy/OgMqx9NBr/K5x8+RseAQt7YS9jF3Pde4LWPlrI/5+cy+4i4BbZg4FPv8d6TvQjJKzNnruWZljfz/r4Mcn+KLPjf/jHbFz9ATfs6nm11I5P2Zub5uoDbPmLL4gepbc1k88sd6P72dtIu4283w+s6Xv59E6+3LXxAd0av5LWhI5iwJgK7Ry1ue2sOc57qgM+ln15EROSKaHqpjDFT40nIuDCRmKTt+JJ7Or/NzgPJuWuvTSdppzYz69leLF/6GgvmP0/Xwgazy+Yk+vfZfP79oStbtnHjFs6Un8CD7Twv/tpLZpIan0Du7kxjx5f30PntnRxIzl3JbjrTOLV5Fs/2Ws7S1xYw//muFHt35sezKu2HPEGTtutY9O0PbAhLxmmmcXLzfP6z508697+TAV1r43Nh+8xU4hNyh2UzfQ/zHruRyb9vJsaRO/majnh2z32KO9LKs3HhfdS+yKArde8M/m/QI8zam5JjsGnDy9uNrJQ07KZJ1plQ5r7Yl3XrJvLD3PG0uTDxOlNJTs3vU2SSmZpClgmYGaSk5ffkgUlmSjJ/3+NIS0rmsh+ZtSeSkHIpTzhksmHCWN5dE4HdBNKPseSl8fzv1nU837RYRq0iIiL50sx9GZQcvp3tB06TnBHGnPGPMOPgPzHFsPrTfPCjPDr8Zjq3b0LFtENsWDydyRO/YF1EFiYWAm58n9+XjKdpMU85p+z4mnc/WUv0FSw8YniG0Gf8s/SpXVzjzGTCt2/nwOlkMsLmMP6RGfzTnQZW/+YMfvRRht/cmfZNKpJ2aAOLp09m4hfriMgywRLAje//zpLxTUt3Bh/AEc/+lfP5dslWIs5NSVvxq9+dgcP70aHaBQOk5HC2bz/A6eQMwuaM55EZB3MEXgO3oLaMeOYZRvbqQPMQD07/MYsX/+8Fvj+ahWmrx+MrdzHlhvzLUxxhs7n7+nuZF27HNKwEtBrOk0/fR9/r29C0hjf22EOsmzOFtyZMZ014OqbhRt37FrLpkz4EXjAYyYzazabQE6Q4Mjn09ZM8+c0hsixV6DthNv95oBt1fbPfkHF6J8umjmXke+tIwJfOT37ISzcGYnH3o36bdtQ5+zoyozmwbTdh8elkj2HshH4whhd+isZpDWHYlA+4t17u4G1YvfCv3YxW9QIv4eedzKwBwYz6PvWfAY6lCmMWH+GL24tj0CoiIpI/hfuyzB7Kq+3b8ca2LAAMt9oM/WQJX41uxIWRwXHyBx7tfTcf70zBNHzo/M4G1jzXvNhvzWQlniYyPgPnZXyMDMNGucDKVPQumdlNe+irtG/3BtndaeBWeyifLPmK0Y1y9SYnf3iU3nd/zM4UE8OnM+9sWMNzzc/vzayoUFb9vpPTKY48ykQKYuBWIYS2Pa+nge+l3xLIit7B0rnzWLEz+txMNW6BNOs9ilG9G1Ih1yHthL7annZvbCP7k2TBr/NzfLfwDXoG5+x7J1EzBtJw9A/Em240f3EDf73VNu/PkOMA/7u1A+N/jcdpuFPvrs/46fORNMwjyzqOz+Pe7ncz+6gd3Brz9OptTOxcQE17ymbeuPlmXt+YhK3Bgyxc9yG3B51dQSj8G4Z3Gsn8k1C5/yes/e4+6hbq45PBLw/Wpc9nJ3HYGvPM2u1M7FhUwzUnYdMH0u7+H8hePt/AWmMUC7Z9wR0XjmJERESKmcpyrhaGGw3HTefzPII9gLVaf6Z8/RI7ur7A+qRkNk2bxI8PzWCAf/E2y61CMDUqFO85ioPh1pBx0z/PI9gDWKnWfwpfv7SDri+sJyl5E9Mm/chDMwZwrjudCWyc8zkLd2fm8f7C2MC2xADeGdX84g/GXsAtqAX9xjWg7eaFTP/md46nmZB1hl0/fsniWm9xT9OCj2jxu4m3Z10Y7AEsBLRsQYjtB+Kz7IQfOUYmeYf7uJ8nMPG3eJwY+HR4iXn5BHsAa83BTHpjHr+M+o6YrAPM/mwZr3Tul389und7Xpz9X0Kvv49FBz/nobFdWD9nBCHmAT556HEWnHTi1uABPv10dCGDfXGzEDLqM35Iqco7c7eTUqkTo155RcFeRERKhf71uVrY2jDqoa4FPqDn3mIcL95ZAyvgiFjM7KXxJdW6q46tzSge6lpgb9Ji3IvcWcMKOIhYPJvzutPiSVDlgEsO5ucYXgRX8b/sX8Cs6P1s2bybyBxPjBpelanif7G0a6FS/7GMrJP36yx+/vgaACZpScn5PE8Ry5IZizjlAKy1GPHmk7QusPrEQnD/O7klwAI4iFq7kq0XGRNZa4/gsxmP0szTycmFjzPmv1v5c9L9PL8sBtOnLc999T59KpWhv74sQXQa9yE/rt3Aqu/eZ1RL39JukYiIXKM0c3+VsHjXpn7IxYKbDz0G9qLyl59x0pHExlUbybirN5ezqF+hZEay/bf17D1zBWU5VVvR7fqGXDSTFikL3rXrc/Hu7MHAXpX58rOTOJI2smpjBnf1/rs3PWg89CXe7nqSmDQ7l3T5hoF7+WCqVvK59CUnHXHs+3UBc5ZsJSL975Pa8G/Uk8F39qFtlYsFXhstOnbKf5BoteZok5n3xlmpa1m+NhEnYKvdjztv8L54u8u1plVDK9/EOLGH72JnjJNuVQtqq4WAGyfwzTs76f7USn57vic3kUQiQfR+byYvd9I6NCIiInlRuL9a2GyFCoLuLVvSyAonHQ7OhB8nEQgqlgY5iV4zi88WHrr8VUkA2EiUd3GtlpM/m61QvUnLlo2wchKH4wzhxy/sTTd8q9aiZOZonSQdWcuib39g4/GUc6HbWr4OXQcMp3+nmngXZiLb4k3FoCuro3JE7OdQfHYL7Iem0s1j6qUdwIwnJsYJBYZ7AA+aPTaTT7Zfz/CZR0jEjdojPuLzhxvpLy4REZF86N9IF2MpXx4fiwGYOBPjiHNAULHMilsoFxSMr/UQZ65gLUzDM4jKgWX1Y2ihfHkfsrvTSWJcHA6CLm+DpyuRdpI/Fn/LwjUHScix1n31Dv0YPqg79XI/QVsAK9YrvAAzNY0r2SjXsPlT0b+QbbZUomXHRvjOOkIMPtS9rgkVy1A1joiISFlTVlOVXMC02ws1Q+6IjuaMwwQMLOV9z9ZPFw/vVvfwyls9CI++nE2swLC4U6FKTapWKOmPoYndXqjeJDr6TPZSioaF8r6+FGN35iGTqO1LmDPvV3afyTr7NQOP4FbcOmwotzQtnV10LYGB5z5XtroDeenxHgQWsmMMw0aFxrcwpEbhEnrKn+8y8l+/cMbDH3/iWfni3bzcahXvdfO7zNaLiIi4NoX7q4SZcoKwCAcX21Uo6Y8/2OUAsBLSrDmFnSC9PBY8A2pQP6A4z1EcTFJOhHHx7kzijz92ZT9Uag2hWfPLfwD2Utlj9/Lr/Dks2ZZjB1lbIE1uHsydt11HcCkuum+p2JIWNW2sOmTHEZNFjaFjGRNc9D3jjF7KMyPf4o/kCnSfuIrJxpP0eGY1k0f+Hy3Xfs1dNYv+HoozYhX/m7yQ40G9Gffk7RTb9gsiIiLFRDe4rxb2bSxbejLvBxz/5gxj7sxfSXQC1ir06N229DdeKqPs25ax9GTBu5A6w+Yy89fsB0etVXrQu20J9KYzkcO/fcV7b05l0V9/B3srvvV6cu/zL/P4HaUb7AFwb0f/3iHYADNxOdOmbSW9EG9zxv7Jt//5Nx8u3k3SxV7sOMrMh+7n0/12Am5+m48eb0Wrxz/n37dXwnl8Ho+M+DdbUy/3Akzy3pjAzo6PnuSZSR8w+cWn+ejPy13mVEREpPQo3F8tzBRWfzCV9Sn5vcBJ+Nx/8daKBJwYeLQczQPdtDtmfsyU1XwwdT35d2c4c//1FisSnGB40HL0AxR7dzpOseajd3h/zkaOp2anT4t3Tbrc9TQvPzWMTtW9irkBheXJ9eOfoKefBcwMtr9/P/9aFlXwwJM4ljw7lDH4bXUAABn+SURBVJFPPcsjg+/jf/sKelAjnW0TR/LED6cwg/vx748eoqENsNZhzMdTGVbDQsLa17j7qZ+JKvikORj4+Hhnl1WZqSSl5JXuMzl69GT2nRrDhs12CX89pu7iq4e6US8okOqtBvL26ov1h4iISPFQuL9qmGTtncb9j84nLFe5eDpHFoyj38PzOeEwMdzqMPL1x2hd2jO8ZZmZxd5p9/Po/LDczzKkH2HBuH48PP8EDtPArc5IXn+sdbHfBXGmHGTbnriz4dKTKm0H8vjLzzGyWx3Kl7HfVGud+3nv+evxt4CZtoNpQ25izKdbiM0z0aawb8Y4xs8Mw26CtUoLWlfPr6TGSeyyZ7jn9fUkGNUYMnkao3LUTlmqDmHqR2OoZ8tk/6f3Meaz/YVcrclG7Xo1cTMAZwRrl23JNbBzHJvDjOWxOAGLb1Na1StsTY6dHZPvY+xnv3M4JpaToYt4Zdg45pxWvBcRkZKnitKriZnJga/uptP+ZYx7oC/tq0P49k2sX7mQ+csPkOg0weJHxxdmMblPoEZuF2FmHuCruzuxf9k4HujbnuqEs33TelYunM/yA4lkd2dHXpg1mT4lsNuoxec6bhsQhtueLEK69aNXy6DL3yQLSNn/KwtWhBKZnEnUH2dnks009ix+nwn73fEKqEuXfnfQNiiBnUu/Z/XeKFLiNxF+NpM6jyxj6oQoPD18CelwO4M618jxF4YHrZ7+hi+P3sI9n+wmJWknMx7uzM8f3Mqgvl1p1aQJDauXI+nIn6z8bjrTl+wnyQmGW02GTniZXjmXqXfGs2vpIn7bG0VKZiQrP/yYvRlgq9uO+nEb+CtqEG3/3rAq/Rg7o2rRrpEnh3aeZslTQxl1ajgtvN2pUKM9tw/qSs08R2EWqtw+mO4vrmJpfBZ7pg7ltpQnefD2NoRUSOfYhu/58sOvWB2Vfaem8b2PcHuhd3dOJ3TLTtJz3AxwRv/CguUJ3DWimLeIFhERuZApZVfWdvOV1m4mYFoqdDQH3F7b9DAwIe//DM8Qs++kjWaco7QbXjZlbX/FbO2GCRazQscB5u21PUwjn74Ew/QM6WtO2hhnXpXdad9nvtvRvYDry+6HKmN+MhM3Pms2thX0OkyjwgBzVlwe53HEmOsmDjDreRsFvh8wDe9G5l2fhprJFxwiY+0TZoN8z281az68wkzPPpl56oObTM/8fgeMcmavjyMK6JQMc+e03mYVWwFtNdzM6n3+a/51YSMLlGX+9Upr0/28drmZbV7feSkHERERKRKa3L1auNdn5Jz1LJ/yIN1r+WA9t/Sggc23Dl2Hv8KcLaEsfqojfvqpXpR7/ZHMWb+cKQ92p5aP9Z8lLg0bvnW6MvyVOWwJXcxTHf2uzjsgRgBN2jShYjlb3st3Ghbc/WrRpmUI7pWb06ZOeWxGXq80MNzKU611K+rm9cyBJZAuzyxk567lTBnXn/Y1y2PLeRjDgmelJtw45l0WbdnM7AdacOF+ttbq19E+r/MbFjz8atO+Ta2zdwws+DZtR4tgH9zyeK17UEs6NC1ogy53mj2ygN/nv8yg1sF45DiGYXGnYpNbeWTab2z5/lFaF2LT3X/YaP30x0wa3oZqPm78fVjDclV+ckRE5CpnmKZ56QuUS8mwh/Jq+3a8sS0LS8URfBc+kzs8AdI5vTeUfZEZeAbVoF692gTq2dmLsoe+Svt2b7Aty0LFEd8RPvMOsrvzNHtD9xGZ4UlQjXrUqx2IuvNyZRAbdpSwk5HEO8oRWKUmdetULtzuuSUsM+EURw4eIdoZSN3G9ala/sqrFJN+vI/GA77kpOnPnXOO8+0Qn4u/SUREpAip5v6q5Elw4w4ENy7tdrgIz2AadwhG3VkUPAgIaURASKPSbshFuftWpVHbqhRZSzP38sWUhUQ4wOLfkz43KtiLiEjJK4PzaSIiV5mUPcx6eAgv/haP03Cn2UNPM+iq29xNRERcgWbuRUSuQOq2adwz7Dm+P5iCiQW/zi/yyYsdVdolIiKlQjP3IiKXzcHpNd+x9FAKplGOBkOmsvznl+ioihwRESklmrkXEblsVmo/8CGzs+ZxrPYARg9sgb+mTEREpBRptZyyxnGKVR9/wKLQSFKy4tjx0w9sjXFieDbgpmFdqGHzxL9OD+59fAjNLmm5vmuT49QqPv5gEaGRKWTF7eCnH7YS4zTwbHATw7rUwObpT50e9/L4kGa5lmgUERERudoo3Jcx9l1v0PG6V9maVcCLLIHcs+AEswaoqrdgdna90ZHrXt1Kwd15DwtOzELdKSIiIlc7leWUMbaQmxh2xzLsO2NIdeQedxmGOxVq30y/69xKoXVXGxshNw3jjmV2dsakkrs7DQz3CtS+uR/qThEREXEFmrkXEREREXERevRLRERERMRFKNyLiIiIiLgIhXsRERERERehcC8iIiIi4iIU7kVEREREXITCvYiIiIiIi1C4FxERERFxEQr3IiIiIiIuQuFeRERERMRFKNyLiIiIiLgIW5EdyRnN2o8mMGNDOEmmF75BValRtyltO9/A9dfVxEfDCBERERGRYmWYpmkWyZHiv6Jf1TH8mHbB4QwbfvV7cOe4l3h17A1UthbJ2URERERE5AJFF+4dR5j/3NN8tPY4sUmJxEadIuJMCva/j2540mDMbFZ/OpAqmsUXERERESlyRRfuc3GScmobK2ZP5bW3ZxOa4ARbA574bSeTu7oXzylFRERERK5hxTiHbsG7ahvueGY6i167AU8DsB/lj/XHcRTfSUVERERErlklUCBjpWrDegRaAEwS4s4o3IuIiIiIFIOSqX43jHN/NJ3FVAUkIiIiInKN06OtIiIiIiIuQuFeRERERMRFKNyLiIiIiLgIhXsRERERERehcC8iIiIi4iJKJNwb5cvjbQCYJCck4CyJk4qIiIiIXGNKJNy7N7qO5hUsgIMT3z7P+G92k1ASJxYRERERuYYYpmmWwMLzKWx4qRu93tlKsgkYNnxDWtOxXXMaNahDtYp+VKzfnQG9m+KnQiERERERkctSQuEecETw65t3M+Kt1UQ68jilrSFPrdnBpM7uJdIcERERERFXU2Lz5M7Tf7F0aSjRee5Qa2ALqE+DytaSao6IiIiIiMspmZl7x1E+6deWsUticWLgVbMrg+8aRK/r29CsXg2C/Svg4+uPjybtRUREREQum60kTmLfO4vPVmQHe7dmj7P09/fp5q/iehERERGRolQiCdtx4gSRzuzTVe/ej44K9iIiIiIiRa6EU7aBh5cnRsmeVERERETkmlDiU+iGor2IiIiISLFQfYyIiIiIiItQuBcRERERcRElH+4NleWIiIiIiBSHkq+5V7YXERERESkWJRLuTbsDhwlgYLFaVQskIiIiIlIMij9nO0/z6w9riXEChhtVqlVRuBcRERERKQZFukOtMyWSo8djSEqKI/pUGAd3/cmq7+ey+K/T2AFLpd6MuEPhXkRERESkOBRduE9fzVPX9WLqgUzMXN80sPi3Y/wX/+Xuqor2IiIiIiLFoejCvT2WmDj7+cHecKNCzdbceMdIxj1xPz1DPIrsdCIiIiIicj7DNM3cE+2XKenoH6wPPUWGhy8BAYEE1ahH/ao+WIvqBCIiIiIikq8iDfciIiIiIlJ6VAAvIiIiIuIiFO5FRERERFyEwr2IiIiIiItQuBcRERERcREK9yIiIiIiLkLhXkRERETERSjci4iIiIi4CIV7EREREREXoXAvIiIiIuIiFO5FRERERFyEwr2IiIiIiItQuBcRERERcREK9yIiIiIiLkLhXkRERETERSjci4iIiIi4CIV7EREREREXoXAvIiIiIuIibKXdAJFcEg6zbs2fHIlLx2le+E0Di3sATXr0om0V99JonYiIiEiZZZimmSs+iZSedJY+UI++n5/Eke9rDLx6TGHvr48RontPIiIiIucoGgGZmfGkOEu7FZLNgn/VKpS3GQW8xiQr8iSR9hJrlIiIiMhV4RoP9w7C/rqDGhMC8J8ykgVK+GWAOx1f/5MzSbGcjowgIiLHf2FzGVnVevZ1JrrlJCIiInK+a7zm3s6BU1s5Y5o4kreyJc7OYG/VcZcFFk8/Knle8MWMCngUNKEvIiIico27xmfuwXHukQMTzduLiIiIyNXsmg/3IiIiIiKuosjKcpz2aI7FniTB7vhnBtyw4uFVkwZ+AZxX7GImcfTE72w+E05UhhNv7/q0q9WN5j6FLImxn2LL4eVsjA4jIj0Lr3JVCKnYhVvqtKJygVeUQVz8EY6npWI3AewcS7Ofrd3OICZ2O1st1lzvsljKEeBbhxAvj1zfc2RGcjgugiSHE7BgsZanWmA9Kl3YDjOVqLgjnMzIwGmCxbDh5VOPRuW982ink/SUYxxKSiDD+c/9BIvFA3/fBtTyOr+fnBlH2RS2mf2JUSSZ3lQKaEf3Ws0JznEpudvpTdXABgT/3U7HGfad2szu2ONEZBj4VmhK51odqeuZuz9cjj2B8OOJVKhZA99rvFBNRERErm5FE2Xsqxj/4a1Mi8vK9ZCjYVRkQP+dzG9ZGUvmPhauf5l3/vqZbclp55XBGLb6DLl1ETPbNCV3hD4rfRdz17/Aa38uZX+G/YJzGbh5tWBgp/d4r1MvQnJdWSabV3Wk+9rtpOV1bPMI0xd1YHo+pzZs1/Hy6E28XvWfAzuTZjLko9EsSjvvSvCp+R6bRj1Dk3P3ReJZ9H1Thuw4dd7yjoa1Oc/fu4W3q58f1tOPjqfZ19M4nGuRdwOr1wCmj53PCB8LyTEL+feqd/js4DYi7c4c/WFQLmAIU4bN5IFKHvm2s1y1t9k08k7CN73MK5sWsDUl47xjWD2aMLj753zYoSMBLlnr7iR65WsMHTGBNRF2PGrdxltz5vBUB5/SbpiIiIjIZSmashwznVR73hXrphnPvugw4k/9l4EfXcfg3xew9YJgD2DaD7Jg5Tv8mJn3KVKjZzDqi44MX/cj+84Fextebl5nRygmWWmhzF3Vly5zp7A1j+OkZSZz2asnOhNJyDy/1WZWPAmOCwO4SWrMbg7lfKmZTkJGWq6Bj+k4yK6YjNynsqeSnudSMCaO9H3sjo9ny6aBtPxkMG/s3UrEecH+bBtiF/D82h9JLqCd6dHzeGxme/qums2W84L92XNl7GbusjsYve1oAWvOX8UyNzBh7LusicjCxCT92BJeGv8/drvkxYqIiMi1oGhm7t1uY9qDO7k/+gQJDgcmYI/8gDErfyIak8STE+nz1w/8kebAxItate5iVPMB3Fq9CTWS/0vPr6dwwATTmXW2XOZ8jvjZjPn6fuYl2jGxElB5OE92vo++NdvQ1Ncbe9oh1u2awlvrprMmMZ2Th55l2C/12NS3D4HnZpzd6XbzBnY1201YevrZsGondPMYXjgYjdMIYditH3BvQO4yFMPwwt+/Ga0Czp9htwY8xg9jb2D7mdMkO8KY88sjzIi1g+k8f/BiVObegdtodvIAZxx2Yg+8yKg/t5GFidPMPSgqV38aW//vfvYkJpBhmue3k0T+XN+HL/b/QYxpYthq0b35KO5qdCudgmoQuaknt246gB0ThzN7EJRfO52Z2/ntJIAbQVVH8EznkfSq3pwQ62n+2PEi/7fye446T7Nk3VTWt5jCDa5WspJ5lCMnHDkGNSaZYYc4lgVNr4FqJBEREXE9RRbXPH0a09Gn8bn/z2Ah7gZgOjhxbCEnAMOtBff3+YbJLZpS/u8XBj3HRz1jmXgkiSat32DghTU5zgN8uHgc8xPtmLhTr/ln/NRvJA1ztNzq1YAb231I9wbduferu5kdn8WR0Gd5r/XNTKyR44DWIBpU706DHK1krzvZ+b8cNavezK3VL20pTB/fVnT1BZyhbHQvoHbFPYS2tUMAJ+Fn/k3BVS6eBAd1JDgoj3aaJ1i17wRg4FPpfj4aNJl7Kp3rTRp3/Yg30yayMrMJo3sMPNfP+bfTj85dv2Nhj54En7uPE0CvTh/z6vHfGL0/HnvCKpZH2bmhqoul+3I30O/miiz+ITp7MGZYqdarLx21GqqIiIhcpUosrRmWBowZ+AufNKpyfi2QEUzPrjPo2TXv98UdnMDEY/E4MfCp9hLzLgj2OVl9BzOpxzx+WfQdMc4DzN66jFdq9MP1KqgN3ALG8PU9n9C//PmVVRafnjw3oCfPFeo4FvzqvM2s84L936cIoGVwCLb98WQ5wzkSnwmuFu4tIYz67AdSqr7D3O0pVOo0ildeuYNArSElIiIiV6kSSms26rSeyqQLg/1FxbJk+yJOmYBRixE9n6R1gS22ENzwTm7xWsQ3aQ6ijq9kq6Mf3VytxMKow5jek3IF+0tXif7tRlInz8NY8PP0PXuHIY2kTNcsRLcEdWLchz8yrrQbIiIiIlIESmSO0rC244GON+N3qW/MWsvy44k4AZtfP+4MyWvZyAu4taZVxew0b0/Yxc5UV9uaysCz2gOMr3PJvZmbpQUda+R/X8Oac1nQPJ4NEBEREZGypURm7m2VetMnjwdVL8aRtJ9D6dmh0h43lW5vTb3EI8QTk+qEK57hLktsNKvXh/pFcEkW94oE5bvuqIiIiIhcbUog9Vrwr9SSupdxJjMrjdwLRRaeYfGnoqcrBXsAf5pWrkuRVBoZ1qI5joiIiIiUCSUwc2/BzyvwskYRlnKB+J79s81/IC916JFjacuCGdioEHQLQ3xdLNwbfgR6udg1iYiIiEiRKJGynPNqty+BpVxLWvjaWBVnx5GaRY2mYxnjU/LB1pm0iv9tXMhx796M63Q7ta+wCaaZ5w5VhWTFqmwvIiIiInko2zHR2o7+9UOwAWbGcqZt3kp6Id7mTPuTbzf+mw/37yap0CczybWFLAB2dmx5kmc2fsDklU/z0cl8ttAtNCdRqWfyPpWIiIiIyBUo2+EeT67v+AQ9PSxABts33s+/DkVR8LotcSxZMZSRy5/lkXn38b+YgpZwNPBx9z673GMqSVl5Re5MjsadzN7R1rBhs+TXZVasZ0uGTKcde36ndB5i5dGD+X9fSlTqrq94qFs9ggKr02rg26yO0qpAIiIicvUq4+EerP7389711+MPmPYdTJt/E2O2biE2z6nvFPZtH8f40DDsgNWnBa0rFFQSZKN2QE3cAMwI1h7aQsoFr3DEz2HG4VicgMWjKa0C8qlkslSicjlr9kAh6wgH4/MYVJjxbFo/ln+fSNfMfVlg38Hk+8by2e+HiYk9SeiiVxg2bg6nle9FRETkKlVENfd2wsMX8NOJ4yQ6nJiAI24XKSaASeypb5i0bnWOkYQNb5+m3NioN008L3ZsD1p1/oYv427hnq27ScncyYyfOvPz5lsZ1LArrYKa0LBCOZLi/mTlnulMP7ifJMCw1GToTS/Ty72gY1uoUn8w3T1WsTQjiz2bhnJb1pM8WL8NIR7pHAv/ni///IrVqU7Ag8atHuF2r/yOFcgNtVrjfngjGc4/eXfunaR2GEbnilXwNZI5cXo13++czQ8nwkk99x4nRw5PZUKKJ+4eNenQYCBdfN3BGc6GPT/xR0IimaYJODgSlXJ2QBDLlp2TmHDsn940LN4EB93IgPpNzj2AfL4U9h9ZwIrISJIdUfyRkp1eTfseFm+YwH6rFwEBXejXqC1B6TtZum81e1NSiD8ZfvYuyT/t9PAMoUP9QXT2Lb7HNRyRm1m0eANH4tJx5hwFOY6wK/tDhRm7hW8mTWB1zuGpYcUrsAHdBvSlVWG2mU0PZcvOnAMtJ9G/LGB5wl2M8C+aaxEREREpSYZ5ZU93Zsucw9DJdzE/41IOZaNx57Vsv7kjBebvv5lnWL/hAe5d8z2H8iyf+Yfh1ojhvebyaZsWXHzbq0x2bb6DW375hYh8u8KN6vXfZ/HgR2ldUGPTV/Lk9H5MiUotYGbenQAvL+LTEi4oLzLwafAlYcPvxX3XUGp8N5/4i7Y959sb8+yY7bxXPXcDHTET6PrRC/zhLKjfqjBm+H4eCOvA9Rv2FlA2ZFCh0UzCht1z6ZuSFUoq34+sxaBZ0Rcpv8qPjfrjV7HrP9df/HNl38ar7Tvy5rbMf35ebm14/a8/eKVZCW3eLCIiIlKEiqYsx9aQNlWrU8FioXArVdrw8mpIh8rVCn/rwAikS5eF7By7nCnt+tO+QvkL3mvBs1wTbmz1Lose3MzsQgV7AHeatV/A70NfZlDlYDxyXIGBOxUr3sojt/3GljsvEuwBPG9k0oil/Kd1N+p42M7rC8PwokqV4bwxdDsH7/4X3cpXwO3cKyy4uVenXfWm+ACegW1oUyHn9wtmGF5UrNiBVuXz7k3DqwltgipSzsj7eAbu+Pm1oaWfO5WD21DH3ZbPmQ3c3KvRunJdLnrD5bK5U6vlddT0dcdSyGVPzzGsePjXoV2rGoVbv9/Wmqc/nsTwNtXwcTPOXrOB5ZJPLCIiIlI2FM3MfanIIDb+KGFJkcQ7yxFYviZ1/SvjfYW5LDP9FEdijxBtBlK3Yn2qelzmDK4ziciEMMITz5DlUYP6gbUIcivzjzhco5L48b7GDPjyJKb/ncw5/i1DfEq7TSIiIiKX7ioO9yJFI3PvFHp3fopV8eA/aCaHFtxNQGk3SkREROQyaCpZrmkpe2bx8JAX+S3eieHejIeeHqRgLyIiIlctPTUo16hUtk27h2HPfc/BFBMsfnR+8RNe7Fh8TxOIiIiIFDfN3Mu1yXGaNd8t5VCKiVGuAUOmLufnlzqiUnsRERG5mqnmXq5ZKXsX8uG8Y9QeMJqBLfw10hUREZGrnsK9iIiIiIiL0GSliIiIiIiLULgXEREREXERCvciIiIiIi5C4V5ERERExEUo3IuIiIiIuAiFexERERERF6FwLyIiIiLiIhTuRURERERcxP8DNc2KBICTGwIAAAAASUVORK5CYII=;imageBorder=default;strokeWidth=4;fontSize=32;" vertex="1" parent="1">
          <mxGeometry x="1040" y="702" width="759" height="475" as="geometry" />
        </mxCell>
        <mxCell id="k0ymyrdRpFGEkxgsoQmm-14" style="edgeStyle=orthogonalEdgeStyle;rounded=0;orthogonalLoop=1;jettySize=auto;html=1;exitX=1;exitY=0.5;exitDx=0;exitDy=0;entryX=0;entryY=0.5;entryDx=0;entryDy=0;strokeWidth=4;" edge="1" parent="1" source="k0ymyrdRpFGEkxgsoQmm-44" target="k0ymyrdRpFGEkxgsoQmm-18">
          <mxGeometry relative="1" as="geometry">
            <mxPoint x="1976" y="368" as="sourcePoint" />
            <mxPoint x="2170" y="367" as="targetPoint" />
          </mxGeometry>
        </mxCell>
        <mxCell id="k0ymyrdRpFGEkxgsoQmm-42" style="edgeStyle=orthogonalEdgeStyle;rounded=0;orthogonalLoop=1;jettySize=auto;html=1;exitX=1;exitY=0.5;exitDx=0;exitDy=0;entryX=1;entryY=0.5;entryDx=0;entryDy=0;strokeWidth=4;" edge="1" parent="1" source="k0ymyrdRpFGEkxgsoQmm-18" target="k0ymyrdRpFGEkxgsoQmm-31">
          <mxGeometry relative="1" as="geometry" />
        </mxCell>
        <mxCell id="k0ymyrdRpFGEkxgsoQmm-18" value="&lt;font style=&quot;font-size: 32px;&quot;&gt;Prompt&lt;/font&gt;" style="rounded=1;whiteSpace=wrap;html=1;strokeWidth=4;fillColor=#ffe6cc;strokeColor=#d79b00;" vertex="1" parent="1">
          <mxGeometry x="2000" y="307.25" width="210" height="127.5" as="geometry" />
        </mxCell>
        <mxCell id="k0ymyrdRpFGEkxgsoQmm-28" style="edgeStyle=orthogonalEdgeStyle;rounded=0;orthogonalLoop=1;jettySize=auto;html=1;exitX=1;exitY=0.5;exitDx=0;exitDy=0;entryX=0;entryY=0.5;entryDx=0;entryDy=0;strokeWidth=5;" edge="1" parent="1" source="k0ymyrdRpFGEkxgsoQmm-22" target="k0ymyrdRpFGEkxgsoQmm-44">
          <mxGeometry relative="1" as="geometry">
            <mxPoint x="1227" y="368" as="targetPoint" />
          </mxGeometry>
        </mxCell>
        <mxCell id="k0ymyrdRpFGEkxgsoQmm-41" style="edgeStyle=orthogonalEdgeStyle;rounded=0;orthogonalLoop=1;jettySize=auto;html=1;exitX=0.75;exitY=1;exitDx=0;exitDy=0;strokeWidth=4;entryX=0.5;entryY=1;entryDx=0;entryDy=0;" edge="1" parent="1" source="k0ymyrdRpFGEkxgsoQmm-22" target="k0ymyrdRpFGEkxgsoQmm-18">
          <mxGeometry relative="1" as="geometry">
            <mxPoint x="2173" y="500" as="targetPoint" />
            <Array as="points">
              <mxPoint x="781" y="620" />
              <mxPoint x="2105" y="620" />
            </Array>
          </mxGeometry>
        </mxCell>
        <mxCell id="k0ymyrdRpFGEkxgsoQmm-22" value="tested loops" style="shape=image;verticalLabelPosition=bottom;labelBackgroundColor=default;verticalAlign=top;aspect=fixed;imageAspect=0;image=data:image/png,iVBORw0KGgoAAAANSUhEUgAAAboAAAEhCAYAAAAJVmUFAAAABHNCSVQICAgIfAhkiAAAABl0RVh0U29mdHdhcmUAZ25vbWUtc2NyZWVuc2hvdO8Dvz4AAAA9aVRYdENyZWF0aW9uIFRpbWUAAAAAADIwMjXlubQwN+aciDI55pelIOaYn+acn+S6jCAxN+aXtjI45YiGMzbnp5LGuejUAAAgAElEQVR4nOzdd1xV9f/A8dc597I3CIiIiOJAcS/cO7XcM3OlZfXNkWn1rUzbZpajb1qZpaX2y1Wu0tI0Bw4UE1woIoqILNn7cu85vz9ABdkqs8/z8eDxUDjjc8895/P+7COpqqoiCIIgCDWUXNkJEARBEITyJAKdIAiCUKOJQCcIgiDUaCLQCYIgCDWaCHSCIAhCjSYCnSAIglCjiUAnCIIg1Ggi0AmCIAg1mgh0giAIQo0mAp0gCIJQo4lAJ1R7SgwMsQZJyv+jrQt/ZhW+z97poJUK7pP3x7wPhCmPnr6orVDfOOeYJg1hZ+yjH1MQhNKr/oHOkEqiTl/ZqagxdLpE0h5D5l6RZCNwdQbpgd8b7kCkrvB97OqAlbb442ZHQdRjuLWO7YDw7Jx/627ATr9HP+ZjpYPEtMpOhCCUn2od6AyJ3zN8mR32n3ow+VIs1Sx/rmIMhP0zHLfF9titmMy26hTt7OCbyxAXDZG34eOu9/+kFvExfN6HuBSIjoLIyDw/YTC5Tp79H0PyvNuBRW4Ulq2hXbPHcNDHxBAGw93A3g4mb0M8Q0KNVEKZtmrTx53mTIYeVY3izO1Q9M0cMa7sRFVbeoJvnyFOVTGknsE/Qc9oi2p0NTVg5wQoYFnKZMum4GT6wC+zwOTBquEjavIK7LGCbReh5TiY0uDxHv9R6IPhTByoBjjjD/rRVP1nyBCD35ZNHEv0YOCEp2hmXa3L60IFqNaBDlW5V+IWbxt6dIZ711AVJfvHSQPdpkO3yk5HYQz3a61F1X6rGkP4Mf44epHbhitomvekaQ/r6t00JZQ7cX8IglCtqDod2SqASrauiE5YQcijAmt0CimJZzgWfpagxAhiM9PIUjSYm9WmvmN7utfvTN3UXaw8f5E6XnOY6GJV4AhZGWGEJsWTruQUPfWJCehzi6NZ6SEE3DZC8+BOkhZzs3o0sLXDpJA0ZabdICQliSzlfnFWlk2ws2lMfbP8jThK1nX8wk5xJTmGFNUCJ/sO9KrfAuc8JzXooriWEEmKQQFkZI0Vrg6eOD14pdV0YhJCicjKQlFBlrSYWXrS1MqilNfzLj2J8X4cunmGoIRoErIzUSRTrMzdaOToTbu6PjQxL+xrziIhMZSbGem511DPjQx9buk+izvxAZyRC1xNZNkce5sGuJsVvJoVKTMCDp+AsBiwbgDtO4CnQ6Um6Z6k2xAWDdkP1JBkGcxdoEnthz92ShgcOw5B1yE2CbL0YG4H9ZtD915QNxJW/gx1RsLENgX3z0qA0JuQnjvIRn+D+8/QHQg4Q8FnSAZze2jgTiHPUHlS0KWmoZhbYZq3SC5L9wYeSdKDZfVs0pL1mFib5cvcDKlRXLseSYou97k0ssK1sef9puusKM4d9SUgNIoU2Q7XRm3p0dUL+0fKIfUkhd8k2boebjbVu/GsuquAq68jPPQLFhz6kq3ht0gvtHtfQjaqg7tJHDdSszC97cwTE17AKU9fiS5iAT4/fEyAvrD99YQGTKJTQFFpMKNtjyP49W6f7wNnXp+D98aVXFMePKaExmwE617eyiRLmdQ7v/LZwUWsuXqWKL2S5xNImNuPYcW49Ux3MkFJWc+Yr6eyPUPJdyzLep/iN+V1mt17JhPZvqM5Y87dxpB3S00L3nrWn4/rlqaXJJ2QK8t5/+jX/BIRQUah20jIRvUZ2PV71vXoned66jh10IdeRwMK308NZd32Tqwr4sySti0Lpvrxfp2Kf3hj/eCDd2DjIUjMMyJSkqFuN/jvR5U7oOLSMujyOiQVkQjJHN7zhYWFBKHihP8FC96DrScgvYhjyxbgbg03IsH0NDyxB5zyxAHdKfDpBQGF3yyEroNORX7p0HYB+L1fUaVjhTvHVrNkYyA6l3YMHDmCvt61MALQaO8FYzlPYSzz9mn2/rKTgxcTsOn2Ah9NbJVzpMj1jGk5le138j+X5p0X4bd7EAFLFrDo271cTtTff7YlGTOX9ox+9RM+md0H1zJ2XCqxB3hv7CQWH45Eb1KfJz/axKZ5nbB8uIshPKJyvmd1XPnnafr9voNb94KJhCSZYGlsjhE6UnVp6FQVJTuC67lDsPW6JFJU8gU6slNIfegcTE9yVlqBDFDRp5NZaNeeiiHzMhcTE/G/+Dzj/tpBaKEBViU9fhtvHR3D+FGjMctOJMnw4HYq6XcuEqJwP9CpmSRlZRQI+arhKhfuZEFJgU65yfY/RjDt9FkSuX9dNRoLrI1NkZVMUrLS0KGiZF9n7+GpLHS9xDee5vcOkaFL5aFHzivJJOkqOJwo4LccRr8Ft7IL/llVIPwIzOoHjuYF/15R9OnkNqsVTs2Ai8FAGQLdle+g38v5P7ekBUtLMAJSU0BnACUNrudOE9CnkvMM5T1QBqQ+wnSJ5KSKLEQoJNyKIEVRUSL82b7yPMdb9WfkyCfw1mrRSAASGiMtpN3kxO/b2Hn4Cgm5ny8hMubekdT0RJKyCj6XGefWMrHLx5wPTi34uVSFjNun2PDGAPbtfY9tW9+im31pe3p0HF/8Mp8cjsypLWfeYM87c/hyoC9vNS/YSiKUv3INdIbE75m9bwe3FNCYtGRUp9lMbdoPHyd3bHO/b4MugoBrG/j0wIdsiyu8vgdgXH8Jx18ez8XERDJzB03oo1Yx7cBvxKLBvfkKVrX2LNjsggYzMw+8a3sWGE1m3mglZ/7zPJeSk8hSVUBP4KlpvH01FoVkTh8bzPdXTnJHVZG09enVYgrPNB1IZ0c3ovz6MNAvGD0qBiWnJKixn83Ol3sQEBdNqiGMTX/M4Md4PahK/gdJqs2zI8/iHRFMnEFPfPB8ppw+SzYqSkkjAtQodu0ZxMQzl0gHJK0H/dvPY1bL4fRydsUy91nMil1Er2/mc1IBVY3iWkIyCua5nbLG9Ox/nAveFwnLzMytVeb57JI74wau4ln7gldTksyws/OmtX3Fjs07vwKefAPilZxMvvUYeH44dO8MltFw7ACsWg5+0RBTid02Ld+GS09BSEz+gBf1K7ywBrKBAg0IxTDcgNmv5QQ5jS2Mmg1Th4NPc7DN/QoMaRCwDz59C7ZdKXpKhHFPOH4BLoZBZm5Tgj4Qpr0NsQq4j4NVzxbSdCmBmR14t67IEZlaGg17iSnSFnYeuUJ8dhbRAb/x9aWTNGtXm6zcPrrkC9v4bJcfoUm5H0gywcm7L6PG9bp3JE3D2ey82IOA4GhSs8LYNGcGP17Vo6ZdJTAYJI0dLUfPYtb4/nTp2IxaGSEc37WOZUu+xzcym+iDCxk21oIje+bQvFQXQMf10FvkLfOqujBCbmSDCHSVohwDnUJsyA6OZqkgeTHr6SMsr29TYCuNsSvtvN5kg2U8F9Z9RlCRmYAxjg6d6JWnHyaLXzGWAFXC3KY9/T19yvggmuLs6IOz4/0jEmSc0/6v3uLg5VuAhKXT83w9ahkTne73G3p1+5oPM5ZwQNeMqb1Hcvcvljat6WYDKIGcMC5mnLqxO+093AGF8LjPCkx2LpxC1KXXmPHPJdKR0FgOZPG4jcyta19gVJGJw0ieqb+c06FxyFaDGNfQMf82Gkca1+1F43u/yPPZMadenf4MLFUTavnLOgXPvpMb5CzgubWwamyeTNcNPNrDmFEwpR9sCXs8898eigzubcD9gV8HF9msXrzYP+BoMqCFWTtgec+C22gsoN0I2FAbLvSAoGJqbY6Nodf9L50s4O5tal4P+g+sQtMLTOviM3YubXoGcmDXLvb/c4t03R0unbiTu4GB8LPHc/+twap+JwYMH0wvL4ecJs48LN1a080N0AdywvL+0yYZeTB29R5+mNqU+zNNOjJ8TkeGjBnIrEET+OZ8GvEHF/DCsr4cfrNFKTJNc3oM7U+tXTuJVQAkNK4DGOJTZa7sv045BjqV1Kyc5jFJrk0Du4KDS/IycemBj/lSgtJUjExssXrMc5kejoSR/TQ2TlzNMKv8oUS27MObI/rwZkUmx3CK5Ye2EKGCJDdlxoifeK2uXeHbyk2ZNeEKT8ZGYGTbnHom1XSArQIbP8rtV5Kh76IHglweJp7w9f/g+EgINxSyQTWUmpwzWETSQIMS5t+ZtAEfBwiKBiNrqsgz9OhMnFvx5PQWdAs9xq6ff8H3Zv5mf41tE/qMHMOgDm5YlOU2l4xoMnMd3+ULcnmO6zqMFRvf4Vy3tzmWkorfys/Z/eKPjCjikbtPxn3KGnam1WHR5gDSnDozZeFChjtU02ewBijHK6/BrW4H3CUJ1XCY97bMYPWN66QWVdTWPsG7I1fyUa+lbOw/Pn//XGWRGjBt0OcFglxlSQ/9jp/islGRqdVkPvM9SnjiZHsaOreovkEOUG7Cxv05fUNG3rDoxeJrHHYDYPiD1alqzM0H3LWgZsF7o2H1IYruqzaFdzfCRx/Axs/yD0Sp7gxJ1wnwO82F2wX7tg3J4Vw8e5ZLkQX74YulbceUF7sVO0DEuOVM5j/thgYwRO7ip72JpTu27EjnmV+x++hxDv6ylCmtCrZmCRWnXPvoTOrN4+MWvzH53DXib3/DSz9+y1xLL9rU9qaZY3NaOLekpXMrWjrWx05jjHuD/zC/yqwaIWHqOp05DWwrOyG5dJwNPUq0CuDAE95Dq0ZhoJzFHQT/3IWZW4yANiWNbzcCj7pAaHmnrGKYdIOPn4HJGyD+FLzUB+bWhjatoVlzaNECWraEls3Azhjc+8H8fpWd6scoM4qAA7vY9dc/RKTfH3iVr3FaSef22d/57txh9rXvz9AhfWjhWHIzoWzhQSP3kvrMLOk9cgC1164hwpDCiYMnyHpmUAVPsxAeVfmOupTcGDv0ADa1/stbJ34lICOb9NSLHAu5yLGQexuhMaqNt/tQxraczCSvLrhViSknWrw9B9OoypSK07gSdzNn4IjcnPauZZ1vVz1du0LOyFgZvNuU7obV1KT+fhnGrgGbJvDWcgi4A+mRcCwSju29v5nGArx7wNiJMGkkuBXWFlfNZFz7k++/38X5uLudjhpsG3XnqR7G+P6wjzCDFu+RL+EVtZu9J8NINaRy0287K88eo92Yl3ihh2vxJ9BqCxm8VpBxq1Y01UCEwUBc+E2SAccS9xKqkvLPxjXuDOi+iX9evcbxMStZ2H48T7q1wN3UNPfkKobsSAJDVjP/1240+3okn92MqwJLUNnRvHbDUj0IFUJNIikrZw6fJFlia1plInC5yszILbtLYPNvbf0xhgFvwz9hcHwrLHwZnuwK7vYg59bqDWkQuBfmT4BmreAz3+q+QHM2144f5EJukDOy96L/1Ld4d+54ujpr702NUczq02/Kf1k4ZzQdXc1yBlPpYgjwfcjRP4WQraywzL3QSnICCTWk//ffpOLqTkZu+DSbgU+zGbm/0JOYeJGAqDOcCjvAH1f/xDcujtT47bz58x30k/bxVp1KLJZKtjiYVaFgItlga6LJabRR7xCVYgCTKhOGy42DQ05pzKBCfEIpdlAhq6auCmUOPqNzfu5KDIOAs3DqKPyxB3yvQGowvDkU9PvgrfaVl9xHY4Rn1yfoGBtAdsNeDB3QDpfc7ECv1+cO3VcxGAwoaLBp0p/n3mpHl0O/sT8wEedenUo8g6rXl2ouqSE2ljiDCkjIVjbY/Au6DGqacs3JsyI+Y/BXDWn8/Wx2FOhB12Jr24peTafxxoCfODjzGv5Dp+CllVAyj7Hk8M+PJxFqJAdPvs7MP5fwe0JZZstq0FRQnCvdgtRWtHZpnFMyUS5wNKxyXkukpBzki30zmXfsd65XQALcPHNfcaNAoD8lZ0zZEHyj/NNVUbJOw2BvaNwVdkQV/LutO/QaDm8shYNB4P89eJmBkgBLPnxMiVDg4Bcwcx78fv0xHbMUTBv0Zdrcebw47H6Qy0mP4d69rxjy3IRG9nj1n8zs12Yzrn2tEo+vpt0iLLLk6lnKyZNcMABocPdugV0VKv8KpVOOX5mB66Hb2BcbytVba1h6LoTibykbWrZZyeLmLmhQSL59rExnU4uYOaWP/pq5+z9n1cn5vOZ/ukzHrBgKMelxpZj3paW5Z38aSgBpHDyzmnOlaEJJv7OHr0/8jy2R8WUIjGoRE9H0nPOfy+snVrHswGt8HVH+VSfrXtDBLOffl7fByczit089CH8WEhCqq+v7Yd9FuHoClm6khGcIWk6FxeNyJn0n+5ftXEXdg/pzMPd1WLUMXvu6bMcsF2qep/1RXrmgP8ufeyOKfy6UMDav/4tkBdC40HtQ+6ozz1AotXItmxjuLZScxckzX3I4q6Q9tJhpS9+aKhlbkjMkQyU9K63QB1WXcJ2I3EmbWrkiR7locpcpAlUppolECeHA9aulakIxdn2J/7hbI6GSGbmMl46cIKW4HfQn+WjbKGbse4UJ2z7mRLG5pISlsUXuhPF0Ugpdx0rH9YSInMxW0qKVy79oK7vA1KdyblR9CMz/EooMr1nwv4/gVg3qQzHc/SwqnFwDh4v9wnOY3a39lKKhQLK8/1LY9JTCd9Fdh4jcdJTh8Sw3sp0DdlpAMse+luXDZ2JqGodWfcGxIt+urhC++b98tD8JBQmTVlOZ3rOU3SnpF/jhxZ54OjpQt/VIPj4UU837TKu3imqcQx+/mmnb/4d/kSVyhfibi/nwwi0MSFi6+JR4VK2tJ/U0Oe1akTf/xP/BHFC5wabAfcQDYEPz2p6P8iHKRnaitnlOnxrZoVxNLCT3VRPxO/Yyn93KLN1KHnJDnu87h/bGEpDMqaPDeOqv3dwoLEqq8Rw5PJuV0ZmoyFg7tS5hBKkWD/t6OStKqJEcDfHnweffkLiJH6/l1Axlk+a0frSl3UtHhlFvQ0crQIGjC+GFjVDgNtLB1hnw4clKXBWlnOmvwrRJ4J9U9Dbxx+DDTTk1P8u2JR9T6wH1cpcRiTwK/gW+dNj0Y86qNMjQvPVDJv4xkh17MmXms0x8fgajWz1KP75KdtBKnp+1lbACz1AmodtmMvSlrdwyqEhGDZj8/mzalKo6p+fcsud4ec0Rrt2JJyJwOwvHzWRTtAh1laUCy2fZhF15lb5rfmdsi1E84epJbVMTlOw4IuLO43d9O1uu/EOUoiJpvJjW+ekSjyhbPcXo+vM5GJJIduwXjP0pjbntnqKdrTWZicfZcfYrfrgRk1Mac3yWGY0emGCthHP80m+cTEpGp6qAgdCYuzXDePzPf87iG/ejgyRb4OzYlxGNmlHyAEAHetRvg/G1E2Qpp/lk89OkdxpHl1ou2Eip3Io+xI7zP7HzVjjp9xNE6LUvWJxmirFJPTo1HklXm/xPlnndBfzfwEv0++0XwpRYjh4bTotLfRjXYiT9XZtQx0QlIeEM+85/yw+h10gDZJNuvNlrXAnz7mRcGo2ml8lB9mZlc8lvLE9mz+WFRu1wN8nkRvgO1p7+gUPpCmCCV+sZPGVW4kV4LIxbw9rF0Gs2xGTC+ilw6mcY0Q+6tITMEPh1DWz55/4rZwBQ4M8vIMYUrOvB4JHgdnd9yCjYvgtCEx5Ye9IAF3IzezUe/u9zOJS3gCCBmQP0HAGtC3ktUNIl2H4AotPyB9yEY/f/f/V3WHwjzyGNoW47GNWTQlfouEeFsJ3QtyOMfQae6AC1bUFJh4ir4HcAtuyGKB1IJjBtXvHXFXJqzKN7wcG9kH0Jxj4Jc1+Adu6QeQN2rIUfDuWM4DTxghlPlXzM8mdErSad6f44DqXqCP5hAp2v/MnM6UPoWBfCA/w4duBXtu4LJllRQbbF5+0NLBvsUMqaQSaB/ufzLRivxP7Btn1JPDOpxGVVhHIgqeX2am4DFw/70OaQP9lY4mBmID6j4KoGBRJk1ISnB25jbVvv4h/6XLqYVQzfMIc/UvVFHFvCyOoplo7fxCyX/HPPUi+Mxe2XrZRyrYPcw3nxxrQAPi3NOpCZB5i7bigrYoperBqMsTczIzEj6YGmDQnLxmsJG/8s9gX20XMj6HXG/7YKv/TsYo4tIZv6MG/kNhY3qlOKh1THhVPDeeKPP4gs8rYwom6jpewaPauUpdvH5+xKGP06hBbVKiBB/aHwZCx8dbzg34auhZ3P5vx3x2QYteHhh+A3mgMXlj+wSose3u0AHzzEyHbJBJYGwase+X9/8UNosxCyZXCwg/i4kmuskgU8vQLWPl9C4MyluwDDn4A/Ios+tlFdWLoLZpXx9UJVjj6Qdzt24IOz2cjWPgzrHs2ePdcp8HKDXJKpO4M/2sT6V32wLXX7l56z73bE58Oz6O4d14h27/+D/0LvR/8MQpmV6xJgte3rY4WEmfMcfpsVwPbeU+jt4FBIZ66MmUVz+rX+gM3Pn2RjKYMcgLHTDLZN3coCrzY4a6Q8iyPLGJs1Y2CHlfz9wo4CQQ7A1KEd7aytMSrlksqSZEatWp1obVXKirBpXz6ftJflbXrSwESb7yySZIaLy3g+GBvA1Qn/padV3nTIGBnXpUPd5kUsT6SlvtdyfGccZ13XcXS3s31gEVsJI9Mm9G23nP0v/c2SUgU5AGO8O27jyNgFjKrtjEmeFEsYU6vWQGY8+Tf+T1d8kANoMxP+OQVvjgRXc+6nTgLHFjBnDZz5FaYMhFrG9/8uyWBdN2fF/7vqt4J6NvfnoZWaBCZ20KF14S8obdYOaplRyjsq95BGULsVeBcs0VC7IVjJYNYSfrsK2z+C3k3vL8ScN11mztBvKmw+CRtLGeQAjL1h2xFYMAqcTfJfV+NaMHAG/O1fA4Lcg4wbMXnTMfateIFe9S3v9amDhNamAd3GL2STfyC75pUlyAFoafPaN3w+vh2ulkZIuceVKqBPWyhcOdboADWRkNtXkR3a0eDeBGcDqSlXCYq/RbwejI1scLJpRCMb20cfzWRI4nbCVULTFBzsvWhkZVWRbbPFU1KISgojPDmObBM3GjnUx9Hocd34OhKTQrmeHEW8XouNVUOa2rvce2XPQx818zah8aHEqg40rNWIOiZV5mqipEHIVYhMAUd38KxXhVbdf5wUCPEHuQk0yNNenhoJQVchPguMzcCpHjR6HNdAB7dDITQWHBpCozoV2r9R/vLW6GpN4pfw9Qw3BcgkOiiQy1FZmDq64enpgcNjmMabsvs5vEasJUK14+lNN/l5jHj1amUo30AnCIJQlRQZ6MqBLogVg7ow72Ai2I1ifcg2JhRSaxfKn6hLC4IgPG5pl9jw0hjm/52IIhnj/eJrjBJBrtLUqFYJQRCEypZ+diUTx73JjqtpqMjYdpnP6vk+pe4zFR4/UaMTBEF4bAxEH/6FvSFpqJI5jcd8wb7f38FHdM1VKlGjEwRBeGw0eEz/ip+yt3DDYwRTR7YUa2NWAWIwiiAINZvhNge/WcX2wCjSshM499tOztxRkEwb029cV9y0ptg16M2zr4zB+9/xmsd/HRHoBEGo0fQXPsCn7bucyS5mI9mBidtusWGE6EmriUTTpSAINZrWvR/jhv+J/vwd0g0Fy/WSZIy1R3+GtjUqZG+hJhA1OkEQBKFGE92kgiAIQo0mAp0gCIJQo4lAJwiCINRoItAJgiAINZoIdIIgCEKNJgKdIAiCUKOJQCcIgiDUaCLQCYIgCDWaCHSCIAhCjSYCnSAIglCjiUAnCIIg1Ggi0AmCIAg1mgh0giAIQo0mXtNTbSRxzfcwp0MTyFQKedWIbIx9s94MaO+CcSWkThAEoaoSr+mpJjL3TsdzyHdEGIreRjLrzYqgv5jtLirqgiAId4kcsZqQ7ergYqVFKmYbNTuKiCh9haVJEAShOhCBrpow9nmf03EpxEdHERkZmecnjM2T66DJ3U7UzwVBEPITfXTViWyKrZPpA7/MwtqkuHqeIAjCv5uo0QmCIAg1mgh0giAIQo1WPk2XhlSirl0nMkWHAsiyEVaujfG81+yWRdS5o/gGhBKVImPn2oi2PbriZS9aUqsOPUnhN0m2roebjfheBEGovh5/DqZEsn5MS6Zuv4OS59eSeWcW+e1mUMASFiz6lr2XE9HfGzghIZu50H70q3zyyWz6uFbUTLAsbv9zEN8L0aTpFco6jkOSZIys69Gud0+87DUl71BNKLEHeG/sJBYfjkRvUp8nP9rEpnmdsKzshAmCIDyExx/o1HQSk7IKBA014xxrJ3bh4/PBpCoFdkLJuM2pDW8wYN9e3tu2lbe62Zd7u6oSe4SfvttBSDFz00p2Av84Kxa/0IEHh4lUTzqOL36ZTw5H5hREMm+w5505fDnQl7ea15xgLgjCv8fjjyWahszeeZF/jv7FH3t/Z/WURjnRVE3jamAwqaoGu5bjWLhmB0cv3iYu+hp+25fzUncXjCQVffRBFg4by/8u6h570h4kmzvj8qjNpZIpTnVq1aDhqzquh97CkKekourCCLmRXXlJEgRBeATlkz9butG6mxugJ/CE5f1JzpIRHmNXs+eHqTTNU/3pOHwOHYeMYeCsQUz45jxp8QdZ8MIy+h5+kxblGUEsWjLx3U/oH5VIlqKWuekSSUJr7kDtWhbUnLqOOT2G9qfWrp3EKgASGtcBDPERC4sJglA9VWBFRMKoyUzWfZc/yN2jcWXYio28c64bbx9LIdVvJZ/vfpEfR9iVb7KMrHF2sy7fc1QrMu5T1rAzrQ6LNgeQ5tSZKQsXMtxBDNAVBKF6qsDcS0u7KS/SrbgRDcYtmTn/adw0gCGSXT/tJbGikifcJzvSeeZX7D56nIO/LGVKK5vKTpEgCMJDq7ganWyBRyP3Epv4LHuPZEDttayJMJBy4iAnsp5hkEl5JUpHVMDfHAuKe4Smyzq07tmdJnY1p/FSEAShJqnApkst2tLEAuNWtGqqgQgDhrhwbiYDjuWTIiX2MBvW/ErII66DfCLGogaNuhQEQahZql7Hi2yFlaWcM4BFSSYh4ZHG/hd/KnNHnG0esSYmmeJY26EGjboUBEGoWSouf1b16EtTczLEEhtnQAUk2Qobm3JcsNiiNYDZ0hkAACAASURBVBMXfkTv8NiHmjCOJGNs7UK9OtYi0AmCIFRRFRjo0rgVFokBj+L76VJOcvJCTi1O4+5NC7vyrXTKpva4NbIv13MIgiAIlacCmy71nP1zLxEFVkXJSyFs83r+SlYADS69B9FeTN8SBEEQHkEFBjqVtEOr+OJYWpFbKOGb+e9H+0lSQDJpxdTpPcUAj8qQfoEfXuyJp6MDdVuP5ONDMRRbPhEEQajCKnQwipodxMrnZ7E1rGBnXWboNmYOfYmttwyokhENJr/P7DaiOlfx9Jxb9hwvrznCtTvxRARuZ+G4mWyKFqFOEITqqYLHUKjogn9gQucr/DlzOkM61oXwAPyOHeDXrfsITlZQkbH1eZsNywYjFuPIwxDFqe27OB6aQKaSd9iMgdALaTkDadR4/P/vcxYfynvhJDRmDjTuOYIhrR1KUbLJJND/PJl5TqHE/sG2fUk8M6mcV6kRBEEoBxU4Ydwan2Hdid6zh+uRx/l+/nG+f3AbyRT3wR+xaf2r+Ih3wuSTvvsNBo/bkLv+ZBEM0fz95Xz+LuRP2kYXOXhhOd1LrCSb4t2qKUa7zqK7G+zUTG5ejwBEoBMEofqpwDqTMY0mb+LYvhW80Ks+lpr70wYkrQ0Nuo1n4SZ/AnfNw8dWVOUeZFy/FW3r2WAsl3W6hYTGxI4GHVrnLK1WIi1tXvuGz8e3w9XSCCn3dJIsvhNBEKonSVXVMk8fKz09ge92pMMHZ8mWazHpl3DWD88ZXpIZHUTg5SiyTB1x8/TEw0EMO6lqUnY/h9eItUSodjy96SY/jxHVbEEQqp9Km+ds6uxFJ2evyjq9UBJdEN+v+JVIA8h2fRjcVwQ5QRCqJ9EeJRSUdokNL41h/t+JKJIx3i++xigxp14QhGpKrFwl5JN+diUTx73JjqtpOSNgu8xn9XwfMZ9REIRqS9TohDwMRB/+hb0haaiSOY3HfMG+398RI2AFQajWRI1OyEODx/Sv+Cl7Czc8RjB1ZEvKealRQRCEclcOoy4N3D74Dau2BxKVlk3Cud/YeeYOimRK437j6OqmxdSuAb2ffYUx3haP99SCIAiC8IDHH+j0F/jApy3vnskuZiMZh4nbuLVhhOj7EQRBEMrV42+61LrTb9xw/tSf5066oeA73iQJY2sP+g9ti9FjP7kgCIIg5FfOE8YFQRAEoXKJoQaCIAhCjSYCnSAIglCjiUAnCIIg1Ggi0AmCIAg1mgh0giAIQo0mAp0gCIJQo4lAJwiCINRoItAJgiAINZoIdIIgCEKNJgKdIAiCUKOJ1/QIlSs9lD+++YKtIfWY8O6r9HGuuLKXIWw3iz7eSVKribwyvRduxhV26sfMQOrNAHyPHOXEP1cIj00gVWeEXeOBzHhzAi3FS0KEfzmx1qVQaVLPr2XWhLmsv5CEgglPfBXG3pecK6iZwcDlRV1oOf8U2ZIG+/Yv8dXGzxnXuDq9T0Mh5uj/ePPNz/n5RASZDz7Jmvq8vO8yq/qYVErqBKGqEDU6oRIoRO55g+ETl3M6QUGVzGk0/CPeG+dYgW3pGho/9wnvHJ7Cx/tvEX/6Kyb1uc7t7Zt4tYNVhaXi4SlE7XiRnuO/J/huhJMktGZ2ONdxwdHGAiv3oYxpI94RIgjVpkanTw3kwM0LROmyUQEJLZb2XRlUzwPzcjvnGfaEBiE5PcGTtZ3QlHrPJK7dPMzphAQyC7m8kmSMvWNvBtRxodq2lj00hdi/3mTQqKWcSVaQjN0Z+skm1s7xwb4yeowNURz44BkmLDpEtB40tXrwwe7feNvHshISUwaZB5jhNYCvbhiQNI50nPY2b/9nLP1a1cFc9LwLQj7VI9ApoSxf7828sIz877eTmvPmc//wievjDxdK6lamfjeBDUnZIDdg2piTfNu0dDWOzKvT8fz5OyKKubKStjcrZvzFbNt/V66ku7CcQT1f42C8gmTsyYR1f7LumQaV3LSQycVvn+HJmTu4mQ1G7k/zw+ENPONe+qJNRdMdm0eLXssI1svYj95A8NZncKjsRAlCFVU9clnJjNrWjhgj5f+9Gs3tFKVcTqm7uYPdSTm1R1W5wW9X/NCVcl/ZrA4uxtoHU5uPaogiIlX/GFJajaSfYtFzC/k7XkHS1GHIl7v4rtKDHIApzV/YyM5FvXGQVbLDNvOfZxZzJquy01U0NT2NdBVAxqGuG9WhsVUQKks1CXQujB8ZRuqb0UTNu8XfXVrcezt5eVVHjZza0cr4bqiypqVLs1K/Ed247vuc/m8K8a9FETkvMs9PGJtb1rnXBFr1q9KPUzrHP3yBT0+nokpGeEz5ijXPe1F1hkmY03ruelaOrYtGUkg+sYR5K4OoskURRb13/8jayi8qCEJVVq2eEK2JI84meqIq4MHW1HqFTROsWHXpIpLzOGa0alCGPjpAMsXW4sERfFlYa4ur59VchiureWfVOTJV0NSfzBefDcOpqhWzZFfGLlvCjiOT2Hw7maOfvsuWSZt4psolFMjT4yBJ/857ShBKqwo+wVWFBud60/lg4Areb9O56mXK1Uo6h79cxdEUFSQb+rz2NoPsKztNhZNdxvLenM5YSKDc2c3KtVcwVHaiSiDCnCAUT2TfQvlL/I01m6+jBzSuo5nzbBlrxxVKQ9PnZjPUUQY1k9Pff4NvFe6rEwShZOXTBqhmEZ90jfCMDPR5OqJkjRXOtg2oY5L/tIo+nvCEcOKz9dwfWiJjZOyMu30dbEoVjnXE3fHnVEwIN1OTkUzcaO7WEx9721JlqvrM21xLiibV8MDgFknGyMgFz1q1y20aw6PITPFn/7UTXEqMJEExo5alO171nqBf7dpVpv8r4Y9t7ItXAC0eoybTt9QrdRhIjbrG9cgUdAogyxhZudLY04m7jcJZUec46htAaFQKsp0rjdr2oKuX/aPd2PaDGDvQic3ro9Bf383W40vo2buqXE1BEMqqHAKdjqP7W9HvxJVCRylKxr1Z/sJ+XnHIDT8GX/77TV+WxukKGZwhYe2+lKRnXy3mfJlcv7qcBX//j22RUeQtfEuSLc2avct3T83Gx6zoaGmIXUb/71/nUFZRIzjNad/LlxM921SZTs2kmM18euA9vr56hcQCM0SMcHAeybx+nzLX072SA14mJw8cJ0kBNLXpM6hTKdOjELl+DC2nbudO3q9FMqfzIj92DwpgyYJFfLv3Mol5SlOSbIZL+9G8+sknzO7j+pDzFC3pO6Q39ht/5o7hFof/Oo++d/sq890D+froBEEoXjk0XapkZWdS5KB/JZ00Q56HVM0iXV/0FAFddlox58ok8OQAOv48n58eCHIAqprIxYvzGL5jHdeLmYWgKumkG4rLODIIjgku9fSC8pVOUMAUOn83nk+CL98LcpJkhqX27pSGbOKiNzP/566MPHmG1MpMrv4qp87GYAAkiw5071TasKuSnphE1oNfi5rBubUT6dJtCkt2B+ULcgCqksHtUxt4Y0A7Bn3sS/xDzj6x6NiJFloJ0BNy+jSx5TOL5aFlxMWRM7NGQmukFX0QglCMciikmtBvgB8BLf5h55EJLLiWiLHbG/xfj16Yy5Y42XvT0jbPabV9WTb9AlNiw0nQ67h18VVeCggGu0msGvwyfVw6FHOuVM6FnQIkjMw7MKnL60z27EQLGxOib21g/u9vsyMxm+iri/kifCIr3AvPZLXOb7NvxlOci48hTbmfcaqpv/La7jVcUkCpEiVoA2HnpjFg1xbCVRVJsqe191xeazuE7i7NcTPWEx/vy6aTH7H47GHCDRHs3T+OV+39WN3YoXIyQ91Vrl7PGc6hdfeiaakXHNHQcPZOLvYIIDg6laywTcyZ8SNX9SppVwMJRkJj15LRs2Yxvn8XOjarRUbIcXatW8aS732JzI7m4MJhjLU4wp45zctcs5OdvfFykfk7zID+RjAhenCpEsvYKCRe+D/e+GwfKSog16JthyZVq7YpCFVM+TwfWmea13sCbf0mvHftJIYsLfUaDKRdETmtiUUTOlo0ATLZeT4BBQkL5ycY18AHmxJPJmNb901+GfcBfSzv98bZe87lm56+/L1zJ4lqGAevnUfvXlTzk4yNbRu62+b/rSEuAOvSfuYKYIj7iuf3bM0JcrInzwz9je9aNeH+JAYN9g59efmpXgyu/yy9fvmJ60ooP+7/lKkNltClEnJDJSWamNSc6pDsUg/3MqXBErfW3XAD9IEnsLw3vFDCyGMsq/f8wNSmeaZwdBzOnI5DGDNwFoMmfMP5tHgOLniBZX0P82aLMn54bR1cnWUIM2CIiSRSDxW/XpuB28c2s+ufGFJTEoi+eZUL/r74Btwi1aACMrX6vsUbg8V0cUEoTjkW8jW4O3lhD+gTLnKpNO1+ShhBcYkoaGng5E1pxizIJv34eGT+IJf7F+xrt8RdBtATnnCjijQ9PqwEfvddwt9ZCmBJpx5bHghyeWmo1+xzPmjqgIxKdtxPrLlWOQ2Yampq7goeEhoLy8cyoEcyasLMdd/lD3L3aHAdtoKN73TBSgI11Y+Vn+8mocwnscbSIieyqplppGU/aqofQtIWXhk8kf/MfpXX53/A56t/5o8z4TlBTjKi/rBl/L5lBs1EdU4QilWurVnGTt40kUHVB3PxTinCjHKZoAQDYEETJ89SVDdlnJq+zGS7wsdVyqZ2uTVClYys1Co/H6pYGXv4Meg2BkBjO4kPO7cpIsjlkpwZ5v0E9gBqDEdDz1RKoJe0WjS5NTFFn110320ZaNtN4cVuxbWBGtNy5nyedtMABiJ3/cTexDKeRNWRndv/J8lajCojmJjVp1lDK+TCJsqpeiL8f2ffuYTHck0FoSYr10AnWzanqYUG1BtcjM1bo0jnxs0dbA46RHCe3NeQGERwpgKyJy2czEpxBi0t63amyCxP0uSZWqBW6wwhPWwfR7Nyh+g3eZoepWhGM6/dmiZ3a7Qx57lTCd2MsrU1lrIEqCjJiSQ88pcgY+HRiBLXW7bszcgBtdEASsoJDp4o42Q4NZHEpJx/ShZWFGgwqAjGnXnfP5bkuCjCrvzD4V0/ser9lxnibYdWUsmO2M9742ewJao639mCUP7Kt5yqaUELBy1Sio7gmCB0dMUYhdvnJuOz/ReikXFo8j3nxj1LHQmy7wRxTQHZzAtv29LkLBbUMq9KvWjlxUBkXAg5lRI9IX49MfEr2xHUzDvcUaFORS+jYe6Ou5MMNw0YwkK4lg31HnG+g1ZbmnvDmFatmqIhAoMhjvCbyYBj6U+iC+VaeE4bgMa1PvUrrXnQGAs7ZyzsnKnXuA09hjzDy2+/wZapvZnw03X0kbtYtyOasS+5iJGXglCE8n02JAe8HesgYyA89hJJAGo0u8/9QQwACvEh69iUaAAMhMUGkwhoarWgRalK0Bo0/4qnWyU9+1GW55DQmtXCrjLWijJqhndjIyRAibxIYIXVPmSsrCxzm/0UkhMSytR0rb8SwMVUBZAwb+SFR1XqB9O6M2x8H5wkQNVz++atat1aIQjlrZwfXyOaOTfBiOtkx1/gkgF6Zu3nj1vpqNhiZ5JMQpY/f4REMaeDA0F3QjAgU7tWc+r+KwJYack4mNvkzpHT0rDpO7zi4VDKNQ4lJNkar4ZjcKuMQCc70aVzE7R/BZKt+4dDhxKYM+VR3pymoteX5p0CBmJj4zCogCRjZWNThjUhFSIOH+WKHpCMadOtS9V7DY4sk7OWs4pBbxCBThCKUc6BTsbWsRn1pD+4mnyJSxkKbW/+gW+WiqRtz0CPQDZfvsOp0IMktutIUFwSCloaO3mX+pU4/w4ytZxbUk86SIhq4I7ixtgO03CuFqv5amn25BN4fhJIkD6Vwzt+I3rSFJwfuiCjknYrjEgDeBRb60/h5MkLObU4jTveLexK33xhuM4v2/3QqSAZt2HAgLqiWVAQqrFyf36NHVvQRCuhKle5EJOCb8gREgCtYxem1W+FMSopN/dxOCOIoHgDSC40c3IWGcsDjF2HMchWC6gkX1vJytuZpdhLIT7iZ5Yf+4pdMSnlncQiGbefyNOtTZBQSNr3A/93/dHGv+rP/sneiOLrMErYZtb/lYwCaFx6M6h96SfB6c+vZ+OJLFQkzLqMZUyjqrsEtSAIJSv/eGLSjOa2GlAjCYrez76waAxocK3bk84e3Wkug5JxjP1XzhGcpSDJjfF2EvW5ArTdmePTB1tANQSwdNd/+TOthAarjD28sXUy8/6awehdX3K5stq3tN5M/88AbGRQ04/y5ZL9JD3C4dS0Q6z64hhFLg6nhLP5vx+xP0kByYRWU6fTs9i5GHn3jWLLotUEZqsgOzHsP5NpKOKcIFRr5R/oZC+8HcyRMHA5eDUHEvWAPd08OmLh0JtuNlpQb3Hi/F8EK6CxaY53MQsw/3tpaND2U95yt0NGJSNmJWPWT+Pb2/GF98/oLvPjnjmsT9KjosHFuU0l9nvKuIybx9TGRkgYuLHhHZadTn/4w6nZBK18nllbwwq+ATwzlG0zh/LS1lsYVAmjBpN5f3abUi9qkrD/Q97fEYOChHnH2bw18lH6EwVBqAoqYCyZGd5ODdFePkvUjYNEA5JJV/q7W4KmAwM9arMyIYJzYcdymoocWtC8kBJ02p2/2BYaSJROR8ytmNzMPYNLV5ay+I4xZmYN6dpkOO0tkjh/dQeH7sSQlulHeO7cMSXhT77wjcFUY4N73acY5eZ2/8NnXmLv5QNcTE3Ll3GqGceIyt0/O/53lvneuLePhDFW1u0Y1KxnwRF5ShSnLu/ieEICmfnWyDQQGpOW+5aGePzPf87iG3mjj4RG60Dj+iMYUruQtSm1rXlt1Fqub5jI6tg0UmJ+5KXvf2eV5yiG1GtNM8cm1DVKITTiAL8ErGNPXAoKEkbWY1ncY0DR8w0rgkU35i+ZxPaR67iR8Q9Lnn+XPkc+o2fJa7wVStUF88OEzlz5cybTh3SkLuEE+B3jwK9b2RecjKKCbOvD2xuWMdihdBFeidnJay+v4Wq2imTehlc+n01ZVw4TBKHqkVS1/FcrTrv0DG5bf85dhknCqtEaro5/DmcJUi9PwXPzeqIB0NKs6zHO9uuYvwSuXGHx2pa8HVHYq3zuknFpvYsr7Y7Qae0Sgor5VJLxCNa/+isTTQH0BPzdgY5HAij7Kk8m9HwiiEOdPfL9Nv3yZOpv3kBsmY+XQ2s/h4MvL6d7EU1mSvoxlu5+lvcvhxTdfAeAhIXDeJaP+ZbpzqV+CVz5UWLYM6sXo74OIhMj3IZ/xZ8/P49XKebV6QPfpWOHDzibLWPtM4zu0XvYcz2riPtBwtR9MB9tWs+rPrala7ZIOcmioYNZcCgORbam60eH+eut1sWvPlOJsg68TJMBXxNm0OL5ykEuruhe8UtxCkI1USGNWWZug3nCMucVMpJRM573GXtvxKBlg+d50dUBTe7fhjRqWfCBlexpVqcZte69huZBMsYm9WlX2x1jyxa0s7Oi8C0lJNkKV5fWNNTe39fRsR1NzMzKVL2VMMLSshUdnewL/M3YthVtbWwwLsOA9rtH1WjsaFCndbFTAWTzrrw+7jwXJq1gZpOO1DPO/2klTHGq1ZdpfbfjP/2nqhHkAGQnnly2hU/7OyKr2YTvmMGQKWu5WHy0LsC40WQ2HdvHihd6Ud9Sc/+zS1psGnRj/MJN+AfuYl4pg5yS6Mdno0ew8HAcimRE3WHLWft61Q1yAFr3+rjKAAbC/tqG78O+j0gQ/gUqpEYHoOiiCE2MQ7JoSEOLB7IQJYmIhNtkmTaggYV4k3OZ6eMJSwwjIjURg5EDLjYNaWBpUWVHripxh3l/xGg+9r2DAQ32HWfy7f99yqgGRX/3eWt0tSb9Qvj64TmBKDOaoMDLRGWZ4ujmiaeHQ5kCVMq5dbw6+VXWBSahSBpcBixlzy+v0Loqvk4+L/1FPu3ZibeOp6EiYeramZHjh9KzvTeN6tWhlq0VDnXqU8dGtL0KAqogVIbk0+rywXVVIwkVJFVTq7v68cmMIjfPDliotjFCBVmtNWm7WvSWpRe/b67a0kpWARXJQm068Tv1XMpjOHAFybz4nTq+sbkqQc5neOBHtu2tLg/SV3YyBaHSVdVCv1DTWbVnzvbj7Hp3MA3NwRAfxLkbGRWYAIXkkIvcSFXR2LVi4hf78f3xOVpU6oidsjFp9hz/5/8Pv62YxbCOHtga5W/vVtNiiUmu1u/sEITHosKaLgWhKJm3A/C/bUeb9u5FvoOwyKbLR6Ekce3UJXSNOuLlUP0nyxlSowkPjyQqJoqYeB0WHu3p2rpOle5rFISKIBrwhUpnWqc13epUwollGxr6dK6EE5cPjaUz9b2cqe9V2SkRhKpFNF0KgiAINZqo0QlVluH2Qb5ZtZ3AqDSyE86R83o4lVS/r3hp2m60pnY06P0sr4zxLrLJUxAEQfTRCVWUngsf+ND23TPFTuSXHSay7dYGRoiOKEEQiiBqdEIVpcW93ziG/6nn/J30nPfK5SMhGVvj0X8obcUa4IIgFEPU6ARBEIQaTQxGEQRBEGo0EegEQRCEGk0EOkEQBKFGE4FOEARBqNFEoBMEQRBqNBHoBEEQhBpNBDpBEAShRhOBThAEQajRRKATBEEQajQR6ARBEIQaTQQ6QRAEoUYTgU4QBEGo0USgEwRBEGo0EegEQRCEGk0EOkEQBKFGE4FOEKoyJZPkxDQMlZ2OGkqXmkiavrJTIZQ3EegEoarKvsauxW/yxptv8+GaP7mcIHLkx8dA2PfDcbOzx85jMttilcpOkFCORKAThCpKyYgkLDIDVc0k0v9XvvjwU348dI1kkSc/BnqCT58hTq+SHXUG/1BRiKjJRKAThCpKtu7ImEk9cbfMeUyVtJsc/3kpHy79mRPh6Yh492gMipr7L5V7/xRqJBHoBKHKMqZ2x2f474I5jGrvgpkEYCA55BA/LP6Q/20/Q1RWZadREKo+SVVVUZap4gypUVy7HkmKTgFkZCMrXBt74mSau0FWFOeO+hIQGkWKbIdro7b06OqFvbYyU11VGUiNusb1yBRyLqeMkZUrjT2duH85z3HUN4DQqBRkO1cate1BVy97KvdyZhMbuJfNW/Zz/o7u3m9NnFozYNwYnvCuhVFJhzCkEnXtOpEpOnI+uhEWdRrT2PnuJ9cRd9mfUxdDuBmZjGTjRvMuPfFpaIvmYZKceRv//fs4cSmMyIRszGq54O7VlSf6taa2SQn7ZiUQdi2M+AxDnpqrjJGlMx4N62CV+2UomXGEXQsnMfOB7axq06ChC5b3Ep5FQlgoN+PT0SsAek4vHsaMbdEo2gZMXfczM7wKfkpZa459vQa425WU4MLoSQq/SbJ1PdxsxMNYmUSgq+KUyPWMbjmV7XfyNlRJmHdehN/uQQQsWcCib/dyOVHPvS9SkjFzac/oVz/hk9l9cDWuoMRm3eafg75ciE5DX+a2IAlJNsK6Xjt69/TC/qFy1pIoRK4fTcup28l/Oc3pvMiP3YMCWLJgEd/uvUyi/n76JdkMl/ajefWTT5jdx5WKupyFyrzNqd0/88vfwSTeHYopmeHaYTBPj+5NY5siLpwSyfrRLZm6/Q75P7oPH/v9xdPh/2PBwv+x7UwUWXm+OkljS7PR7/LdV7PxsS9lA1DSBTZ/+jbvfb2XK3nvy5wjYuTQkpHzPuXTuQNwLyx+6I7yeqv+LL2cRcG7SMbuqW8I2DWdenpf3mjdl8+DdIVuZ//k1/jvegEPjY5TCzrR6+MAMh4it5PM2rLgiB/vty99sFJiD/De2EksPhyJ3qQ+T360iU3zOmFZ9tMLj4EoZlRxanoiSVkPPp0qGefWMrHLx5wPTi3YV6MqZNw+xYY3BrBv73ts2/oW3UqbST00hdgjP/HdjpBHGwp/wp84q8W80MG05G3LTCU9MYmClzODc2sn0uXj8wSnFuz5UpUMbp/awBsD9rH3vW1sfasb5X45i2Jah45jXqVZe1+2/7yT42GpKGoGEae2svzSaboMe5oR3TywfDB9ajqJSQUDh5p5iS2z+7LsyCnuGApGAdWQyMXN8xieYcWJX5/Do4QCSHrQj/xn1Aw2BKXlKXhpMbMwIjstA72qkh0XyOb5Q/D1XcLOzXNo92Dur6STml7UXaSiS08jWwXULNIyiuqpVNGlpXK37puRkspDDzfRJ5OUVpYeUR3HF7/MJ4cj0atA5g32vDOHLwf68lbzcinBCSUQNbpqIDU8gIDgaFKzwtg0ZwY/Xr3/yEoaO1qMnsWs8f3p0rEZtTJCOL5rHcuWfI9vZDYqMvZ9l3Jkzxyal3NVJO3cRj5ZfZTYRxjAJpm6M3jOGwz2KK8yWCrhAQEER6eSFbaJOTN+5P7llNDYtWD0rFmM79+Fjs1qkRFynF3rlrHke18is1WQ7em79Ah75jSv3JodgCGRKwe28vOeM0Teq6posG3Ui5Hjh9LJ9YHCQmo4AQHBRKdmEbZpDjN+vJon85cwcmzPpNdfZ/KATrRwNyH65Abm/+dtdlzPRtV68sqBC6zoUXQTniHsJyZ0f5Yt4XpUSYN96/HMfe05hnRvR3M3C/TxIfhuWsFHi9dxODwTVTKi4XO/4rd6MA4PBGZdzEX8Am+RZtARsnEuc/8vhGzZhSGLf2L59J40tMnZISv6PH9+8TKTP/UlCRu6zP2Kd/o6IBvb0qhdBxrkboculuCzFwlLzCQnnusJXDWNt3+LRdG4M27FKp71LBiEJI0Zdh7etPZ0KMP3ncqGEc5M2ZF+P9jLLkzbFcr3T5VHAU4oiQh01Yk+kHc7duCDs9kASEYejF29hx+mNuXBx8cQsZNZgybwzfk0VMmSLouOc/jNFuVehc9OjiYqMQvlIW4rSdJi7lCbWhYVU+rVB75Lxw4fkHM5JYw8xrL6/9u77/Aoqv2P4++Z3WwS0huBQBJaQofQQ1GKIiC9FwUEKfciv2svVxDvtaIihoJhRgAAIABJREFUFxRBRaUJ0qvSlCbSQUpAqqGEQEhCKum7O78/gpiyKZRlyfJ9PQ/PQ5mdOXPYzGdOmTPr5zKiVqHaJHrN/9HlqS+JSNNQXFvxwe4dvFE/f23mxB5l668RXEszWehKK46Cg3swTTs8QqjH7TcVc+KOsWHJUn6OiLvVgsHBh3pdhjO8S03cC+3SyNG3m9PsncPkfpNUPFu9wYqV79DBP2/dm4md14eaI9aQpDlQf8Jufn+vqeXvkOkMn3duwQu/JGFWDNQYMpsfvxlGTQvXddOlpTzT7ikWnjeCQ21e2X6Yj1sVMwaWtp93Onbkv3tS0YeOYeVvM+nqd3MmatQiBrccxrJoqNDzK3aueJbqpfr6ZLFxTHW6zY7GpK/NqzuP8HH4vbp1MXNxTh+ajVpD7uN5CrrA4Sw//C29Cia6uC+k67KsUhyoOX4O31gIOQBdpZ5M+34ix9q8ya7UG+ybMYV1Y+fR28u6xXJw9yfQ3brHsAbFoSbj53xjIeQAdFTqOY3vJx6jzZu7SL2xjxlT1jF2Xm9uVac5mT2Lv2HliWwLny+N3RxO8eaD4fVLnlRSgINfA3qMD6Xp/pXMWfQrlzI0yLnO8XXfsbbKezxdt/g9qp6P8/6CgiEHoOLdsAHB+jUk5RiJirxANpaDLvGnyXy8LQkzCq4tJrK0iJAD0AX1Y8o7S9k4fAXxOWdYOHsTk1r1KHr8yqU5ExZ+xtFHnmXV2W8YO641uxYPJVg7w1djn2d5tBmH0NF8/fWIUoactakED5/NmrQAPlhyhLTyLRk+aZKEnA1JzZdV+iYMH9um2MFtQ4PxTBgUiA4wXV3Lwg1J96t0ZY6+yXDGtim2NmkwfgKDAnWAiatrF5KvOlUn/Cp433ZI3aI441/R645/IHPiTnNw/wli8sy2UJwrUNGrpCu/Svme4xhWzfJ2qqcXHgqARkbqjSLGXxNYP28VV0yArgpD332JRsX20Kn49xzEE94qYCJ25xYOlXB/oKs6lNnz/o96TmaiVz7PyM8OcWDKKP69KR7NtSlvzP2UbuUfoMuZ6kfL8TNZt3M3W1d8yvCGHrYu0UNNWnRllOpSlZDgki5irrTv04kK380m2pTKnq17yBrShTuZKF0q2TEc2baLk9fvousyIIy2j9SkxOvzPaXiUjWEkquzPX06VeC72dGYUvewdU8WQ7r8VZuO1B4wkffbRBOfYeS2Tl9RMLj5E1De9fan8ZsSOfXLchavP8TVzL8OqserVgf6DepG04olXfz1NAhvWfQNk06Xp0ya5YfU03eyeWcKZkBftQeDHnUpudzlGhFWU8eieDPGqONExJtpG1BcWVW8H5vMog8iaPfyFrb9uwOPk0oKfnT5aD5vtZT5jKJoEnRllV5fqouioWFDaukg2mTietQlUgA/qxTITNyOBcxeee7OZ7cBsIdYF2vNuiyaXl+q2qRhw1roiMZkuk7UpYK16YBHQBXuz727mdTInaz6YQ17LqXdCiCdWzXa9B5Mz5ZBuJSmgaO64Ot3d33NpqunOZeUWwLjuem0dZx+ezvQkoiPN0OxQQfgSL1/zeerI48weH4kKThQdegsvvlHLbmQiWLJ98POqW5uuKoKoGFOSSTRBH5WaS2plPPzx0N3jut38XyB4uRHBZ8H9Wup4ubmSm51mklJTMSE3509TH03MqLZu/YHVu44S3KeZ+kqt+jB4L7tqFF49kkxdOju8gS09AzuZoEWRe+Fr1cpy6yWp2F4LTwWRBKPK9Ub18H3AeqxFA+mB/WKIkqgGY2lajmZ4uK4btIABdXN4+Z4i3W4hD3NpPfaExV3Jw+Mg6IacK8YRID7/f5aahiNpapN4uKu505PV1TcPDywYnVakE3skfUsXvoLJ67n3Pw7BUf/MDoPHMATdW2zeovq43Pre6Wv3oeJz7fHp5QVoyh63Gs/Qf/A0qVV2oEPGfb6Rq47euFFElsmPMVbYVv5qK3nHZZePAwk6MooLe0yF6+aKOkJ3tS9ezluAtARXK8+pb1xvjMqTt6BhHhb8xjWoJF2+SIlV2cqe/cez52QoQumXv07nzxyu4wJJ/ll2WLWH86zconehzod+zHoycb42/ChPtW3IQ2C9Gw9Z8QUn0PggHGM9L/3NWOO28Crw95j7w132n28lanKS7R/dTtTh/2Thju/Z0jQvW9bm69u5fOpK7nk14XxL3XFao93CquSRn9ZZTzMpg3Rxa9gb77Ikvm/5L7WRVeR9l2a2v4h5weU8fAmNkQXv/qF+eIS5v+SO+lCV7E9XZreh9o0p/Dntrl89O50Vv3+V8jp8KjRgWf+/RbP97JtyAFgaEbPLsHoAS1lMzNmHCKzFB8zJxzgh/99wsy1J0gtaWPTeeaPHcXXp414d3yfWc+HEfb8N3zStTzmS0t5bugnHEq/0xPQsPzgo5Fjs17i1SlfMHXCK8w6cKePjghbk6Arq7Q0tn8xnV1pRW1gJmrJ67z3czJmFBwbjmB0W1mVoSha2na+mL6LoqsziiWvv8fPyWZQHGk4YjRWr07TFXbM+oBPF+/hUnrulVh1CaL1kFd46+WBtKzsbOUClJYTj7zwIh08VdCyOPLpKF7fFFvCa4QSWf/aAIa9/BrP9XuWz08VN7CbyeGPh/Himito/j34ZNZYauoBXTVGfjmdgYEqyTv/w1Mv/0RsqVfqUnB1dcntetbSSU2zlHTZnD8fnduCV/To9bdxuUw/ztyxbanh50PlsD68v72k+hBWpYmyI+eINqmRg0bu/aeGYtBCRyzVLuQU3DBD+3PZP7Uwd1UDNMWhujZ6XbxmskWZH2A5RyZpjRy4VZ+KIVQbsfSCVrg6/9SW/TNMc1fRQNEcqo/W1sVbvzZNydu1/40bo40ZM0YbM/Zf2ttfb9ROJhjvwZ5ztCOTGmkOoKH6akNXZRRdhkvTtfaG3Ppx7PadllTklpna4Y/aal5q7raqW31t+FcHtOsWq+mGdnLuEK26g6IBmi5otLY+tcgSaNc3jtfqOCqaoqukDVx0ucD32KTF/jhGC3FQNFR/reuXpwr//xWx38tfPK45K2goDlrdV37TbhTYwnj+W61n+dyfIdV3oLYkoVQ71jQtRzv6bvPcfd/8bqnl+2sLY+Qn0Fakx7ks07I5M/cpWp7exPjR3WleGaKO7GPXlpUs23yGFLMGqifhby5gajcfab6XQMs+w9ynWnJ603hGd29OZaI4sm8XW1YuY/OZFHKrM5w3F0yl231Y5UJ1bcyTvS/i8EcOwW170Kmh350/kA6knf6F5T8fJeZGNrF7b7YwtAz+WPspk08bcPauTusevWjql0zEhtVsPxlLWtI+om42RcyRm5g+ORYnRw+CW3Slb6vAPIP8joS9sojvzj/B01+dIC01gnn/aMVPX3Smb/c2hNWpQ83K5UiNPMCWFXOYs/40qWZQHIIYMPktOuV9DM6cxPENq9h2Mpa07Bi2zPySk1mgr96MkMTd/B7bl6Z/PRyeeYGI2Co0q+XEuYhrrH95AMOvDKaBiwH3wOZ07duGIItduyoVu/aj3YStbEjK4Y/pA3gy7SXGdG1CsHsmF3av5ruZc9kem9uCr/3Mc3Qt9apCmRw9GEFmnkaiOW4jyzcnM2SolZcmEpbZOmnFbcjTolPdw7XeXatqjnnuGgv+UpyCte5T9miJciNp0d8tOlVzD++tda3qqClF1CUomlNwd23KnsSy2TI2ntI+DDcUc3659VBx5I9ayp7XtNr64rZDU9x7awsSLRzHFK/99nFvrYaLUuznAU1xqaUN+fpooZZU1s4XtdAij6/Tgv7xs5aZezDtyhePa05F/Qwo5bROX14tplKytIgZXbSK+mLKqjholbt9pv1esJDFytF+n9RIM+Qrl4PW5L8Rt7MTcQ/JTX5ZZQhh2OJdbJ42hnZVXNHdms6toPeoRpvBk1h88ChrXw7HU/6XS2QIGcbiXZuZNqYdVVx1fz82oOjxqNaGwZMWc/DoWl4O9yybLWPFmzpN6uBbTm/5kQhFxeBZhSYNgzFUqE+Tam7oFUtbKigOblRqFEZ1S2OUqg+tX11JxPHNTBvfk+ZBbujz7kZRcSpfh8dGfsiqg/tZOLoBBddR0VVuTHNLx1dUHD2r0rxJlZstSRWPus1o4O+Kg4VtDX4NaVG3uIfhDdR7bjm/LnuLvo38ccyzD0U14FunM8/N2MbB1f9Ho1Is9vI3PY1e+ZIpg5tQydWBv3arqGXym2MX5O0FZUmetxeovkNZETWfXk4AmVw7eZRTMVk4+QVSo0ZVfGTeSYn+fnuBiu/QFUTN75W7QHbmNU4ePUVMlhN+gTWoUdXH4sLZojSySLh4novRMSSZyuFTMYjq1SqUbtWW+yw7+QqRZyOJM/tQvXYIAW53P7KTuu5Zavf+jmjNi0GLL/FDf1mqzBZkjM4uOOFfuwX+tW1dDjvh5E/tFv5Idd4LjngH18I7uJatC1Iig0cAtZoGcM9Kmn2Sb6et5KoJVK8OdHtMQs5WHsD7KiGEKOPS/mDBP/ozYVvu+/nqjX2FvmVuIQX7IS06IYS4h9IPz+DpgW+w+mwaGiqerSbw1YRw6f62IWnRCSHEPWPi2o4VbDiXhqaUI7T/dDb/NJFw6bW0KWnRCSHEPaOj6uiZLMxZyoWqvRnRp4GV15cVpSGzLh90pits/fILVh2NIS0nkWM/ruFQvBnFKZTHB7YmUO+EV7X2PPN8f+rd1hToh5Ppyla+/GIVR2PSyEk8xo9rDhFvVnAKfZyBrQPRO3lRrf0zPN+/XqFp70KIskmC7gFnPP4O4Y3f5lBOMRupPjy9/DILessoQPGMHH8nnMZvH6L46nya5ZcXINUphH2QrssHnD74cQb22oQxIp50U+F7EkUx4F61Iz0a383iUA8LPcGPD6TXJiMR8ekUrk4FxeBO1Y49kOoUwn5Ii04IIYRdk2FSIYQQdk2CTgghhF2ToBNCCGHXJOiEEELYNQk6IYQQdk2CTgghhF2ToBNCCGHXJOiEEELYNQk6IYQQdk2CTgghhF2z3lqX5jh2zprMvN1RpGrOePgFEFi9Lk1bPcojjYNwlYgVQghxH1hvrcukufQIGMm6jAK7V/R4hrRn0PiJvD3uUSrorHJ0IYQQArBm0JkiWfbGK8zaeYmE1BQSYq9w9Xoaxr+OpjgROnIh27/uQ0Vp3QkhhLCS+/j2AjNpVw7z88Lp/Of9hRxNNoM+lBe3RTC1jeH+FEEIIcRD5z62pVRcAprQ69U5rPrPozgpgPE8e3ddwnT/CiGEEOIhY4NOQx0BNWvgowJoJCdel6ATQghhNbYZHVOUW7/VzPLeVyGEENYj00CEEELYNQk6IYQQdk2CTgghhF2ToBNCCGHXJOiEEELYNZsEneLmhosCoHEjORmzLQohhBDioWCToDPUakx9dxUwcfmHf/PCohMk26IgQggh7N59XAIsrzR2T2xLpw8OcUMDFD0ewY0Ib1afWqHVqOTriW9IO3p3qYundK4KIYS4CzYKOsB0lV/efYqh720nxmShCPqavLzjGFNayTqYQggh7pzN2kvma7+zYcNR4iyujKKg9w4hVN7hI4QQ4i7ZpkVnOs9XPZoybn0CZhScg9rQb0hfOj3ShHo1AvH3csfVwwtXacwJIYS4S9Z7w3gxjCcXMPvn3JBzqPc8G379lLZeMhgnhBDi3rNJupguXybGnHv4yu16EC4hJ4QQwkpsnDAKjs5OKCVvKIQQQtwRmzelFIk5IYQQVmTzoBNCCCGsSYJOCCGEXbN90CnSdSmEEMJ6bB50knNCCCGsySZBpxlN5K76paDqdLZPWyGEEHbr/meM+Rq/rNlJvBlQHKhYqaIEnRBCCKux6soo5rQYzl+KJzU1kbgrFzl7/ABbVy9h7e/XMAJq+S4M7SVBJ4QQwnqsF3SZ23m5cSemn8mm8GKaCqpXM1749jOeCpCYE0IIYT3WCzpjAvGJxvwhpzjgHtSIx3oNY/yLo+gQ7Gi1wwshhBBg5bcXpJ7fy66jV8hy9MDb2we/wBqEBLgiL98RQghxv9juxatCCCHEfSADZEIIIeyaBJ0QQgi7JkEnhBDCrknQCSGEsGsSdEIIIeyaBJ0QQgi7JkEnhBDCrknQCSGEsGsSdEIIIeyaBJ0QQgi7JkEnhBDCrknQCSGEsGsSdEIIIeyaBJ0QQgi7JkEnhBDCrknQCSGEsGsSdEIIIeyaBJ0QQgi7prd1AYQoUfKf/LbjAJGJmZi1gv+ooBq8qdO+E00rGmxROiHEA07RNK3QpUOIB0cmG0bXoPs30ZiK3EbBuf00Tv7yL4Klj0IIUYBcFizIzk4izWzrUohcKl4BFXHTK8Vso5ETE02M8b4VSghRhkjQ5WPi4u+9CJzsjde0YSyXtHsAGAj/7wGupyZwLeYqV6/m+XVxCcMCdDe305CuCSGEJTJGl4+RM1cOcV3TMN04xMFEI/1cZNznQaA6eVLeqcBfZrnjWFxDTwghkBZdIaZbQ5Ya0p4TQoiyT4JOCCGEXbNa16XZGMeFhGiSjaa/W0aKDkfnIEI9vcnXIailcv7yr+y/HkVslhkXlxCaVWlLfddSdhsar3Dwz83sibvI1cwcnMtVJNi3NU9UC6NCsWeYRWJSJJcy0jFqAEYuZBhvjvVkEZ9whEOqrtCnVLUc3h7VCHZ2LPRvpuwY/ky8SqrJDKioOjcq+dSgfMFyaOnEJkYSnZWFWQNV0ePsWoNabi4WymkmM+0C51KTyTL/3c5UVUe8PEKp4py/nsxZ59l3cT+nU2JJ1Vwo792MdlXq45/nVAqX04UAn1D8/yqn6TqnruznRMIlrmYpeLjXpVWVcKo7Fa4Pu2NMJupSCu5BgXhI574QZZ51foyNW3lhZmdmJOYUmiCgKL707hnBsoYVULNPsXLXW3zw+08cvpGRr6tQ0YfQv/Mq5jepS+E4uSnzOEt2vcl/DmzgdJaxwLEUHJwb0KflR3zUshPBhc40m/1bw2m38wgZlvatRTJnVQvmFHFoRd+Yt0bs478Bf+/YnDqf/rNGsCoj35ngGvQR+4a/Sp1b7eckVq2uS/9jV/JNmVd09fn3Mwd5v3L+4Mo8/wL1vp/Bn4UeIlPQOfdmzrhlDHVVuRG/kk+2fsDss4eJMZrz1IdCOe/+TBs4n9HlHYssZ7lK77Nv2CCi9r3FpH3LOZSWlW8fOsc69Gv3DTNbhONtl2NjZuK2/IcBQyez46oRxypP8t7ixbzcwtXWBRNC3AXrdF1qmaQbLY9waVoSp+IuknTlM/rMaky/X5dzqEDIAWjGsyzf8gHrsi0fIj1uHsO/DWfwb+s4dSvk9Dg7ON9Mb42cjKMs2dqd1kumccjCfjKyb3DHM9LNKSRn5y+1lpNEsqlgGGmkx5/gXN5NtUySszIK3QRoprMcj88qfChjOpkWpxRqmDJPcSIpiYP7+tDwq368c/IQV/OF3M0yJCzn3zvXcaOYcmbGLeVf85vTfetCDuYLuZvHyjrBkk29GHH4fDHPtJVh2buZPO5DdlzNQUMj88J6Jr7wOSfs8mSFeHhYp0Xn8CQzxkQwKu4yySYTGmCM+YKRW34kDo2U6I/p9vsa9maY0HCmSpUhDK/fm86V6xB44zM6fD+NMxpo5pybXYr5mZIWMvL7USxNMaKhw7vCYF5q9Szdg5pQ18MFY8Y5fjs+jfd+m8OOlEyiz73GwI012Ne9Gz63WiIG2nbczfF6J7iYmXnzwm3k6P6RvHk2DrMSzMDOX/CMd+GuOkVxxsurHmHe+VteOu9/sWbcoxy5fo0bposs3vgc8xKMoJnzB7lSgWf6HKZe9Bmum4wknJnA8AOHyUHDrBW+QSgXMoND/xzFHynJZGla/nKSwoFd3fj29F7iNQ1FX4V29YczpFZnWvoFErOvA533ncGIhsmce0NQVDnN2UfYFg3ggF/AUF5tNYxOlesTrLvG3mMT+OeW1Zw3X2P9b9PZ1WAaj9pbt172eSIvm/IEvEb2xXNcyIG6D0GPrRD2ymqXKifX2oS71r715yxWYlAAzcTlCyu5DCgODRjVbRFTG9TF7a8N/d5gVocEPo5MpU6jd+hTsN/SfIaZa8ezLMWIhoEa9WfzY49h1MxzJjrnUB5rNpN2oe14Zu5TLEzKIfLoa3zUqCMfB+bZoc6P0MrtCM1TSk4ayM3CcgQFdKRz5dt7vMDVI4w2HoD5KHsMxfTvGYJpWjUYMBN1/ROK7wl0wt8vHH8/C+XULrP11GVAwbX8KGb1ncrT5W/VJrXbzOLdjI/Zkl2HEe373KrnosvpSas2K1jZvgP+t9r73nRq+SVvX9rGiNNJGJO3sjnWyKMBdpZ05R6lR0df1q6Jy70xUXRU6tSdcHnCRIgyzWZXKkUNZWSfjXxVq2L+/lPFnw5t5tGhjeXPJZ6dzMcXkjCj4FppIksLhFxeOo9+TGm/lI2rVhBvPsPCQ5uYFNgD+xtxUXDwHsn3T39FT7f8vdGqawfe6N2BN0q1HxXPau+zIF/I/XUIbxr6B6M/nUSOOYrIpGywt6BTgxk+ew1pAR+w5Ega5VsOZ9KkXvjI3GQhyjQbXan0VGs0nSkFQ65ECaw/soorGqBUYWiHl2hU7Bmo+NccxBPOq1iUYSL20hYOmXrQ1t66oZRqjOwypVDI3b7y9Gw2jGoWd6Pi6eRxs+WZQWq2fQ5cqX4tGT9zHeNtXRAhxD1jk3tVRdeM0eEd8bzdD+bsZPOlFMyA3rMHg4ItTcUvwKERYb65yWZMPk5Eur09Bq7gVGk0L1S77dosTG1AeGDR7V1d3kctLIwlCiHEg8gmLTp9+S50szDJoySm1NOcy8y9wBoTp9P2vem3uYck4tPNcNctnweJnno1uhFyD05JNfjiV+SzHEIIUTbZ4Iqv4lW+IdXv4MhaTgaFJ9+XnqJ64etkTyEH4EXdCtW5J72xiu7e7EcIIR4gNmjRqXg6+9xRwqrlfPC4+Xu9Vx8mtmif53GB4inocfd7gv4edhZ0iic+znZ2TkIIcQ/ZpOtSZ2FZrdJQyzWkgYeerYlGTOk5BNYdx0jX+3+RN6du5fM9K7nk0oXxLbtS9S6LcHfvvtWhk5wTQogila1LpK4ZPUOC0QNa1mZm7D9EZik+Zs44wA97PmHm6ROklvpgGpZfcGbk2MGXeHXPF0zd8gqzootYuqXUzMSmX5d3qQkhhJWUraDDiUfCX6SDowpkcWTPKF4/F1vC63QSWf/zAIZtfo3nlj7L5/HFTYtXcDW43JxCn05qjqX4yeZ8YnTuSiqKHr1aVBXq0N3sVtXMxqKXGjOfY8v5s3e+FJm4p9KPz2Vs2xr4+VQmrM/7bI+V2aVClHVlLOhA5zWKjx55BC9AMx5jxrLHGXnoIAkWm0RpnDoynheOXsQI6Fwb0Mi9uG5TPVW9g3AA0K6y89xB0gpsYUpazLw/EzADqmNdwryL6P1Vy1OhnC43NHMiOZtkIWC1JPbtGscnlzOlRfcgMB5j6rPjmP3rn8QnRHN01SQGjl/MNck6Ico0K43RGYmKWs6Ply+RYspdYNiUeJw0DUAj4coipvy2PU/K6nFxrctjtbpQp+BbpAtxJKzVIr5LfIKnD50gLTuCeT+24qf9nelbsw1hfnWo6V6O1MQDbPljDnPOniYVUNQgBjz+Fp2KXc5JpWJIP9o5bmVDVg5/7BvAkzkvMSakCcGOmVyIWs13B+ayPd0MOFI77Dm6Ohe1Lx8erdIIw597yDIf4MMlg0hvMZBWvhXxUG5w+dp2VkcsZM3lKNJvfcZM5J/TmZzmhMExiBahfWjtYQBzFLv/+JG9ySlkaxpgIjI27WY4JnAwYgqTL/xdm4rqgr/fY/QOqXNr8k5+aZyOXM7PMTHcMMWyNy33Sq4Z/2Dt7smc1jnj7d2aHrWa4pcZwYZT2zmZlkZSdNTN1vPf5XR0CqZFSF9aWfF9NqaY/axau5vIxEzyvcDBFMnx3C8VWsJBFk2ZzPa8t26KDmefUNr27k5YaZY3yTzKwYi8Nx1m4jYuZ3PyEIZ63ZtzEULcf4p2dzMhLMtezICpQ1iWdTu71lO71U6OdAynVEsLatfZtXs0z+xYzTmLXYx/UxxqMbjTEr5u0oCSHzHP5vj+XjyxcSNXi6waByqHfMrafv9Ho+IKm7mFl+b0YFpsejEtNgPezs4kZSQX6IJVcA39jouDn8FwfACBK5aRVGLZ8368Nq+NPMJHFtbqNMVPps2sN9lb6LU/eVVk5ODTjL7Ygkd2nyyma1XBvdZ8Lg58+vYXACiVdFYPq0LfBXF3+MZ3PSEvbOX4/x4p+XtlPMzbzcN593D23/9fDk347+97mVTPzpY7E+IhYp2uS31NmgRUxl1VS1is+NYHcHauSYsKlUrfxFR8aN16JRHjNjOtWU+au7sV+KyKU7k6PBb2IavG7GdhqUIOwEC95sv5dcBb9K3gj2OeM1Aw4Ovbmeee3MbBQSWEHIDTY0wZuoH/NWpLNUd9vrpQFGcqVhzMOwOOcPap12nr5o7DrS1UHAyVaVa5Lq6Ak08Tmrjn/ffiKYozvr4tCHOzXJuKcx2a+PlSTrG8PwUDnp5NaOhpoIJ/E6oZ9EUcWcHBUIlGFapTYkP8jhmo0rAxQR4G1Nt9B56iw9GrGs3CAkv3fKC+Ea98OYXBTSrh6qDcPGcF9bYPLIR4kFinRWcTWSQknediagxJ5nL4uAVR3asCLnd5jcrOvEJkQiRxmg/VfUMIcLzDO3tzKjHJF4lKuU6OYyAhPlXwcyhzQ6QPiVTWPVub3t9Fo3kNYvGlH+hvfyuBC/HQsKOgE+LeyD45jS6tXmZrEnj1nc+55U/hbetCCSHumDQphMgj7Y8F/KP/BLYlmVEM9Rj7Sl8JOSHKOBlhFwKAdA7PeJqBb6zmbJoGqietJnzFhHDrjT4KIe4PadEJAWC6xo4VGziXpqEpj0jjAAAAZUlEQVSUC6X/9M38NDHcDl/SK8TDR8bohLgp7eRKZi69QNXeI+jTwEvuAoWwExJ0Qggh7JrctAohhLBrEnRCCCHsmgSdEEIIuyZBJ4QQwq5J0AkhhLBrEnRCCCHsmgSdEEIIu/b/IXDtVyb5ab8AAAAASUVORK5CYII=;imageBorder=default;strokeWidth=4;fontSize=32;" vertex="1" parent="1">
          <mxGeometry x="450" y="226.5" width="442" height="289" as="geometry" />
        </mxCell>
        <mxCell id="k0ymyrdRpFGEkxgsoQmm-23" value="&lt;font style=&quot;font-size: 32px;&quot;&gt;or&lt;/font&gt;" style="text;html=1;align=center;verticalAlign=middle;resizable=0;points=[];autosize=1;strokeColor=none;fillColor=none;" vertex="1" parent="1">
          <mxGeometry x="559" y="892" width="50" height="50" as="geometry" />
        </mxCell>
        <mxCell id="k0ymyrdRpFGEkxgsoQmm-24" style="edgeStyle=orthogonalEdgeStyle;rounded=0;orthogonalLoop=1;jettySize=auto;html=1;exitX=0;exitY=0.5;exitDx=0;exitDy=0;entryX=0.5;entryY=0;entryDx=0;entryDy=0;strokeWidth=4;" edge="1" parent="1" source="k0ymyrdRpFGEkxgsoQmm-13" target="k0ymyrdRpFGEkxgsoQmm-3">
          <mxGeometry relative="1" as="geometry" />
        </mxCell>
        <mxCell id="k0ymyrdRpFGEkxgsoQmm-25" value="&lt;font style=&quot;font-size: 32px;&quot;&gt;verification by&amp;nbsp;&lt;/font&gt;&lt;div&gt;&lt;font style=&quot;font-size: 32px;&quot;&gt;symbolic execution&amp;nbsp;&lt;/font&gt;&lt;/div&gt;" style="edgeLabel;html=1;align=center;verticalAlign=middle;resizable=0;points=[];" vertex="1" connectable="0" parent="k0ymyrdRpFGEkxgsoQmm-24">
          <mxGeometry x="0.0434" y="-3" relative="1" as="geometry">
            <mxPoint x="7" y="-51" as="offset" />
          </mxGeometry>
        </mxCell>
        <mxCell id="k0ymyrdRpFGEkxgsoQmm-30" value="&lt;span style=&quot;font-size: 32px;&quot;&gt;QCP&lt;/span&gt;" style="text;html=1;align=center;verticalAlign=middle;resizable=0;points=[];autosize=1;strokeColor=none;fillColor=none;" vertex="1" parent="1">
          <mxGeometry x="1010" y="312" width="90" height="50" as="geometry" />
        </mxCell>
        <mxCell id="k0ymyrdRpFGEkxgsoQmm-39" style="edgeStyle=orthogonalEdgeStyle;rounded=0;orthogonalLoop=1;jettySize=auto;html=1;exitX=0;exitY=0.5;exitDx=0;exitDy=0;entryX=1;entryY=0.5;entryDx=0;entryDy=0;strokeWidth=4;" edge="1" parent="1" source="k0ymyrdRpFGEkxgsoQmm-31" target="k0ymyrdRpFGEkxgsoQmm-13">
          <mxGeometry relative="1" as="geometry" />
        </mxCell>
        <mxCell id="k0ymyrdRpFGEkxgsoQmm-31" value="&lt;font style=&quot;font-size: 32px;&quot;&gt;LLM&lt;/font&gt;" style="rounded=1;whiteSpace=wrap;html=1;strokeWidth=4;fillColor=#dae8fc;strokeColor=#6c8ebf;" vertex="1" parent="1">
          <mxGeometry x="2050" y="899.5" width="90" height="80" as="geometry" />
        </mxCell>
        <mxCell id="k0ymyrdRpFGEkxgsoQmm-40" value="&lt;span style=&quot;font-size: 32px;&quot;&gt;loop invariant&amp;nbsp;&lt;/span&gt;&lt;div&gt;&lt;span style=&quot;font-size: 32px;&quot;&gt;generation&lt;/span&gt;&lt;/div&gt;" style="text;html=1;align=center;verticalAlign=middle;resizable=0;points=[];autosize=1;strokeColor=none;fillColor=none;" vertex="1" parent="1">
          <mxGeometry x="1820" y="840" width="220" height="90" as="geometry" />
        </mxCell>
        <mxCell id="k0ymyrdRpFGEkxgsoQmm-44" value="" style="shape=image;verticalLabelPosition=bottom;labelBackgroundColor=default;verticalAlign=top;aspect=fixed;imageAspect=0;image=data:image/png,iVBORw0KGgoAAAANSUhEUgAAAjYAAAD0CAYAAACICWyjAAAABHNCSVQICAgIfAhkiAAAABl0RVh0U29mdHdhcmUAZ25vbWUtc2NyZWVuc2hvdO8Dvz4AAAA9aVRYdENyZWF0aW9uIFRpbWUAAAAAADIwMjXlubQwOOaciDAx5pelIOaYn+acn+S6lCAxNOaXtjIy5YiGMTTnp5LiywmEAAAgAElEQVR4nOzdfVRUZ57o+29uCtmmi7ZAOFatm+LFAYPYakn3ING0MnqPknhHTGuPdEgvyUlmJLOSlrl2n+g458ScmR7tlXZiWtcK3mOWuCZM8ERXwDMa9E5sNYYGphtKbRGFlrfuVeXipcquamtDVQ/3j10o8l5FFSD5fdZyJVBVez+192Y/v/28/J4n+vr6+hBCCCGEmAH+j6kugBBCCCFEqEhgI4QQQogZQwIbIYQQQswYEtgIIYQQYsaQwEYIIYQQM4YENkIIIYSYMSSwEUIIIcSMIYGNEEIIIWYMCWyEEEIIMWNIYCOEEEKIGUMCGyGEEELMGBLYCCGEEGLGkMBGCCGEEDOGBDZCCCGEmDEksBFCCCHEjCGBjRBCCCFmDAlshBBCCDFjSGAjhBBCiBljegQ2HhufnTzKD0/W0uoNZgNebLfP8bdHP6LkjivUpfvK6HHcpvxkMT8oPkO1I6gTISZJV//1fluudyGEGEg31QUAF3XnS9lX1wmKjqa16SREB7aFno5aDpy4TI0KbTdXsWV+FJHhKewM5aX1Wjl7TtTRBmBQyJnqIolReOl1d1DffJMrze3ceCGf3StNRE11sYQQYhqY8sCmq/4c+2o6AUhOX0VGgEENXhuny89SowJKCnkZpkkIajzY2mzYVZ/2o04hJs5EQlTEMOXz0Gqz0d3/XgCdjllRJhbFzR7X3nocNuodHvAN3EYU8WYTc4fZZWBc1F06wZ7zzbgBY8o6dm9ewbJB3yW8ZZhaPS4bTR0een0+QAdR0aSZosNzHXkc3LA5/PvyG+36GVYEpvStvOspYcfZRq6cL+e0eRt58eO7noQQYiab0sCmx3GNQ+V12IFZ5nXsXjM/wKdODzcunORIsw/Qk52Tw/Nx4a5lvdiqS/j+6WZ6B/xWn7KZD/PSMT2yew91Zw+zo8Y5dDNKCm8X5rN2jC/c46hmz+HTWuA2SPKq7XywPj74Ctjr4PNTR3nnuhPQ89wLeexeGT/kHIS1DFPNc4cjRR9y8pFTZGDLq2/wg/khDhS8NkqOHuaIfehLs8wv8OGrK0kY9+UbQcrKrfzYeZQfVbZzrPwyltfWs0hiGyHEV9zUBTbeDirKy7ngBpQk3sxZQUqAN+Wu2+fZd9lOLxCfsZntSwJt7glGBLOizViMHrp9KvZOJ25Ar9ejH1Ip6YgxmrEYFdwA+HA7O7GrgBJNzDiOfqQummSzke7+oRQ+N02dbm3bhgl0uXkdfFHuD2p0Zl7Ky6NgwfBRVtjKMB3ookgxm0lWPPS6nbS5faCLIiEqHH8aCsb4JJLxaD8OvH4M0cNcP2OZzbI1G9h4+0NO2mv4pDGDRZPyNyCEENPXFAU2XhorT3GoUQX0rNmwmWxTgHd1Rz1HymtoA2YZV7F73QLmhqOow5i7YD0/XbAeXPXsPVjCBVUheUHcMK1NESQsz+Vnyx8Ums+LD/NOo0qMOYVx9RxELaAgfwEF/h9dbWd4/UglbcSyPF4f5DfwcOPCR7xT59SCym15fHe0woSlDNNERBzP5xbwPF4azxXx6mU7GMwkBx5ljGNf0azNeY21/T+7bvOPh49T4daRvMAU3PU728zz6WZOn2+npvY2toXLCfRPSQghZpIpmRXlunOBfRfa6QWMy3J4Mz3A8QxeB5+dKafCCejMbN+yZkqa4F0djdSrgC6O5aZxVPCuDqptKhBsRealu70dO4AhnjRDcDXYw5YuPWtyNo8e1ISpDNOO1019uzbWyzjeoHOCXI5G6t0AseO7foYVQfyChSQD7vab/u0JIcRX1+QHNq7bHCm/TJMPiF3B7vVpAVbwXlpryzl00w0oPPfCZjZOySOqF3tjm7+CH98T/sQrMjdNjR30AjHmFIzBVL6uO5Sc0Vq6kldsZWfAXRchKMN0pNqos/mAkVrfQi10AWKkPg6jHlA7qHN4QlVAIYR4LE1uV5TXwRdnyjndidbSsnkNywKsQVxtlew726jN4Fmcw5vpcZMwxsOL7U4tn1TWUe+AmPjF5GTMxx7QE34IKrIJt/h4uFF5hpOdgGEZ21cFOlg7FGWYBlw2vqj9kvKbNty6OL6dsYLnlIetb8uCbj0JRAgDRJ2eGAVwq3S7VWCmRJtCCBG4SQxsvNiun+HAdSegkLEuhy2Btvd77lBSfp56H2BYxs4NS8I/nsBj47NTH7Hv5oBpM/Z2rtQo6PE/4c8fzxP+xCuyCbf4OG5SUmMHFJ5bv5blQTRLhKb7ZKp46bp9nj0lldo1BICd+ubrlCg6bYC3wUxaOMbXDBaWANFHr2/sdwkhxEw2aV1RPbYaDpy5STcQs3ADOwPON+Oi+nw5/2IHMPLS5g1BVcwB8XZQfuKoP6jREb9wFbs3r+M5A4CqVYS6OJaZH4fxNV5a62u1KduGhXw3JZjZM4/3+Jqu22f50XF/UKNPYuMLm9mdYUYPuP15hh6v8TV+PhW3CqBDr0x5aiohhJhSk3MX9LRxsvy8v1JdzM4NiwNsafFiu3aGAzWdgA7LuhzyQp1jZAgPNy74Z27pjGzJe5ntC7RBzhZdO9YTNwN6wp/y8TVeJ9br/gHbC5aQHNThe3zH1/Q4rnHoVA1NQMzCjby7ebmWXsATS2vbEX/APN7Wt4kaECDGTjxA7HHbaHMD6DHqJbARQny1TUKLjYe6C+UcafcBsWzJ2cC3owO7kfd0XOdQ+XXsgD7lBXauGJpELtR6bDUcqmynFx2WdVseBDUAMXFJxPvrj/FN2x5Ykc0PfnxNxwRafNztfNGhJTK0pASZfn+iZZgyLmrOndFyJhmWsTtn+cOcSbOjWRbnDzTH2/o2YW6amv0BomniAWK3rVlbCkNvYlH0YxRtCiFEGIQ9sOmqP8OBSjugI23VZl4ZIQnciLw2Tpef4YoK6BeyMyc9gOyswXJh/bLGP5ZnMXlLBneb+cAHoJA23vE1DyqypCDH1zRT7wR0pqBafFwOm5YYUBfHMpMSeAFCUIap0tNxjU9uagkFLStWYxl0wh5kkH4sx9e4aKpvxw3MiksiObhTK4QQM0ZYA5v+JRPaAH3SOnauCbSlxcONC+UcaVYBAxtzclgbYGtPUFw2Pm/UBgsnL8kYWhG6OuiG8c+gCcn4muYHU8uDafHpVV1a15k+DqMSzDGceBmmhhf77ev+cTUpfDdt0Cw6r0q3U1srYtxJEycolAFij+0anzRq15Zl8XxiHpfTIoQQYRK+wMbbwYX+JRP0KbyZk0FKgDdd150LHLisjQtJXrGZ7WmTs35xj6OZJjeAkbULB7fWeLHbbAFV8BOvyCbe4tPr82ktEzods4IoQSjKMDXUh+U2LyFt8JhptYM6hza7bXytbxMVygDRQ31tDVZ/y+KQoE0IIb6CwhTYeGmsKX+wZEL2hiAWp3TVc+hUJU0Eu0Bm8NzuDq3i0ceRPLiFyNNJzTVtFcMYcwpGnYu66kuUVN+hyzvc1gZWZKYBFZmX1vovKbl0jdaxcqqN1OLjauOzS+f47I5rlA9rZvWPKfV5cAczJTgEZZgSXjd2h9YiY0yKY3BY2dVci9XNg9Y3V0c9n5y7xBcd4Up0pw4fIHod1FWfo6S2jfEeyZ6Oa5TUagPq0zJWDmlZFEKIr6KwTKFwtV3gwPlm3AS5OKXXwef9SyYEuUDmhPRX/EoUj04y8WJr/JxP/DNo0ubHMctWyaHTl2nSmdHPf5WcIQGcOvxAUVczJeVnqXDrsZlS+OGCkb+gy9FMkxMenVHlpfXaWQ6cbwezHsurK0edaTZLifJPa3bT7fMCgQWaoSjD1NKhn6082qLhaeOTS1oKAm18jZua8lMcuqlidJmwbFkQ+mDaZaNumADRZavkwOlK2pQOjCkvj7nqO94OLpy7oM00jE1ne3qg6ROEEGJmCn2Ljes2x05dpt4X7OKU2pIJB667wb+WUcALZE7QLH0UMQCqi+4BrRs9jpsc8ufi6R+E6+70d0vpTcQPN/DUM1JFdk1rKVBMLIobLb700m1r12a9DJxR5XVivWnTpm+bTWOuDB0VbSZeAdQObjgCbbIJTRm67lzih/v2sGrP31NwspbWYVu4Qk0hZrYO8OF2qfQ8+L2HG5fLOak1vmmtJ7i44Z/1FW+ODrLLbnQ9/d2SgwLEtpt3tAVd4/znaVQeGitPceCmG4hly4bAM3gLIcRMFdrAxuvii3PlWsp+XVJQi1O6bDUc6F8yYVkOby4JcIHMEIiKSyFND7ib+bzZAXix3b7EnqITXOlfZFAxYFSc1NRqM1KMCxYOnxvGhz8brO5hd5DXxoXL2vR148IMMsYaEO3zByK6h9voarxESbMPdGZy0s1jtyzok1hr0gFaMBJwx9FEy+C5zbFT56lxA6jU153jk+ZJ6L6K0JO20MQsoOnaNdo8aNmkTx5lx2X7gxlRRlM0vbY6avzLfXx7viEs110v/WOdIh4cxx7HTUpqtYzQGRlLxhiLpgX+e85rqQiCmmkohBAzWAi7orzYrpdzoE5bMuG5F3ICX5zS00bJyfPaYMigFsgMkagUvrsqiStnm7lw4jD1Z3zY+wem6BRm+VR63dfZd/imlrFWZyYvI2n4il3RWnYqGlWunDjIX3xuYJa7kzYViM1g55jfMYIYkxkj7bTZL/PqT6+RrPho63TT61+aYlzHOSKajBULiWm+TlvtZa5kmAMY9xSCMqgq3eojv8AecMtRMCJIWLKG7MrjnLZf5vWDtcxyu+mPT/UKuFWov3CUV32qfw2yVTwX6JiwcYqKTiJNX0mbu50Dh3/KJwYFt7OTbh8YF2/gzcWjddu6qLt0gj393bzLtvJ2wDMNhRBiZnty7969e0OxoZ6OX/IPH39Jkw+Mizfz9tr5GJ4MZAsuqs+W8E+33NoCmXkvsu4/TdWAjSeZG78Qi9LBrxrt2Hv/A1BIXryOt1/O4TumP9DU3snv7vtAF8vGzbnkJUcNHyU+OZuUPzGj72qmpvM+7vv3ueeDGPMK/u7lbFbMGfsgRUYn8c24+9z6ze/ouK/Sfb+XP+oMrMnOY/fKp3lqnN/qKf1c/thcy6+6O6n53SyeXZTI3HEe4gmXYfbXiY9SaWv/HfZegKdYnJnJt+dOQntc5Fy+mWbC097I9c77WouJIYktOS/z9n9eiKHjd9zq/D1uICZlHf/jz79JQriKFRmHJVlP953f0ORWuXf/Pp7/0JG87EV+/GI6T490PjxtlJ84zn+v1lqZ4hdv5d0XvzGNxzQJIcTUeKKvr69vwlvx2Cg5XqRlF47N4N3XcgJex6mrvpTXS65jRyHjhdf48cppMhjS68LmhpjoqCHTvrtsnbgNsSTMHk/t4qXLZqPNA/poEynB5OPxOGi0OXDrokg2xREVxCZ6bF+y5+hZalSIX5bHuzlpgVWOEyqDl9Yvj/P62WbcsRm8X5DDskmeNu5yOXDrojEN3q+ng0anjnjTw65Pl8NGk8PzsBtuRDpQZhNvMo07UMTrotXWQbdvNkaTaWh5Bui6c4kDJ877u0EVMtblsXv1/Mco87MQQkyekAQ2XfWlvFpynW6MvPTqaxQEuo6T18YnHx7mUDvELNzMB1vT5Uk0jFx3zvGj49oA7+RV2/lgffwkBJEeGqtPsef0TewY2JhXwA8nKS9RMHpsl3j98HmaAvhMzMKtfPjykpAGHD22L/lR0VmsPpgVu5A3c3LImT99j5sQQky1kIyxmZu0mp0vRGOPTmdjMItTRsSyZt1GetsjsKRLUBNuUfPX835hEhXXbOgXhDupm4fWa5c5cqmGK3YVrcVh66QlWwyaTodeAdQx3/nALCX06xlExqaRt85NGmaez0ibhOVEhBDi8RaarighRuK6zU+LjnPaCeiMbNycy5tLJEOuEEKI8JDARoSdy1aP1ROHZVKWLBBCCPFVJoGNEEIIIWaMsK7uLYQQQggxmSSwEUIIIcSMIYGNEEIIIWYMCWyEEEIIMWNIYCOEEEKIGUMCGyGEEELMGBLYCCGEEGLGkMBGCCGEEDOGBDZCCCGEmDEksBFCCCHEjCGBjRBCCCFmDAlshBBCCDFj6Ka6AOLxojrBagXV/7NihMzUoe9ztoC1ZZgNKJBqAaMS3P5brGBXht+nEEIIIat7i4CU5cOLxwf8IhI+sELBwEDDCYWZ8P6t4bex9C2o2g+BxjbWg5D1N3AvEvZdhF2ZAW5ACCHEjDc9u6J8dqwtVTS41bHfO5NNw+OQmQ85q2H5UogE6AHn4OIZILcAVi+H5QP+JURqL6vOhy0+gbBehHv+fVZYg9tGsFQnVFWBffqcCiGEEMOYhoGNSkNVLpnHnyXrX8uwT3Vxpsz0PA7GLCi7CFVlkDXH/8thKvvMQrhYpQUD/f8O5o749nHZVAhLI4EEyM8KvMVnIsry4dlnIb94cgOq4Xm5Z2+n8/5Ul0MIIaafaTnGRlVVevz/VX1M01KGnxyHRxmywDoVUYUKqn+/TucU7H+Qe9Zi/uGDX+JdtI2/e30FsRFTXSIhhJg+pmGLjRBiNN77HryA574H31QXRgghppnQtwH47FgbSimylmF1q+ADdAZSn84m62mFql9XoHxjP/stqQ+6ElTnRYp/WUGLD0DF3tIAwL3OUvZXNGAYVEpDbDb5liyMA35vbymmuKGBgQ/UBkM2ud/KIlEHqttKWVURxU1WnICipLIpcxcFqakoqLQ0FFPa0uL/vIHExE3kpz4so/O3pRT92vpg+8OVYVhqAxcbyij9dcWjxyMxl/xvbSIr1vDwrSE4DqGmtkBZGVRchAY7KAZtnE2hJXz7fLDvBigqA/vgVhIDbMqHTON4NwTWCigqBmt/n55/dlZWJlSVgpIL+3Mfdm85q7R9O/s/r50KGipgl3NoN1hiFuRnh6F77H47lZdvwIJn+dP5c4gAiNBO+COn3Wvn15W38Mz/U/7U/JT2HaxlFJdWPejGNCRmkZufTaLaQFnRforKGlANiaRmZZGdtYnsTOO4y+9sqKCswoqamk1utgXD2B8RQohJEcJZUSr2poMUlO2m/A+jv3NOwjGsL+eTqNM+13AlG8vnl+gZ766eXM0HBRUUxPpvw74Wij+y8ErrvUFvXMpbeWVssu8i//MTDJ2kM4+tOVWUptrZdfRZftI14KWvbeOzgmKy9QB2ykotvHjr7oA3LOe97RcpHGnesq+Fsopc8n9VzeBSDfwe+/LL2PW0gZAchxCzFmuDgG8NU6B5S0G5Cq3Avl+Mb4ZS/4yqhO1gLWLMyrBqFzz7k+FfW/0BVBSMHUjYK6CgAMpbR3/fnPVgLYNE/wZLN8H3ysfY+EDLoe4iWEJ8Kjorf8Y/HL+BBx3zvvUd8v9iFXNv/0/ePnoV74KXeOcHf4rH+r8p+V8XaP49kPQXvLNzLcYIJxUFFp4/MvCLz2P11kycFeVcHXJRzmH5jmJK9296cAxGZC8jP/NFjrcCRLL6PSsVhamTOuZJCCFGErJnfedvD7KpZDfVRPJMQi6bns7E8nSqvzXBScOvD7L36iXuDvmkQuq3DlJMKVY3aC0VxRy/ew++tp7tqZYhLRVGYy65AytzXSKbsotxWv1Pp2oDZVfLuUULZRXZHOy6RQ8wb14O2U9nkmlooejzI1zFSYvbiapYKMg+hqGpAXtnBUW/uUqPTx0wSNRIdnYpH8RW0OC0UnbjHK34x70Mx9dC6cksvnerFYjkmYR8NiVnkWXUnojtDbvI/1U1PX+soqLFTuHTBpRQHIcQejC1Gpi3GvYWQqoBnFbYvxeqr4Zlt4+wFMIxAzT0t9ioWuvKpbsPx7yMxlkFmzZBdQ88sx42ZYGlP4eOCg1lsPcIw1yTsOkgfJAJLU7tvdYyONcKc1ZDfubQgCo1G1LDcCpi//Ql8po/oPjyb7n7y//FT6yXWPAMeAFf1y/5l/2fcuO3HgB085ayNnspcyMADGQVFvFB4kVaWhooO1LOLe5y6UQ5RCawfkch+dkWjNipKNrLwfJbVL//Iln2Y1wszh81uHE2VHDxQbzUQ0OVFSepjLcBTQghwqovJDx9df/f8j720pfw8ad9Nu9w77H1ffrxvD720jfn2LG+5mHf8+i2Rn/fKFyf9m3dRx97/f/+fnXfW422Ps+DNzj66q6/17fvi4/76lyPftTRuL0vYS997Nva9+mg1/r6+vr6Oo71rf97+ti7tG9fu2eYN3j66r5Y3Re5lz72PtO39Re/6HMMfkfHx31b36VvzqHtfR93DLcN/3YmehyC5PhFX9/SyL4+6Ot7ZltfX/OgInqa+/p2LNVeh76+fb8Y33Y/3aa9P2F735BjMi6evr4PVmvbWP5eX99IR65f3T7//rb19dlGKtNW7T1z1g/9ngP3e2y9f7/7xt5vODh/82XfsX07+v7qr/5q6L+//m99/++/NfQ5e0f4sO3Tvq3z6AP6mLO6b98vhh795k+39SVAH8zr2/px8+iFaf744fZI6Nt6rHlKjokQQgwnpIOHtTQl6gjTYY1YUrOYBxgNRpRJm+GTwLZNxexPHjh+wIDlG4Xsei4Xiz7Eu3NfpOiXWnfS0m8WUZSZOaTLRYnNpfSHfTjfKApbi8tEXDwIV3u01omyIoY8vSuJULgL5k1J6QLjT50zYguPZZP2PYyJoEy/U/HAnPkryN+5i21Lv/7oC7MX8dKu/8Zfrn2GOeOYHbU0fy8FmUM7ARM37efgtgTgLmUHS0effZaYS2lDHZ++9x7Hfn6R4vxE6YYSQkwbIQpsFFJTc8l8ElpvfY/Uw5so+LdiKloasA/orkm0lGJ/u4+GTdmT1mwd+X8WUpiaOEl7A/tvS6m4Bzy5nsJhgpppzw6lF7X/zSoYuXvFaIHUyOFfmy5SsyFzDrQe1wYKF+yHikFJ9hJzwd4HDUVM466U+7T/+wl+9vbbHL/6+0df8tzgX/a/zc9OVHLnnneM7SSQuWmkgb5GsgsLWAr0WCuoahmjr89gYVNhIflZEtQIIaaXkLXYKE8XUpr7HtvmzaPnXjlHvnyF548vxPTjJ3jinSdQfppJdlkRFXb7JCY4iyTzG9mkTlrrkIq9swE7EBmbTabh8bvlq3b/uJJIyBplPSZFmd4tHACKBUrLYNty6LkFR3bD88+CaTY88YTW8pRdMPlZjAPh7fx3iv/+R/zD0Qvc6ILZSc/y4voFzAZ0SWt4af1S5tLFjQvH+cl/fZv/WWln5PBGGTUIUYwWLAlATwtWSbEshHhMhbQryphcSHGBnb6dN/n55vfY/ierWT53Kc9ERtLzh2rOXX2d549YyK2yPjItO3yMpMaOfwprSKhos5p0o1ci095jELiMhzELiqugzwE//xS252jLOzwzD3pa4dwReH4Z5BYxSddkYO41/zvW3/rg6wtY89rf8Y+78nnWPFt7McLIoj//a975x/+HF5fOBbqw/uIWYzbcjERR/OdcRR2yToYQQjweQtaWoXZWUGxtwPCNfHKNqWR9I5WsbxT2v4r9t2UUXznIwVvVlJ/LZVfsRYqSg2j89zlpsDeg6i1YxmwRUSZxLI/GYDAwB7jnttLiwz+lPQwCOg7jpxjAoAD3/C03I1DV8c1MmkpqAxSXgSEbci2QtUn7189eBcVFcPA4lL8OuxKhKDuIHTm1PDeGVEgMcd9jrCWfXX/XxWyj+cEYms7+tHxeHz4gYs4zZP/1O3yrvR3f182jZCJ24hzlpKnOFlrsAAYMwS6/LoQQUyxELTYq1l/u4vUv/4aCfy2lYcg0aAXj07nsyr1IxdrVRHKLil83BPWEbG8oJPvDZ8ksLRpmP+Gn+pyjdFsoGJ/OJhXgXgWlLaOs8ORz0vDbKqxBPhmH7TgYH3ZBVZSN3Ipht0LDuBPuTA1rMby+Gwp2QcMwh9mYCbuKoeI9bZDxaN93NBf3wrJnYdP+MLT6RDyF0Wx+dGCwv0Xm0dMeQax5PsZRRxDfxXqxZeRzerGMqntAQhbZqY/d6DAhhADCsKTCvd8VUfzbkW/vSn8XjW+U8ECvEAmoqnPQTVjF6WwJ84KQo3Uhqdh/exHrH0f5dOwmCv5kHtDKkX8tpLRz+O85MDCxjhCYTMlxUGBTrlbRXy2CUusw73FC0cHh879MR/fOad1RI1GUMRL9DeiWc9qHjsext2j/nawWrKeMT2PUwVzjXGYHuE7U1dIiLg534dgrOHiwnHvAM9mbGGbi1ENqC6UFmRieeAJDZiEVYw00FkKISRSGtaKu8pOyAopaBg0S9rVwsaqQ/H87xz0SyEodaXaGgjE2lUSg524RBxtaHmzH3lLM3iptKrUlMTMsSwko+kRtdkyPlYuP5PJXaWnYRW5F+ciZhAF0ieT+X3tZ/STwhxN876MCigetCaB2FlNYcZxWIDUxc4Tuqqk7Dqm5ULAUuAeF+VDWMrDwUFwAP6kO7T7D7ScFUHRxUFCiwsUiyN+lJSLMyh45G3KqP7PyrVIoa3j4e2sp7K/Q/n+0z4fSU/O/w8533+OdfAtzxn77o1qPk7/p0WDE2VBKQfYm3r8KJGxj/66sUb+H01rE/iNaRu171e9TuP/itByfJIT4agrRkgoqVRWZPDsoHW3k15ZiURTATkNX64OAYOnST6n4vzeNXCGrVvYXZ7L7bn9fxzyemaPQcq+VHmDOvLcoe3k/WQ9y0NipOJnJ8zfGyJsPRM7bR1X+rpFT3/saKP4o88HyDJFfW0qqotLSdWvEgGbeMx9j3ZI74Ptoy0vkn9zNOf9XmPO1paQqWspbe9dVWoGEhPco3VJI5ki5dAI+DqHjtEJBLpzwr0ORsFSbDm1vgNYeIBIie3hk+Yd5W7WK3qjCwWz4m0vj39+c9VBV9uj08tJc+N6JcW5gKfziIo+0NAy3JENkAliMaJmHr/LwmtwOFQf9WYmHoTbApkw41/+BefCMArdaH36+7ODQnD/Tgr2MXMuLnLgLc+ZFcu9uD0TOY2lqIqgtNNy6q53Heb+fvj8AACAASURBVOt5r6yUwlGba0Ct2kXmsz/hwV/78n3UXRzlb0oIISZR6KZ76xUimcPq5R+wb9Fqls9NQPnDVaq7qqnuauUe81g6bytv5dRxcdMoQQ2AYmHXy1V8vPYttic8QyR3uXWvlR7msX75p1hfG1yZKyiKgfGkVVF0Y9x9dankbirjvWeWMw/o+cNVrvqDmsg5W9mXc4xtgx6TDUO2qWBM3kXFG3UcW7qepV+L5N6DY3EVdW4OO9b/nKqXRwlqgjoOoWOwQGkVfLBNS2DXelVbRqG1B5Zvhc8uQu4zgz4z4DAYAhwXPtwMLCWA5o/I4T5v1LrUVr8F+7bB8qWgtEJ1tfZd7kXC0tXw1sday81o42WVVP/xeAu2LgXu+oOaObDd//lpGdQ84hnyi6v4+QfbWG50cvVqNVdv3aWHOSzd+h4/t1aMGdQAKJmFHNy3/mGCRumJEkJMI6FbBFNtweqEVOPDhF2quwGrUyUx1jJqpTHmpp0N2HWJJOonuebw2WmwN2BXQTGkYgl66riKvdNKiy8RizH46edTdhwAZwu0AKmJYVjBOlycYG3RkvM9uCbt2u8SLaMHMmOxtwAGMD4OY2wftNg8w46fV3EwSyu0s8VKg2rEkhrMNanSUrwJyyvnIOcY1rJ8EkNcbCGECEYIV/cWQkxLIwQ2E6G2lFKQ/T2O35pDzjErZfmJEy+nEEKEQBgGDwshZi6VhtJCsjO/x/FbELm8gF2bEqe6UEII8YAENkKI8VNbqCgq4tJdiFy6ndLSvaNPDRdCiEk2yXl5hRCPNSWVguIyDBchc1M2ksdPCDHdyBgbIWYkFev+LDJ3VzNcgug5OcewluY/BjO5hBAiMNIVJcRMpRhGnO1kmAkrnAohxDCkxUYIIYQQM4a02AghhBBixpDARgghhBAzhgQ2QgghhJgxJLARQgghxIwhgY0QQgghZgwJbIQQQggxY0hgI4QQQogZY3oENh4bn508yg9P1tLqDWYDXmy3z/G3Rz+i5I4r1KX7yuhx3Kb8ZDE/KD5DtSOoEyEmSVf/9X5brnchhBhoGqwV5aLufCn76jpB0dG0Np2E6MC20NNRy4ETl6lRoe3mKrbMjyIyPIWdoby0Xitnz4k62gAMCjlTXSQxCi+97g7qm29ypbmdGy/ks3uliaipLpYQQkwDUx7YdNWfY19NJwDJ6avICDCowWvjdPlZalRASSEvwzQJQY0HW5sNu+rTftQpxMSZSIiKGKZ8HlptNrr73wug0zErysSiuNnj2luPw0a9wwO+gduIIt5sYu4wuwyMi7pLJ9hzvhk3YExZx+7NK1g26LuEtwxTq8dlo6nDQ6/PB+ggKpo0U3R4riOPgxs2h39ffqNdP8OKwJS+lXc9Jew428iV8+WcNm8jL35815MQo/I6qLt+jWqbG3QGFqWn8+1x3quEmA6mNLDpcVzjUHkddmCWeR2718wP8KnTw40LJznS7AP0ZOfk8HxcuGtZL7bqEr5/upneAb/Vp2zmw7x0TI/s3kPd2cPsqHEO3YySwtuF+awd4wv3OKrZc/i0FrgNkrxqOx+sjw++AvY6+PzUUd657gT0PPdCHrtXxg85B2Etw1Tz3OFI0YecfOQUGdjy6hv8YH6Ib+ZeGyVHD3PEPvSlWeYX+PDVlSSM+/KNIGXlVn7sPMqPKts5Vn4Zy2vrWST1jwiah9ZrFzhwphKre8CvL18mY91W3l4d6P1ZiKkxdYGNt4OK8nIuuAEliTdzVpAS4E256/Z59l220wvEZ2xm+5JAm3uCEcGsaDMWo4dun4q904kb0Ov16IdUSjpijGYsRgXtPuHD7ezErgJKNDHjOPqRumiSzUa6+4dS+Nw0dbq1bRsm0OXmdfBFuT+o0Zl5KS+PggXD37bCVobpQBdFitlMsuKh1+2kze0DXRQJUeH401AwxieRjEf7ceD1Y4ge5voZy2yWrdnAxtsfctJewyeNGSyalL8BMeN4bJSf+ogDN52AQnLKQizRYL9znSudbmrOn+BQ3Bv8bZqENmL6m6LAxktj5SkONaqAnjUbNpNtCvCu7qjnSHkNbcAs4yp2r1vA3HAUdRhzF6znpwvWg6uevQdLuKAqJC+IG+ZpJoKE5bn8bPmDQvN58WHeaVSJMacwrp6DqAUU5C+gwP+jq+0Mrx+ppI1Ylsfrg/wGHm5c+Ih36pxaULktj++OVpiwlGGaiIjj+dwCnsdL47kiXr1sB4OZ5MCjjHHsK5q1Oa+xtv9n123+8fBxKtw6kheYgrt+Z5t5Pt3M6fPt1NTexrZwOYH+KYWGl66OTtxKbABdamJa8Dr4otwf1BgWsvvlzTxv8t8PPCv55HgRh9rdXLhcy3dTVpMip1dMc1MyK8p15wL7LrTTCxiX5fBmeoDjGbwOPjtTToUT0JnZvmXNlDTBuzoaqVcBXRzLTeOo4F0dVNtUINiKzEt3ezt2AEM8aYbg7jAPW7r0rMnZPHpQE6YyTDteN/Xt2lgv43iDzglyORqpdwPEju/6GVYE8QsWkgy422/6tzf5bLUn+P7Bw+w400jX1BRBBMXDjcpT7LvuhNhl/Pi1rQ+DGoDZJrLXpGMEetuvUdMpsyXF9Df5gY3rNkfKL9PkA2JXsHt9WoAVvJfW2nIO3XQDCs+9sJmNU/KI6sXe2Oav4Mf3hD/xisxNU2MHvUCMOQVjMJWv6w4lZ7SWruQVW9kZcNdFCMowHak26mw+YKTWt1ALXYAYqY/DqAfUDuocnlAVMAAO6uubcaPDaI7mMW/D+0px3bnAgfPNuHVGtm/ewLejh16HUaaFWAwATho7hhloJ8Q0M7ldUV4HX5wp53QnWkvL5jUsC7AGcbVVsu9sozaDZ3EOb6bHTcIYDy+2O7V8UllHvQNi4heTkzEfe0BP+CGoyCbc4uPhRuUZTnYChmVsXxXEYMAJl2EacNn4ovZLym/acOvi+HbGCp5THra+LQu69SQQIQwQdXpiFMCt0u1WgXBGm15ar9VwxWMiO32+NiPO00GdTQWMfHt+rP/v0UPjtVpqfGay0+NDd514OviitpLPbtpw6xfzyoYMlkVF4Oq4zZXaa3zR3kk3Br69Yj1b0sI0s22m8Dq4crmWJiA5I4eNI93ElCgSFAAf3R6VHh7zcXVixpvEwMaL7foZDlzXBqdlrMthS6Dt/Z47lJSfp94HGJaxc8OS8I8n8Nj47NRH7Ls5YNqMvZ0rNQp6/E/488fzhD/ximzCLT6Om5TU2AGF59avZXkQzRKh6T6ZKl66bp9nT0mldg0BYKe++Tolik4b4G0wkxaO8TWDhSVA9NHrG/tdE+G6c549JyppA0rqVrB76zosqo16JxA7H4vBR2v9BY6cq+RKpw8MGaQtjGduKGItbwflJ4o40NjfatDODpuNNxc4KalspvvBG9upb27mxubXeDsMDz49ti/Zc/TssLMER6YjbdU23l0/nyhcfHHyKO/UdT4ys3JMhoXszt8aspmfrvZKShpVLU3GitHyIOmYNUN6nMVXw6R1RfXYajhw5ibdQMzCDewMON+Mi+rz5fyLHcDIS5s3BFUxB8TbQfmJo/6gRkf8wlXs3ryO5wwAqlYR6uJYZn4cxtd4aa2v1W7GhoV8NyWY2TOP9/iarttn+dFxf1CjT2LjC5vZnWFGD7j9eYYer/E1fj4VtwqgQ6+E91klKi6F55O08rrbK9lz8DDvnNOe+mdh41jRfr5fcpkrnT5izMvYvXUNy0J0PLsaL2kVMbGsWZWBRQd01nHIH9TMMi5m++bNbE/RA26ufH6J+nD0zOlmo9crAX7IR7dD9QcyOvRRUYF32bnduEMWuLqwVtbSBsQvWUXGMF1QD/g82DwAOvSzddJaI6a9yWmx8bRxsvy8v1JdzM4NiwNsafFiu3aGAzWdgA7LuhzyQp1jZAgPNy74Z27pjGzJe5ntC7SmbYuuHeuJmwE94U/5+BqvE+t1/4DtBUtIDurwPb7ja3oc1zh0qoYmIGbhRt7dvFxLL+CJpbXtiD9gHm/r20QNCBBjJx4g9rhttLkB9Bj1Yf6TjlpA3muFZNSeYV95HU2+TmoatZd6O5upAfTGxbyyfj0bF4SyK8iFtfYmdkCfsprtKwx8cq0GqxNAh2VVHm+vWcDcCOgxe6krOk2Ns5kvbB6WhfheERmXzt43UnjF1vFo4s2R6HToo82kPAgeZrNs/WucyBgm6eXwGwAlimRTHCGbcOZo5rNmFTCQsXiMrNVq58PryxBoQCfE5JuEwMZD3YVyjrT7gFi25Aw/QG00PR3XOVR+3X9Te4GdK4YmkQu1HlsNhyrb6UWHZd2WB0ENQExcEvG6m9T7GOe07YEV2fzgx9d0TKDFx93OFx1aIkNLSpDp9ydahinjoubcGS1nkmEZu3OWP8yZNDuaZXF6/sXuHn/r24S5aWr2B4imiQeI3bZmbSkMvYlF0ZMRbc4mJT2HH+vgR/3LcACgI3lFHu9uCEPqBZeN6nbt2ktbmITeXf9gBpg+5QV2+oMagEi9iWQ91Khu2jpUCMdDUEQUCfFRJExgE5HRJpZNUdqhLlu9NqZMb2b5GFmFu2y3aVIBJY5lk3J9CTExYQ9suurPcKDSjtbHvJlXRkgCNyKvjdPlZ7iiAvqF7MxJDyA7a7BcWL+s8Y/lWUzeksHdZj7wASikjXd8zYOKLCnI8TXN2jgGnSmoFh+Xw6YlBtTFscwU3FPXRMswVXo6rvHJTS2hoGXFaiyDTtiDcQ6P5fgaF0317biBWXFJJIf9gdpDa30Nxz6/zAX74EEmPpoqj7PDsY6dG1awLMAHmFEp0SxPMXKlMZrnFyi4mxtp8wHEkr1qySTcE/y8Hmy2AcupjMnf2hL/8D7x6BIe49mEDn2cmZSQNdd4sTfbtO67aDPGUa8ZF/XXtK4+vSllEq4vISYurIFN/5IJbYA+aR071wTa0uLhxoVyjvibTDfm5LA2lDfLkbhsfN6oDRZOXpIxtCJ0dWgDFcc7gyYk42uaH0wtD6bFp1d1aV1n+jiMSjDHcOJlmBpe7Lev+8fVpPDdtEGDSb0q3U6tgh530sQJCmWA2GO7xieN2rVlWTyfmDCeFlfbJd45cZ4af/dPfMoKntff4VidHf3CdXxXV8uR65203TzPjsZrbMnL5weBPsiMJCKOtVve9Cc3dFF9zqYFc+YMcsyDTprPrQXxKMSENIO0l9aa47x6tj2wQb9A8ortvL8hnijXbQ4cPk5FoPmGlBTefiMvRPc/FbtDK4BeHzV6xmtHM581aqk1LOkLpij5oxCBCd/gYW8HF/qXTNCn8GZORsAZK113LnDgsnYTSV6xme2TlM67x9FMkxvAyNqFg1trvNhttoAq+IlXZBNv8en1+bSbsU7HrCBKEIoyTA31YbnNS0gb3PSvdlDn0Ga3ja/1baJCGSB6qK+twepvWRwStIWUg5oLl6lxgjFlBW+/sYuP8lZhVJ30opCWtoS83Df4560ZJOsAXydtDpWecBTF49AWaERH8uIFGAcdQlf/368ujkVxoWxiiCDGnMEri80BDfyNiU0hIyVau7aUONauyiDDEMAGdAbSUhYSH9QDyTC8A2bP6UYL/Ly01lc+mHCQE9SEAyEmX5habLw01pQ/WDIhe0MQi1O66jl0qlKbbRHUApnBc7s7tIpHH0fy4CckTyc117RVDGPMKRh1Luqqa6nH/DCvxyMGVmSmARWZl9b6Gq50RPFcxhISRgsURmrxcbXxWe1NMK/g+fmjH51Z/Wfa5wluZkUIyjAlvG7sDq1FxpgUN6RC6mqu1Rb887e+uTrqqajtwJieEaYVjdXhA0Svg7raGuojFrIxfXwtmz0d1yip1QbUp2WsHNKyGFrRPLf5NT5U9cTH+fOYuG77x70YWWTSAxEkLMnhg6QMmhwK8fHhySPT42zXHhTQk2bSD9qHh6brt7WlVsyLsYS4ZTEqPp28+HTycoPcQEQ0y1fmsHxlTkjLFaj+h5tRu8McNzl22T/OMOzXlxChE5bAxtXmz2ZJkItTeh183r9kQpALZE5I/9+6EsWjk0y82Bo/5xP/DJq0+XHMslVy6PRlmnRm9PNfJWdIAKcOP1DU1UxJ+Vkq3HpsphR+uGDkL+hyNNPkhEdnVHlpvXaWA+fbwazH8urKUZuJZylR/mnNbrp9XiCwG34oyjC1dOhnK49Wgp42PrmkpSDQxte4qSk/xaGbKkaXCcuWBaEPpl02fzK7RwNEl62SA6craVM6MKa8POaq73g7uHDugvY0HZvO9vRA0ycELjLKRMqAcrk6/Es4GEyPZN6OjDKxKIyVYLetf3yNwtxBLQ4Pgz09z2WkTd7Ym8dJhILef2NzO2x0e5cMfSDzuvji83Nai7sxg+0Bp+cQYuqEvivKdZtjpy5T7wt2cUptyYQD193gX8so4AUyJ2iWPooYANVF94AHmh7HTQ75c/H0D8J1d/q7pfQm4ofrrPaMVJFd01oKFBOL4kZvDu62tWszTwbOqPI6sd60adO3zaYxV4aOijYTrwBqBzccgTbZhKYMXXcu8cN9e1i15+8pOFlL66QsO6MQM1sH+HC7BnaNeLhxuZyTWuOb1nqCixv+WV/x5uggu+xG19PfLTkoQGy7eUdrZYjzn6dReWisPMWBm24gli0bAs/gHQpup4NuwJiURvKk7d9F221tfA2o2AYO4vV2UHFGSysxy7yKVxZKE8PwdBjNcdr13dmMdcj6Tx5uVJZoi+TqjLy0YWrW4hMiWKENbLwuvjhXrqXs1yUFtTily1bDgf4lE5bl8OaSyU+LHhWXQpoecDfzebMD8GK7fYk9RSe40j/oTzFgVJzU1GozUowLFg6fG8aHvz9b97A7yGvjwmVt+rpxYcboybHgYZ4L3cNtdDVeoqTZBzozOenmsVsW9EmsNekALRhxjfX+UJfBc5tjp85T4wZQqa87xyfNAZcicBF60haamAU0XbtGmwctm/TJo+y4bH8wCNRoiqbXVkeNf7mPb883hOW666V/rFPEg+PY47hJSa2WETojY8kYY9G0wH/Pea2LIKiZhiFiWryZD94o5MMtga73NgEPxtcAOKm51kwX0OOop+j4US0rsZLEm5Mye/JxFYFx/mIsCuBrp+TcgIcMr4PqM8fZcb6dXhSee2ELr4Q9Z5gQoRXCrigvtuvlHKjTlkx47oWcwBen9LRRcvK8NhgyqAUyQyQqhe+uSuLK2WYunDhM/Rkf9v6BKTqFWT6VXvd19h2+qWWs1ZnJy0gavmJXtJadikaVKycO8hefG5jl7qRNBWIz2Dnmd4wgxmTGSDtt9su8+tNrJCs+2jrd9PqXphjXcY6IJmPFQmKar9NWe5krGeYAxj2FoAyqSvcjs4NV7AG3HAUjgoQla8iuPM5p+2VeP1jLLLeb/qpRr4BbhfoLR3nVp/rXIFvFcyFKWz9YVHQSafpK2tztHDj8Uz4xKLidnXT7wLh4A28uHq3b1kXdpRPs6e/mXbaVtwOeaRhCEVEkmCZ37z3O/hYvjb2uhO836ul1u/1BqoGNmzeTY5LKeDSRcUvIS6+kprKT7sbTfP+ndTxn1mFvb6fJreW7WrMxn93LpQtKPH6e3Lt3795QbKin45f8w8df0uQD4+LNvL12PoYnA9mCi+qzJfzTLbe2QGbei6z7T1P1yPUkc+MXYlE6+FWjHXvvfwAKyYvX8fbLOXzH9Aea2jv53X0f6GLZuDmXvOSo4aPEJ2eT8idm9F3N1HTex33/Pvd8EGNewd+9nM2KOWMfpMjoJL4Zd59bv/kdHfdVuu/38kedgTXZeexe+TRPjfNbPaWfyx+ba/lVdyc1v5vFs4sShxnsHKYyzP468VEqbe2/w94L8BSLMzP59txJuG1GzuWbaSY87Y1c77yvVYCGJLbkvMzb/3khho7fcavz97iBmJR1/I8//yYJ4SpWZByWZD3dd35Dk1vl3v37eP5DR/KyF/nxi+k8PdL58LRRfuI4/71aa2WKX7yVd1/8xjQe0xQeHY0X+ecb3fTqU9iyaA7dnU661V7+iP9v6r/k8b3Er011MR8DEZiSUknutWFtd+Lp/T1tnU66e/+DmKQV/Nf87/FfFkRP8irJQoTGE319fX0T3orHRsnxIi27cGwG776WE/A6Tl31pbxech07ChkvvMaPV06TJwWvC5sbYqIHr2jrpcvWidsQS8Ls8dQuXrpsNto8oI82DUivHgCPg0abA7cu+PTqAxfwi1+Wx7s5aYFVjhMqg5fWL4/z+tlm3LEZvF+QE7J1hMbL5XLg1kUz5IHe00GjU0e86WHXp8tho2ncKe9nE28yjTtQxOui1dZBt282RpNpaHkG6LpziQMnzvu7QRUy1uWxe/X8xyjzc6i4+KL0MHuuu9Ev3Mo/v7yEuV4HjTYfMaa48R978YgHCQOBWbOjSTbJquji8RaSgLyr+RKftPsAIy/lrAt8ccoBY06CWyAzjCKiMA3bOxDBXFMgyfYimGuKn1hlNDualPkTyyURaVrJ23lufnT8MvV1JeyJ2s4H6+PHf7yDLoOHxupT7DnbjBsDG9eHbnHEQERFRQ/fdTM77pGZdz22S+w4fJ6mALYds3ArH768ZHzneJwp+XtsX/LOca17dlbsQt7MySFnOk6rnwweB3X9+WuSTNrU/YhoUuKnuFyPuXDPYhNisoUksJmbtJqdL0Rjj05nYzADzSJiWbNuI73tEVjS079yzeuTLWr+et4vTKLimg39gnAmdQPw0HrtMkcu1XDFrqK1OGydtGSLQdPp0CvA4FUDRjFLCX2++cjYNPLWuUnDzPNf8enLD/PXGEgzD85fI4QQmtB0RQkxEtdtflp0nNNOQGdk4+Zc3lwS7mBKzES22mJePdWIW7+Md9/YEnjLsBDiK0HGhonwilrA9pfzWO6JwzIpSxaImelh/hq9af4k5s0RQjxupMVGCDF9Oa7xj0dPaFnIB1OS2FmwbZhs30KIr7LwLYIphBATpTOwaEGSlgl86IsPk14KIYSftNgIIYQQYsaQFhshhBBCzBgS2AghhBBixpDARgghhBAzhgQ2QgghhJgxJLARQgghxIwhgY0QQgghZgwJbIQQQggxY0hgI4QQQogZQwIbIYQQQswYEtgIIYQQYsaQlVZCzNlShbVFHfqCYiDVYsGoTH6ZhBBCiK8KWSsqlJwXKcz8M96/NfzLS9/6BVX7M5HYRgghhAgPabEJJYOF3IKtWEtbeNhmo2K3XqW1B1SnigoS2AghhBBhIi02YWenLD+TF4+3krD951iLsjBMdZGEEEKIGUoGDwshhBBixpDARgghhBAzxsTH2NirKC4uo8Hp/9mQSnZ+LlkGJ1VlBzlYdJEWjKRaMsnKzmZTtkW6YgJlt1JWVkGLkkn2pixS5QAKIYQQw5pwYNNycT+Fu8u5N+B3pRcrSG0p49ytnge/q75UzvH3d7Nr9VuUlu4lK6Tznr10VhbzT8d/SVcgH9PNY9XrO8n7xpwQliXE1AaK87N45Zx2hPeXfUxVaS6JMgJZCCGEGGLCXVGJ2Xspfm8fb+3Yzup52u9az53g3C1YmvMWH3z6GT//+Wcc27GehEi4e+kn/FlWIRX2ie55oAginnqK2bMD/Jjv99z7vRdvKIsSas4GKqwPw8a71osMlyZHCCGEEKGcFaW2ULQpldfP9QDzyPmggtICyyNTm9WGYnKzXqH8Ljyz/TMuFmVjDMnO/e7budN+j/vesUOViIg5zJ1vJjYilAUYzgRnRakNFG3K5HV/i01YjpsQQggxQ4Qlj03k6l3szbcMydeipOZycH8ZVa+Uc6v0IBW7ssgPZZ/KU0bmPzPDqnwllYKyBixlpVSRSe6mTAlqhBBCiBGEJbBJzc4iddh4RSFxUyGb9pdz5FYVZVV28hMTQ7NT7z3s7Xbu3R9n11JEBBFPzWW+OZawN9pMlGIkM7eQzKkuhxBCCDHNhSWwGbUNxpBIZuocjty6R0uLM0SZeL3c+d8/4yfnfhvg53Qs+Iv/xg/WGqd/cCOEEEKIMU1BHhsFRdFCGdXuJDTjYCMwr/hz1n/r6YAita8/vQhL0tclqBFCCCFmiLC02Djto6yJpNppaXECkRgSDSFbNynCaOE7f2nhO38Zog0KIYQQ4rETlhabFmsV9hGaYtSGi5RZe4BUsjJTZUFIIYQQQoRMWAKbnktFFFU5h76gtlC2/yDVPcDybDYNP8JYPELFWpSLxfAETxiz2X8xpAmAhBBCiBklTGNsbvF+bu6jlbCziqL8bL53ohVYyo79hWTK0gBjc16kaP8Jrt4D7p5jd+FBhosZhRBCCBGmwCZy3jwi755j958lkmjJJNOSijH6WV4/cQtIYOuxUvZnzcBsLKqVg1kKTzzxxIB/Jl483gpA65E/I/qR157AkF1EQyAjqFusNDgl9bAQQggxnLAENpbCUqo+28fW5QZar1ZTffUWd4F5y7dxrM5Kaf5MHVujYDAGFrD1zxAbkSGLXQd3sLx/OStVRZW4RgghhBhWWJZUWL6vjou7tMzDqrOBhhYwpqYS0nUvv2JU60GyMv+GauM2PqsqJnsGNngJIYQQExWW6d4DKYZULJZw72WGc1op3ruf6h5IyMrFIkGNEEIIMawpSNAnAuG0FlOQncXr5Xdhznp27cqStaKEEEKIEUhgM605aSg9yJHqezBnNW+VFlMgU+SFEEKIEYW9K0pMhIHMXaV8mlqFISuXrFCuhC6EEELMQBMePOy8WEjmn73PreFeTNjGp1XFbJK+EyGEEEJMghB0RSkYIkd4yaDM0GndQgghhJiOQjfdWwghhBBiisngYSGEEELMGBLYCCGEEGLGkMBGCCGEEDOGBDZCCCGEmDEksBFCCCHEjCGBjRBCCCFmDAlshBBCCDFjSGAjhBBCiBljegQ2HhufnTzKD0/W0uoNZgNebLfP8bdHP6LkjivUdC1G6gAAHqVJREFUpfvK6HHcpvxkMT8oPkO1I6gTISZJV//1fluudyGEGGgaLILpou58KfvqOkHR0bQ2nYTowLbQ01HLgROXqVGh7eYqtsyPYqRVHsRwvLReK2fPiTraAAwKOVNdJDEKL73uDuqbb3KluZ0bL+Sze6WJqKkulhBCTANTHth01Z9jX00nAMnpq8gIMKjBa+N0+VlqVEBJIS/DNAlBjQdbmw276tN+1CnExJlIiIoYpnweWm02uvvfC6DTMSvKxKK42ePaW4/DRr3DA76B24gi3mxi7jC7DIyLuksn2HO+GTdgTFnH7s0rWDbou4S3DFOrx2WjqcNDr88H6CAqmjRTdHiuI4+DGzaHf19+o10/w4rAlL6Vdz0l7DjbyJXz5Zw2byMvfnzXkxCj8jqou36NapsbdAYWpafz7XHeq4QIzT1uYqY0sOlxXONQeR12YJZ5HbvXzA/wqdPDjQsnOdLsA/Rk5+TwfFy4D5wXW3UJ3z/dTO+A3+pTNvNhXjqmR3bvoe7sYXbUOIduRknh7cJ81o7xhXsc1ew5fFoL3AZJXrWdD9bHB18Bex18fuoo71x3AnqeeyGP3Svjh5yDsJZhqnnucKToQ04+cooMbHn1DX4wP8Q3c6+NkqOHOWIf+tIs8wt8+OpKEsZ9+UaQsnIrP3Ye5UeV7Rwrv4zltfUskvpHBM1D67ULHDhTidU94NeXL5Oxbitvrw70/iy+ckJ6jwve1AU23g4qysu54AaUJN7MWUFKgDflrtvn2XfZTi8Qn7GZ7UsCbe4JRgSzos1YjB66fSr2TiduQK/Xox9ywnTEGM1YjArafcKH29mJXQWUaGLGcfQjddEkm4109w+l8Llp6nRr2zZMoMvN6+CLcn9QozPzUl4eBQuGv22FrQz/f3v3H9vWeS52/BuUkqnucKVkcSCHSzrSRKGiJ1VSASpXdhzMxvxLmNlOznVapUhyE8AOEM8ZnAz19bYk23JTIPWWXhuoDSRIjUZZBcfAVQA7tgALtexoC7ErGRJMtaZqwiSCQ4ySqF6ehZTINvvjUD8sy7JIHVI283z+M2wfvhLPec/zvu/zPu/DwGTB7XRSZ04yq00T1jJgsrDJUohHw4zdVUMdSf2Pi+8fa+Uy98+DVNCyvYN9tz7gk6ifc0Evm4vyDIiSk1TpPf8RJ8amATN17gaaKyF6e5TrExr+vh5O2l7hbzwS2oiVGN3H5WedAps0wcHznAymAIXtHZ3sduT4E8cDnOn1EwbK7ds4trOejYVo6jI21u/i5/W7IBHgzfe66U+Zqau3LTOaKWNT2zP8Xdt8o7nyq1O8FUxR5XSzqpUDSz2Hnq/nUPaPifAFXj4zSJhq2lxKnj9Bkpv9H/HW8LQeVD7XxdMrNaYgbXhIlNnY88wh9pAmePk0Lw5EweqkrhBPYFklO3wvsWPuz4lb/O2ps1zSTNTVO/K7fyuc7Gl18mlfBP/QLdSGNnJ9lIyRZjI2gWauLtp0szBIOs613mxQY23g2LOd7HFk+4PkFs6dPc3JiEb/wBBPu5/CXaSvdyahEs5YcVfKNOQjoxB9XB7WZVdU4nY/7/RHmAXsLT4Ot+aYz5CO89mFXi5NAyYnB/dvX5cp+EQsSCAFmGy0OVbxgk/E+EJNAfl+yWmmIhGiAFYXHmt+PczCTJfCdl/nykFNgdrw0ElrBCJ6rpd9tUHnGiXiQQIaQPXq7p9lleGqb6AO0CJj2esVnzrUw0/eO8WRC0Em16cJIi9Jbg6e553Raahu4e2XDiwENQAVDnZvb8UOzEZG8E8UZ7fkjPo5r//8FC/+qp+byaJ8pCgAY/q43BU/sEnc4kzvAOMZoLqdY7s8Ob7g09wZ6uXkmAaY2bq3k33rMkRNEw2Gsy/41Y3w1/4la4wHY8wCVU439nxevonbdF/QZ7rq2g9wNOelCwPa8DBKqQyrGeB+s29GMy5A3KDYsCtAKsZwfD3eAnECgRAaJuzOSh7xObxvlMTtfk70hdBMdg52dvBk5b33ocXRQLMVYJpgbJlEO8Olid4eJZABpdKxqiV78TBav0FwcW+ZdJxrF3r5dAJ9pqVzOy05vkES4UHeuRjUd/A0+jjcaitCjkca9fYQ5waHCcShytWIz1tLNKcRvgFf8ppnfJLcHLzAJxOAtYWD2/JIBlxzGx4CCZVrQ5/TO6aimWw86W1nq3lh9q2lKCMLAwNEk0KVGdBSTGkpoJDRZpo7I36uJx3sbq3Vd8QlYwyrKcDOk7XV2ecxSXBkCH/Gye5Wl3H3STLGtaFBPhtT0ZRGXujw0mIpIxG7xfWhEa5FJpjCypPtu9jvKdDOtlKRjnN9YIhxoM7rY9/9OjGzhU1mgAxTyRQzGJtXlwgPcSkEzd7WbJ5livFQjFlMNDc4qSoDSDMZHqU/ZKLZ25RzPuYKn05wZIhzQ2OEM9X4dnawx1Wh9xGBEa6NhQinTLgat3PQW/vI7wAtrvUbBBcxsEmjjl7gxKienObd6WN/rvP9ydt09/YRyADWFo52NBU+nyCp8tn5j3hnbNG2mWiE634zCtkRfu1qRvhr/5LXPOMTH6PbHwXMbN21g7Y8piXWa2rRGGkmb/VxvHtQv4cAiBIIjdJtNukJ3lYnnmJkuBUkQMwwm3nwv1qLxO0+jvcMEga6h9s5dmAnzSmVwDRQXUuzNcOdQD9nLg9yfSIDVi+eBhcbjejU0jF6e05zIjg3axDhiKpyuH6a7sEQU/P/MEIgFOJm50u8UYCBz4z6Ocffv7jsLsH7M+HZ9hzv7qrFQoJrn7zPW8MTd+2sfCBrA8eeP2DYzs9EZJDuYEovk9G+Uh0kE+WFeiQSAU50n9c3kQyOcPBAJ/sd2UDZ5KTNpaCpI5y5cJlPQtOAnYP1DbgrjGhQmuDVbl7ui2S/hwiBDya4s9PBjX6/PtDJCkQ+IKB28Qufx/jgJnmb02fP8nEkt4dXqdnLL7q24K5Ic2eoh9fPj7HMZqQVVLOv6yVeK1RC+DoOgou2FDWj+jlxYYwpoKqhg6M515tJ8EVfLx9HAez8uLMjrxdzTtIxenvezwY1JlwN2zjWuZOtVoCU/iI02WhxPgr5NWnuBIb0ztjawNPufHbPPNr5NZO3LvL62WxQo9Swb28nx7xOFEDL1hl6tPJrsjIptBSACcVc2LGKxeZmT43eXi0yyPH3TvHWZX3UX47Kh6d/xk+6B7g+kaHK2cKxA9tpMej3ORm8qr+IqWb7Ni/NJmBimJPZoKbc3sjBzk4OuhVA4/qVqwQKsTJnqkBRzDn+pwxT8VT2BWpCsVhyX7LTNDTDAtcENwaHCAOupm14l1mCmpdJoiYBTCgVJmMDRbODHR79GUQLcuaD9zjS049/GjCl+aL3FAdO9ehBjVLD/gP7DUs9mImP8uFAhFlMeFq2sbsayET4+GI2qDE79T6ivQYFCA9f4ZJaiByjCjaaFcpz/F9aYpq5lDrFbNFnbXO7AlOpDDO5/rdVWs9BcHFmbJJhPunty75UGzna0ZjjTEsadeQCJ/wTgInmnT66jK4xco8kN/uzO7dMdvZ3PcvBen1qu9kU4UbPWE4j/HXPr0lPc2M0m7Bd30RdXr++Rze/ZiY+wsnzfsaBqoZ9vNvZpk9nJ6u5Ez6TDZhXO/u2VosCxOq1B4gzmkpYA1CwKwV+pC31dL30Kt6hC7zTO8x4ZgJ/UP+r2YkQfkCxN/LCrl3sqzdyKSjBjSF9RKq4n+Jgu5VzI35uTAOYaN7WxRvb69lYBjPONMOnP8U/HeKamqTF4L5ig62VN19x84Iau7vw5v2YTCiVTtzzwUMFLbteose7TNHL5S8AZgt1DhuGbTiLh/gslAKseBsfULU6NbFwf1lzfnuurKySJ32H8DR+zonzF7k+nSIQDGU/N4o/AihO9m3fywutLgNnS9JEbw3Nv5Ne2NXO7IUhLk3ooUKVey9vH9iib0pJO5iKnOJMJMq10AT7XQYXga1w8PTzr7JdjRBOZuCBt4OJ8gobdY65JcEyNnp8nK5p56aauLsw3n2vYcbucOEoWB9ubB+XqyIENkmG+3s5E8kA1ez3LZ+gtpKZ2Cgne0ezndpejrbfW0TOaDOqn5ODejTfvHP/fFADUGWrwWUaI5Bhldu2F3/Jtfnn18TWMOOjRbgW0wsZNrvzLL+/1jasmwT+yxf06W5rC8d8bQtr9BWVtNgUPo5qq599WzMtm0MAVY61B4hTakg/CkNxsLkoW2MrcLf6eNsEr88dwwGAibr2Lt7tKEDphYTKFxH93vM01KBogfkdYIp7L0ezQQ3ABsVBnQL+lEY4loJCDILKLGxyWdi0hktsqHTQsk5lhybVgD4roThpe0BV4Un1FuMpwGyjpUD318baLbzxrIm3fvUp1xft7FNqdvJu11PG73pNawTG1OwgzUMdcbrVuRuqkaM+78Jnllmpq7ZCZJqoGkejENXty9joqF3bc1NhY3OtzagGrZGxfVyuCh7YTAYucGIwir7G3MkL9ykCd19plU97L3A9BSgNHPW1FqFyYYIbn/uzuTyNdDUtvZHnomozntXm18x/yTV55teE9DwGkyOvGZ9EXNULA5pstDjyG3WttQ3rZSY2wrkxvaBgc/tTNC/5wubzHB7J/JoE44EIGlBuq6HO4AH1vZLcCfj58MoA/dGlSSYZxgfPciS+k6Md7bTkOIBZkbmSNred68FK9tSb0UJBwhmAanZvaypKNVMA0klUddFxKg+UnW1xLfQTdx/hsZpLmFBsTtyGTdekiYZUffmu0ol9xXsmQWBEX+pTHO4C3F9pJsNjnBu4wqdjEyytVqCF+nj9fZXDvg72uAwczpaZqWtw44pEaG5yUq6N6H0bJjztTy2zNFeo5LU0kzGVcCK1+o8wWbA7HQurHsk4QTWOlsP9VG6xsdlWwOmBdd5kUtDAZu7IhDB65H10e64zLUlu9vdyJjtlus/nY4eRneX9JFSuBPVk4bom770vwkRMT1Rc7Q4aQ/JrQvNby/OZ8ZlNJfROQ7FhN+fzO1x7G9ZHmuit0WxejZunPUuSSdMppqb1F/SqiyaukZEB4ow6wrmgfm81N9Zmd5AURiJ8lbd6+vT8B0y43O3sUW7z4XAUpWEnT5uGODM6QXisjyPBEfZ3Pc+/y3Ugcz9lNnbsP5wt/JXgi8uqHsw5vficS760jKYH8ZipMrSCdJo7/rO8eDGSW9IvUNd+kF90uLAkbnHi1Fku5VpvyOzmjVe6DOr/UkTjegMUxbJyNdh4iM+CemmN5tZ6YzdrJG5xuvs8H0eybalu4MceE9cHRglXt3DYo3FuIEg0Oso7Z4J8tq2Lt3cZdaxDBe62Z/goWzxVHcoGyuYanm6qvm8foVjMOefCrCQR7uPImcFFs56rM388AXE+6znFO8Glg4wHUdj93Cv8jVHP5xLrPQguXPJwOkb/3JEJipvDPm/OFSsTt/s5MaB3InXtnRwsUjnvmXiIcQ3Azo6GpbM1aaKqmtMLfu1f8tpnfGYzGb0zNpnyfDDX3ob1kVpot7MJz9Kp/1SM4bi+u211s29rZWSAmCQw5OdGdmbxnqDNUHH8/QP4p8HubueNV37KR13bsKemmcWMx9NE1zOv8OsDXupMQGaCcDxVmMTEZFw/oBETdY312Jf8ChNzz6/JxmabkVMMZVQ5vbzQ6Mwp8beq2o3XXanfW2YbO7Z58VpzuIDJisfdgCuvAcky0ot2z5lWCvzS3AkMzm848OW14WCFa4/080lEo7y6gYNdr9Lz7w+wx6oRBaocHnbvep4PXtnH9mqAFOH55GujJQjf0gNlxdmEZ2nwmIoxHMvugHUa20dYKhvoam/Qn5lVKlfsbG1w6IOYMjMe7zb21eRyR5px1XhoqyzU9O76D4ILNGOTJujvnT8yYXdHHodTJgKcPD+o77bI64DM/GlaTP9SFBt1S2/y5AT+EX1TXZXTjd2UYPiLIQI4F+p63GXxl+xY9CWnuRPwcz1mYau3iU0rBQr3m/FJhPlsaAyc7eypXfm3Uz73TWeS+e2sMKAN6yKtEY3roxl7je2eF9JkaEg/8C87+5aIBbg0FMPe6i3Qicap5QPEdJzhIT+Bsgb2ta5uZnMmNkL3kJ5Q7/FuuWdm0ViVbO18iQ9SCi5bNmkxcSub92Jns0MBytjU5OOXNV7G42ZcrsLUkZmZjmSXDRQ8DmXJZyQZH72lH7XibKTZ4E7V4mqly9VK1zN5XqCskrYtPtq2+AxtV67mBjcrLofFx+Z3DTUbfn+Vsan1AL90ZrDPL9PF8Y+pzGKiriabB+ho481X6ulSUyiOAi1pzAfKYK9xULXkrycjQ/g1QKlhh9Pgh8xSy56OWvZ05HuBCjZ5nuI1z1O8ZmS71sS4Pi5fBQlsEuFsNUvyPJwyHefK3JEJeR6QuSZzz7rZwt2bTNKowSucy+6g8dTaKFcHOfnpAOMmJ0rti/juCeBSyydRJUJ0917kkqagOty8Vn//HzARDzE+DXfvqEpzZ+QiJ/oi4FRofnHLitPE5WZLdluzxlQmDeTW4RvRhvVlQqkw3/0STIY5d1UvQaDn12j4e89zciyFPeGgeX+98Q9fQs0Ws7s7QEyog5z4dJCwOYbd/ewDT30nHaP/cr8+mq5u5WBrIRIa77bB4sC9qF2JWPYIB6vjrsrbGywONhew15pS5/JrzGxcMuOwEOwpbPV6ipd78ygpM6NkOzYtrjKVbrp3QJZOcO3KZX3G3e7lYM7lOVahohK3a9GfEyrXVH07f93ime2yJf/OYAuB8jLlEpIqlwb0PsLlaadZzph9MKP6uDUwfikqcYsPzw8QyOR7OKV+ZMKJUQ2yZxnlfEDmGpUrFj1qTyWYWjSgmYmPcTJbi2cuCVebyC5LKQ5cyy1WJ+/3JY/oMwVmB5ttK08HT6kRfQ128Y6q9DQ3sln9dqfjgaemWiqduMxAKsbNeK5TNsa0YfL2VV575zjbjv9XDn0yxJ2iHDtjpqrCBGTQEouXRpLcHOjlk2xFqypHDXYS3Mzu+nI5Kw1dS58zM7csuSRADI/d1mcZbNnvaUVJgoPnOTGmAdXs78i9grcRtOk4U4C9xkNd0T5/YdkAUqiLk3jTMS5d0MtKlDu38ULDQziD+FAwYXfa9Pt7IsSNe85/SnJzsFs/JNdk58cdxTmLb0aL67lR1fU8aVARwtVYCJQzaNOLCx8luenv5cNIBsxuXtjmLNqqwaPMmD5ubYwNbNIJrl3u1Uv2m2ryOpwyofo5MXdkQouPw03FL4tusbnxKIAW4kooDqRRb13l+Omeha2IZit28zT+IX1Hir2+YfnaMBmy69mmheWgtEr/gL593d7gXbk4FizUuTAtXGMyeJXuUAZMTnytq3jglBp2OEyAHowkHvTvjW5D8hYfnu/Tp3RJERi+zLlQzq3IXZmCp8FBOTA+MkI4iV5N+pP3OTIQnV+ztzsqmVWH8WeP+3iy1lqQ+26WuVynsvnf40x8jO4hvSK019v0gFw0PfA/3pctLJbPTkODOBo7+eUrr/LB/lzPe1uDRcsGMI1/JMQkMBMPcPrs+3pVYnMNh4uye/JRVYa9tpFmM5CJ0H150SAjHeeLC2c50hdhFjNb9+7nhYLXDNNtcHh5+9Ar9BzqKOKhxosDZRgPjDKeBJIxrvSe5fW+iH5YcEcHW4uxcaUErL2PWzsDl6LSqKO9nBjWj0zYuteXe4XIZJjuT/r0ZMi8Dsg0iMXN09tquH4xRH/PKQIXMkTnElNMZsozKWa1Ud45NaZXrDU56fLWLP9iN+szO5eCKa73vMdfXbFSrk0QTgHVXo4+8Gcso8rhxE6EcHSAF38+Qp05Q3hCYzZ7NMWqfs9llXjbG6gKjRIeGuC615lD3pMBbUilmLorcT9FNOeZo3yUsalpO7sHz/JpdICX3xuiXNMWVewELQWB/vd5MZPKnkG2ja0FGjFaKmvwKIOEtQgnTv2cc1Yz2vQEUxmwN3ZwuHGlue4Ew1d7OD63zNtygDdy3mlooDILmxzF/fSZ6bnRoC463M1PggqzmpYNUq3s6+zEV7jKYyVhg62JrtZB/IMTTAU/5Sc/H2ar00Q0EmFc0+tdbd/3PMfaCr/EuaCMjQ5H0T4NWBIoAxODHHlvBEXTskd0mPC0H+BoUc4kLA1r6+OM8a0333zzTSMuNBP7P/y3//k54xmwN3byxo5arN/K5QoJvrjYzX//vaYfkNn1Q3b+s/WKkL/FRlcDzeYY/xCMEp39M2CmrnEnbzzr4986/h/jkQm+/CoDpmr2dT5DV51l+SjxWxW4/4UTZTKEf+IrtK++4o8ZqHK28x+f3U37dx78S9pQWcP3bV/x+z98SeyrFFNfzfInk5Xtu7s4tuUv+PYqf6pvKxv5U2iIf5iawP9lOX+5+fFVV/Jccxsq/ikuS4pw5EuiswDfpvGJJ3hyYxG6iw0b+b7HQTISZHTiK/0FaK1hv+9Z3vjXDVhjX/L7iX9EA6rcO/kv/+b7bCpUszbYaK5TmLr9B8a1FH/86iuSfzZR1/JD3v5hK39xv+8jGaa35yz/+Qt9lsnVeIB3f/gvH+KcpsKIBX/Lr29OMau42b/5O0xNTDOVmuVPZJ+pv+7iR4//k/Vu5iOgDEfNd6mbVbkRmSY5+4+EJ6aZmv0zVTXt/Ifnf8Rf11cW+ZTk4puZuMGvr/+B2J+tbPe6qfjj/yWqzZIEUNwc/NHzHP3Lf77qPlaQfx9noMe+/vrrr9d8laRK99nTenXhai/vvuTL+RynycBveLl7lChmvHtf4u0txRwprCCdQNWgqnLpibZpJtUJNGs1m1Z1IFuaSVUlnASl0rGovHoO5goxmfIvr774AD9XSxfv+jy5vRzX1IY0dz4/y8sXQ2jVXn5xyGfYOUKrlUjE0UyV95YST8YITptwORaWPhNxlfFVl7yvwOVwrL7kezrBHTXGVKYCu8OxYmnzydtXOdHTl10GNePd2cWxp9ZYpfSRlODab05xfFRDaTjAr59tYmM6TlDNUOWwycnLeZovGAiUV1RS5/jmnIquDv2KF88H0awtvHtoP22WJKo6DdaVn0mxCjn0cUYzJCCfDF3lXCQD2Pmxb2fuh1MuyjnJ74DMAiqz4Fh25kyfNl39y6WMjQ7XGktmV+KuXds03gbHFt7o0nj97ACB4W6OWw7yy12u1f++825DkuAX5zl+MYSGlX27jDscMRcWS+XySzcVtrt23s2oVzlyqo/xHK5d1XCAD55tWt13vMqS/DPq57x1Vl+eLa9u4LDPh+9h3FZfDMk4w3P1a2oc+tb9Au+Y+SYo9C62h9ei+jW22mwCfAUOiWiMYcCxI/kyJLDZWPMUR/dWEq1sZV8+iWZl1WzfuY/ZSBnNra3fuOn1YrPU7uIXr9ZwaURFqS/02nGSOyMDnLnq53o0hT7jcKBoxRbzZjKhmIEcCnqWm41P9d9Q7aFrp4YHJ3u+4duXF7blWvE4l9avESJHiws9unMruigebsYsoVY4eHLLWpK+ythY20ZXrSGtEauwobIe31P1hf+gRIRzlwe4Pg2Y7OzrfIbDTQ9/It4G2xb+7j9tWe9mZAu67aJtvdvxEJjflqs4C3YYo/jmkEC5dJV6bphYb5Z6Dj7bRVvSRnNRjiwQpWnRsoGjtoh1c0SpkkC5dBmTPCyEEIUQH+Fv3+/Rq5AvZa7h6KHnlqn2LcR9pGP0dr/PieByp5AqbD9wiDdzrZQvHjqFOwRTCCHWymRlc33NPef3ZP9yoeilEKtiwl5Tg+c+6XDlKx4KKh4VMmMjhBBCiJIhMzZCCCGEKBkS2AghhBCiZEhgI4QQQoiSIYGNEEIIIUqGBDZCCCGEKBkS2AghhBCiZEhgI4QQQoiSIYGNEEIIIUqGBDZCCCGEKBkS2AghhBCiZEhgI4QQQoiSIYGNEEIIIUqGBDZCCCGEKBkS2AghhBCiZEhgI4QQQoiSIYGNEEIIIUqGBDZCCCGEKBkS2AghhBCiZEhgI4QQQoiSIYGNEEIIIUqGBDZCCCGEKBkS2AghhBCiZEhgI4QQQoiSIYGNEEIIIUqGBDZCCCGEKBmFC2yiv+Vnux/nscfMfPcHP+N/T+d6gRS/+9XzNFsf4zH7Exz6ze9IFb0NQgghhHiUPPb1119/bfxlU/zu9G6aX77KDADfwffhDf7++cdXf4np33LoiX/Fmd9n//y9I/yv377HE9YitkEIIYQQj5TiLUWZ1/0ChlxCCCGEEA+vAgU2Zr77gzd5ddcmNrCB7x08zXs/eDy3S1if4NWfPsf3vgNs2sX/OP3THGZrDGqDEEIIIR4pBVqKEkIIIYQoPtkVJYQQQoiSIYGNEEIIIUqGBDZCCCGEKBkS2AghhBCiZEhgI4QQQoiSIYGNEEIIIUqGBDZCCCGEKBkS2AghhBCiZEhgI4QQQoiSIYGNEEIIIUqGBDZCCCGEKBkS2AghhBCiZEhgI4QQQoiSIYGNEEIIIUrG/weFxO2QnsEfVQAAAABJRU5ErkJggg==;imageBorder=default;strokeWidth=4;" vertex="1" parent="1">
          <mxGeometry x="1250" y="249" width="566" height="244" as="geometry" />
        </mxCell>
        <mxCell id="k0ymyrdRpFGEkxgsoQmm-45" value="&lt;span style=&quot;font-size: 32px;&quot;&gt;symbolic execution traces&lt;/span&gt;" style="text;html=1;align=center;verticalAlign=middle;resizable=0;points=[];autosize=1;strokeColor=none;fillColor=none;" vertex="1" parent="1">
          <mxGeometry x="1330" y="510" width="390" height="50" as="geometry" />
        </mxCell>
      </root>
    </mxGraphModel>
  </diagram>
</mxfile>
